<svg id="レイヤー_1" data-name="レイヤー 1" xmlns="http://www.w3.org/2000/svg" viewBox="0 0 1679.16 1313.92"><defs><style>.cls-1,.cls-10,.cls-100,.cls-101,.cls-102,.cls-103,.cls-104,.cls-105,.cls-106,.cls-107,.cls-108,.cls-109,.cls-11,.cls-110,.cls-111,.cls-112,.cls-113,.cls-114,.cls-115,.cls-116,.cls-117,.cls-118,.cls-119,.cls-12,.cls-120,.cls-121,.cls-122,.cls-123,.cls-124,.cls-125,.cls-126,.cls-127,.cls-128,.cls-129,.cls-13,.cls-130,.cls-131,.cls-132,.cls-14,.cls-15,.cls-16,.cls-17,.cls-18,.cls-19,.cls-2,.cls-20,.cls-21,.cls-22,.cls-23,.cls-24,.cls-25,.cls-26,.cls-27,.cls-28,.cls-29,.cls-3,.cls-30,.cls-31,.cls-32,.cls-33,.cls-34,.cls-35,.cls-36,.cls-37,.cls-38,.cls-39,.cls-4,.cls-40,.cls-41,.cls-42,.cls-43,.cls-44,.cls-45,.cls-46,.cls-47,.cls-48,.cls-49,.cls-5,.cls-50,.cls-51,.cls-52,.cls-53,.cls-54,.cls-55,.cls-56,.cls-57,.cls-58,.cls-59,.cls-6,.cls-60,.cls-61,.cls-62,.cls-63,.cls-64,.cls-65,.cls-66,.cls-67,.cls-68,.cls-69,.cls-7,.cls-70,.cls-71,.cls-72,.cls-73,.cls-74,.cls-75,.cls-76,.cls-77,.cls-78,.cls-79,.cls-8,.cls-80,.cls-81,.cls-82,.cls-83,.cls-84,.cls-85,.cls-86,.cls-87,.cls-88,.cls-89,.cls-9,.cls-90,.cls-91,.cls-92,.cls-93,.cls-94,.cls-95,.cls-96,.cls-97,.cls-98,.cls-99{fill:none;}.cls-10,.cls-100,.cls-101,.cls-102,.cls-103,.cls-104,.cls-105,.cls-106,.cls-107,.cls-108,.cls-109,.cls-11,.cls-110,.cls-111,.cls-112,.cls-113,.cls-114,.cls-115,.cls-116,.cls-117,.cls-118,.cls-119,.cls-12,.cls-120,.cls-121,.cls-122,.cls-123,.cls-124,.cls-125,.cls-126,.cls-127,.cls-128,.cls-129,.cls-13,.cls-130,.cls-131,.cls-132,.cls-14,.cls-15,.cls-16,.cls-17,.cls-18,.cls-19,.cls-2,.cls-20,.cls-21,.cls-22,.cls-23,.cls-24,.cls-25,.cls-26,.cls-27,.cls-28,.cls-29,.cls-3,.cls-30,.cls-31,.cls-32,.cls-33,.cls-34,.cls-35,.cls-36,.cls-37,.cls-38,.cls-39,.cls-4,.cls-40,.cls-41,.cls-42,.cls-43,.cls-44,.cls-45,.cls-46,.cls-47,.cls-48,.cls-49,.cls-5,.cls-50,.cls-51,.cls-52,.cls-53,.cls-54,.cls-55,.cls-56,.cls-57,.cls-58,.cls-59,.cls-6,.cls-60,.cls-61,.cls-62,.cls-63,.cls-64,.cls-65,.cls-66,.cls-67,.cls-68,.cls-69,.cls-7,.cls-70,.cls-71,.cls-72,.cls-73,.cls-74,.cls-75,.cls-76,.cls-77,.cls-78,.cls-79,.cls-8,.cls-80,.cls-81,.cls-82,.cls-83,.cls-84,.cls-85,.cls-86,.cls-87,.cls-88,.cls-89,.cls-9,.cls-90,.cls-91,.cls-92,.cls-93,.cls-94,.cls-95,.cls-96,.cls-97,.cls-98,.cls-99{stroke:#c3e0e0;stroke-miterlimit:10;}.cls-2{stroke-width:0.86px;}.cls-3{stroke-width:0.55px;}.cls-4{stroke-width:0.71px;}.cls-5{stroke-width:0.52px;}.cls-6{stroke-width:0.66px;}.cls-7{stroke-width:1px;}.cls-8{stroke-width:0.62px;}.cls-9{stroke-width:0.79px;}.cls-10{stroke-width:0.58px;}.cls-11{stroke-width:0.85px;}.cls-12{stroke-width:0.85px;}.cls-13{stroke-width:0.86px;}.cls-14{stroke-width:0.83px;}.cls-15{stroke-width:0.83px;}.cls-16{stroke-width:0.88px;}.cls-17{stroke-width:0.74px;}.cls-18{stroke-width:0.51px;}.cls-19{stroke-width:0.66px;}.cls-20{stroke-width:0.9px;}.cls-21{stroke-width:0.92px;}.cls-22{stroke-width:1px;}.cls-23{stroke-width:0.94px;}.cls-24{stroke-width:0.78px;}.cls-25{stroke-width:0.64px;}.cls-26{stroke-width:0.92px;}.cls-27{stroke-width:0.94px;}.cls-28{stroke-width:0.53px;}.cls-29{stroke-width:0.79px;}.cls-30{stroke-width:0.54px;}.cls-31{stroke-width:0.92px;}.cls-32{stroke-width:0.87px;}.cls-33{stroke-width:0.76px;}.cls-34{stroke-width:0.61px;}.cls-35{stroke-width:0.93px;}.cls-36{stroke-width:0.81px;}.cls-37{stroke-width:0.62px;}.cls-38{stroke-width:0.88px;}.cls-39{stroke-width:0.91px;}.cls-40{stroke-width:0.61px;}.cls-41{stroke-width:0.9px;}.cls-42{stroke-width:0.85px;}.cls-43{stroke-width:0.54px;}.cls-44{stroke-width:0.84px;}.cls-45{stroke-width:0.84px;}.cls-46{stroke-width:0.83px;}.cls-47{stroke-width:0.75px;}.cls-48{stroke-width:0.71px;}.cls-49{stroke-width:0.61px;}.cls-50{stroke-width:0.83px;}.cls-51{stroke-width:0.52px;}.cls-52{stroke-width:0.95px;}.cls-53{stroke-width:0.98px;}.cls-54{stroke-width:0.52px;}.cls-55{stroke-width:0.82px;}.cls-56{stroke-width:0.65px;}.cls-57{stroke-width:0.7px;}.cls-58{stroke-width:0.63px;}.cls-59{stroke-width:0.85px;}.cls-60{stroke-width:0.5px;}.cls-61{stroke-width:0.6px;}.cls-62{stroke-width:0.89px;}.cls-63{stroke-width:0.53px;}.cls-64{stroke-width:0.51px;}.cls-65{stroke-width:0.91px;}.cls-66{stroke-width:0.61px;}.cls-67{stroke-width:0.62px;}.cls-68{stroke-width:0.52px;}.cls-69{stroke-width:0.76px;}.cls-70{stroke-width:0.6px;}.cls-71{stroke-width:0.59px;}.cls-72{stroke-width:0.5px;}.cls-73{stroke-width:0.81px;}.cls-74{stroke-width:0.89px;}.cls-75{stroke-width:0.56px;}.cls-76{stroke-width:0.83px;}.cls-77{stroke-width:0.78px;}.cls-78{stroke-width:1px;}.cls-79{stroke-width:0.73px;}.cls-80{stroke-width:0.75px;}.cls-81{stroke-width:0.65px;}.cls-82{stroke-width:0.95px;}.cls-83{stroke-width:0.95px;}.cls-84{stroke-width:0.6px;}.cls-85{stroke-width:0.84px;}.cls-86{stroke-width:0.77px;}.cls-87{stroke-width:0.77px;}.cls-88{stroke-width:0.56px;}.cls-89{stroke-width:0.66px;}.cls-90{stroke-width:0.62px;}.cls-91{stroke-width:0.63px;}.cls-92{stroke-width:0.61px;}.cls-93{stroke-width:0.77px;}.cls-94{stroke-width:0.98px;}.cls-95{stroke-width:0.66px;}.cls-96{stroke-width:0.51px;}.cls-97{stroke-width:0.73px;}.cls-98{stroke-width:0.79px;}.cls-99{stroke-width:0.8px;}.cls-100{stroke-width:0.66px;}.cls-101{stroke-width:0.92px;}.cls-102{stroke-width:0.77px;}.cls-103{stroke-width:0.88px;}.cls-104{stroke-width:0.83px;}.cls-105{stroke-width:0.91px;}.cls-106{stroke-width:0.57px;}.cls-107{stroke-width:0.58px;}.cls-108{stroke-width:0.56px;}.cls-109{stroke-width:0.92px;}.cls-110{stroke-width:0.78px;}.cls-111{stroke-width:0.64px;}.cls-112{stroke-width:0.76px;}.cls-113{stroke-width:0.72px;}.cls-114{stroke-width:0.65px;}.cls-115{stroke-width:0.9px;}.cls-116{stroke-width:0.66px;}.cls-117{stroke-width:0.71px;}.cls-118{stroke-width:0.73px;}.cls-119{stroke-width:0.63px;}.cls-120{stroke-width:0.92px;}.cls-121{stroke-width:0.87px;}.cls-122{stroke-width:0.56px;}.cls-123{stroke-width:0.5px;}.cls-124{stroke-width:0.85px;}.cls-125{stroke-width:0.73px;}.cls-126{stroke-width:0.77px;}.cls-127{stroke-width:0.79px;}.cls-128{stroke-width:0.53px;}.cls-129{stroke-width:0.66px;}.cls-130{stroke-width:0.69px;}.cls-131{stroke-width:0.53px;}.cls-132{stroke-width:0.87px;}</style></defs><title>bg-circle</title><rect class="cls-1" x="123.03" y="67.11" width="13.51" height="13.51" transform="translate(-140.12 184.89) rotate(-27.54)"/><circle class="cls-2" cx="129.79" cy="73.87" r="6.33" transform="translate(-140.12 184.89) rotate(-27.54)"/><rect class="cls-1" x="342.69" y="224.12" width="8.57" height="8.57" transform="translate(-187.33 306.6) rotate(-28.06)"/><circle class="cls-3" cx="346.98" cy="228.4" r="4.01" transform="translate(-187.33 306.6) rotate(-28.06)"/><rect class="cls-1" x="160.83" y="364.26" width="11.13" height="11.13" transform="translate(-357.86 446.61) rotate(-60.15)"/><circle class="cls-4" cx="166.4" cy="369.83" r="5.21" transform="translate(-357.86 446.61) rotate(-60.15)"/><rect class="cls-1" x="308.6" y="506.74" width="8.18" height="8.18" transform="translate(-369.99 420.31) rotate(-38.31)"/><circle class="cls-5" cx="312.69" cy="510.83" r="3.83" transform="translate(-369.99 420.31) rotate(-38.31)"/><rect class="cls-1" x="140.29" y="644.53" width="10.3" height="10.3" transform="translate(-133.09 119.41) rotate(-1.1)"/><circle class="cls-6" cx="145.44" cy="649.67" r="4.82" transform="translate(-133.09 119.41) rotate(-1.1)"/><rect class="cls-1" x="350.28" y="756.91" width="15.62" height="15.62" transform="matrix(0.52, -0.85, 0.85, 0.52, -601.92, 788.82)"/><circle class="cls-7" cx="358.08" cy="764.72" r="7.31" transform="translate(-601.92 788.82) rotate(-58.63)"/><rect class="cls-1" x="327.02" y="863.83" width="9.75" height="9.75" transform="translate(-717.7 1028.76) rotate(-71.77)"/><circle class="cls-8" cx="331.89" cy="868.7" r="4.56" transform="translate(-717.7 1028.76) rotate(-71.77)"/><rect class="cls-1" x="376.65" y="1006.86" width="12.34" height="12.34" transform="translate(-815.47 1236.88) rotate(-74.99)"/><circle class="cls-9" cx="382.82" cy="1013.04" r="5.78" transform="translate(-815.47 1236.88) rotate(-74.99)"/><rect class="cls-1" x="358.94" y="1160.3" width="9.09" height="9.09" transform="translate(-497.26 311.16) rotate(-20.01)"/><circle class="cls-10" cx="363.49" cy="1164.84" r="4.26" transform="translate(-497.26 311.16) rotate(-20.01)"/><rect class="cls-1" x="467.5" y="903.1" width="13.37" height="13.37" transform="translate(-352.38 281.8) rotate(-15.95)"/><circle class="cls-11" cx="474.18" cy="909.78" r="6.26" transform="translate(-352.38 281.8) rotate(-15.95)"/><rect class="cls-1" x="599.31" y="990.03" width="13.31" height="13.31" transform="matrix(1, -0.07, 0.07, 1, -193.26, 164.43)"/><circle class="cls-12" cx="605.97" cy="996.69" r="6.23" transform="translate(-193.26 164.43) rotate(-4.27)"/><rect class="cls-1" x="721.73" y="1098.52" width="13.42" height="13.42" transform="translate(-539.93 1881.22) rotate(-86.49)"/><circle class="cls-13" cx="728.44" cy="1105.23" r="6.28" transform="translate(-539.93 1881.22) rotate(-86.49)"/><rect class="cls-1" x="858.09" y="933.97" width="13" height="13" transform="translate(-509.13 808.27) rotate(-36.18)"/><circle class="cls-14" cx="864.59" cy="940.47" r="6.09" transform="translate(-509.13 808.27) rotate(-36.18)"/><rect class="cls-1" x="964.12" y="1095.54" width="13.06" height="13.06" transform="translate(-611.72 1360.57) rotate(-54.18)"/><circle class="cls-15" cx="970.65" cy="1102.08" r="6.12" transform="translate(-611.72 1360.57) rotate(-54.18)"/><rect class="cls-1" x="1067.6" y="966.74" width="13.86" height="13.86" transform="translate(-206.35 1959.97) rotate(-79.04)"/><circle class="cls-16" cx="1074.53" cy="973.67" r="6.49" transform="translate(-206.35 1959.97) rotate(-79.04)"/><rect class="cls-1" x="1181.7" y="971.16" width="11.53" height="11.53" transform="translate(-362.04 1661.65) rotate(-61.13)"/><circle class="cls-17" cx="1187.46" cy="976.92" r="5.4" transform="translate(-362.04 1661.65) rotate(-61.13)"/><rect class="cls-1" x="1319.5" y="1188.02" width="7.96" height="7.96" transform="translate(-534.03 913.75) rotate(-29.2)"/><circle class="cls-18" cx="1323.48" cy="1192" r="3.73" transform="translate(-534.03 913.75) rotate(-29.2)"/><rect class="cls-1" x="1436.73" y="1085.95" width="10.33" height="10.33" transform="translate(-123.77 120.61) rotate(-0.16)"/><circle class="cls-19" cx="1441.9" cy="1091.11" r="4.83" transform="translate(-123.77 120.61) rotate(-0.16)"/><rect class="cls-1" x="1541.46" y="963.22" width="14.02" height="14.02" transform="translate(-198.85 254.21) rotate(-4.97)"/><circle class="cls-20" cx="1548.48" cy="970.24" r="6.56" transform="translate(-198.85 254.21) rotate(-4.97)"/><rect class="cls-1" x="1579.13" y="1034.82" width="14.35" height="14.35" transform="translate(35.52 2406.24) rotate(-74.4)"/><circle class="cls-21" cx="1586.31" cy="1041.99" r="6.72" transform="translate(35.52 2406.24) rotate(-74.4)"/><rect class="cls-1" x="1781.15" y="913.46" width="15.63" height="15.63" transform="translate(-105.98 1987.05) rotate(-55.4)"/><circle class="cls-22" cx="1788.96" cy="921.28" r="7.32" transform="translate(-105.98 1987.05) rotate(-55.4)"/><rect class="cls-1" x="1565.09" y="771.09" width="14.67" height="14.67" transform="translate(612.05 2435.51) rotate(-87.74)"/><circle class="cls-23" cx="1572.42" cy="778.43" r="6.87" transform="translate(612.05 2435.51) rotate(-87.74)"/><rect class="cls-1" x="1696.73" y="668.14" width="12.29" height="12.29" transform="translate(246.04 2043.42) rotate(-64.75)"/><circle class="cls-24" cx="1702.87" cy="674.28" r="5.75" transform="translate(246.04 2043.42) rotate(-64.75)"/><rect class="cls-1" x="1600.43" y="552.85" width="9.98" height="9.98" transform="translate(281.29 1874.44) rotate(-64.08)"/><circle class="cls-25" cx="1605.42" cy="557.83" r="4.67" transform="translate(281.29 1874.44) rotate(-64.08)"/><rect class="cls-1" x="1560.25" y="436.43" width="14.44" height="14.44" transform="translate(675.42 1995) rotate(-77.54)"/><circle class="cls-26" cx="1567.47" cy="443.66" r="6.76" transform="translate(675.42 1995) rotate(-77.54)"/><rect class="cls-1" x="1763.09" y="320.61" width="14.67" height="14.67" transform="translate(-150.59 471.09) rotate(-11.34)"/><circle class="cls-27" cx="1770.42" cy="327.94" r="6.87" transform="translate(-150.59 471.09) rotate(-11.34)"/><rect class="cls-1" x="1648.32" y="202.54" width="8.31" height="8.31" transform="translate(821.93 1829.68) rotate(-71.9)"/><circle class="cls-28" cx="1652.48" cy="206.69" r="3.89" transform="translate(821.93 1829.68) rotate(-71.9)"/><rect class="cls-1" x="1644.04" y="53.93" width="12.41" height="12.41" transform="translate(1466.56 1826.77) rotate(-89.9)"/><circle class="cls-29" cx="1650.25" cy="60.13" r="5.81" transform="translate(1466.56 1826.77) rotate(-89.9)"/><rect class="cls-1" x="1626.15" y="-95.25" width="8.47" height="8.47" transform="translate(-105.18 267.48) rotate(-5.33)"/><circle class="cls-30" cx="1630.39" cy="-91.01" r="3.97" transform="matrix(1, -0.09, 0.09, 1, -105.18, 267.48)"/><rect class="cls-1" x="1504.45" y="-110.76" width="14.35" height="14.35" transform="translate(193.6 941.41) rotate(-33.87)"/><circle class="cls-31" cx="1511.63" cy="-103.58" r="6.72" transform="translate(193.6 941.41) rotate(-33.87)"/><rect class="cls-1" x="1379.59" y="15.71" width="13.69" height="13.69" transform="translate(60.56 824.76) rotate(-30.57)"/><circle class="cls-32" cx="1386.43" cy="22.55" r="6.41" transform="translate(60.56 824.76) rotate(-30.57)"/><rect class="cls-1" x="1232.28" y="-114.22" width="11.93" height="11.93" transform="translate(139.77 775.63) rotate(-33.13)"/><circle class="cls-33" cx="1238.24" cy="-108.25" r="5.58" transform="translate(139.77 775.63) rotate(-33.13)"/><rect class="cls-1" x="1117.05" y="-50.57" width="9.52" height="9.52" transform="translate(288.91 938.61) rotate(-48.29)"/><circle class="cls-34" cx="1121.81" cy="-45.82" r="4.45" transform="translate(288.91 938.61) rotate(-48.29)"/><rect class="cls-1" x="964.51" y="-55.92" width="14.58" height="14.58" transform="translate(627.76 1014.9) rotate(-73.86)"/><circle class="cls-35" cx="971.8" cy="-48.63" r="6.82" transform="translate(627.76 1014.9) rotate(-73.86)"/><rect class="cls-1" x="861.17" y="65.53" width="12.68" height="12.68" transform="translate(-91.38 423.16) rotate(-20.38)"/><circle class="cls-36" cx="867.51" cy="71.87" r="5.93" transform="translate(-91.38 423.16) rotate(-20.38)"/><rect class="cls-1" x="739.46" y="-55.13" width="9.69" height="9.69" transform="translate(471.46 796.54) rotate(-74.36)"/><circle class="cls-37" cx="744.31" cy="-50.29" r="4.54" transform="translate(471.46 796.54) rotate(-74.36)"/><rect class="cls-1" x="618.47" y="-41.87" width="13.73" height="13.73" transform="translate(165.3 607.91) rotate(-53.99)"/><circle class="cls-38" cx="625.33" cy="-35" r="6.43" transform="translate(165.3 607.91) rotate(-53.99)"/><rect class="cls-1" x="516.21" y="11.95" width="14.26" height="14.26" transform="translate(-20.82 443.65) rotate(-38.12)"/><circle class="cls-39" cx="523.33" cy="19.07" r="6.67" transform="translate(-20.82 443.65) rotate(-38.12)"/><rect class="cls-1" x="386.74" y="83.82" width="9.49" height="9.49" transform="translate(-105.62 344.37) rotate(-33.05)"/><circle class="cls-40" cx="391.48" cy="88.57" r="4.44" transform="translate(-105.62 344.37) rotate(-33.05)"/><rect class="cls-1" x="248.53" y="-19.73" width="14.04" height="14.04" transform="translate(-10.31 314.48) rotate(-52.58)"/><circle class="cls-41" cx="255.55" cy="-12.71" r="6.57" transform="translate(-10.31 314.48) rotate(-52.58)"/><rect class="cls-1" x="1609.31" y="951.91" width="13.38" height="13.38" transform="translate(-330.58 1518.28) rotate(-44.32)"/><circle class="cls-42" cx="1616" cy="958.6" r="6.26" transform="translate(-330.58 1518.28) rotate(-44.32)"/><rect class="cls-1" x="1516.15" y="742.89" width="8.51" height="8.51" transform="translate(-262.29 1191.6) rotate(-37.33)"/><circle class="cls-43" cx="1520.4" cy="747.15" r="3.98" transform="translate(-262.29 1191.6) rotate(-37.33)"/><rect class="cls-1" x="1364.08" y="823.63" width="13.22" height="13.22" transform="translate(114.42 2077.46) rotate(-76.08)"/><circle class="cls-44" cx="1370.69" cy="830.24" r="6.19" transform="translate(114.42 2077.46) rotate(-76.08)"/><rect class="cls-1" x="1215.39" y="754.32" width="13.15" height="13.15" transform="translate(-338.2 872.98) rotate(-31.73)"/><circle class="cls-45" cx="1221.96" cy="760.9" r="6.16" transform="translate(-338.2 872.98) rotate(-31.73)"/><rect class="cls-1" x="1111.24" y="822.9" width="12.97" height="12.97" transform="translate(5.19 1922.31) rotate(-81.13)"/><circle class="cls-46" cx="1117.73" cy="829.39" r="6.07" transform="matrix(0.15, -0.99, 0.99, 0.15, 5.19, 1922.31)"/><rect class="cls-1" x="984.69" y="867.04" width="11.8" height="11.8" transform="translate(-353.51 492.94) rotate(-19.3)"/><circle class="cls-47" cx="990.59" cy="872.95" r="5.53" transform="translate(-353.51 492.94) rotate(-19.3)"/><rect class="cls-1" x="858.57" y="981.71" width="11.09" height="11.09" transform="translate(-567.82 1148.01) rotate(-50.74)"/><circle class="cls-48" cx="864.11" cy="987.26" r="5.19" transform="translate(-567.82 1148.01) rotate(-50.74)"/><rect class="cls-1" x="738.13" y="901.26" width="9.56" height="9.56" transform="translate(-535.84 1200.54) rotate(-59.39)"/><circle class="cls-49" cx="742.91" cy="906.04" r="4.47" transform="matrix(0.51, -0.86, 0.86, 0.51, -535.84, 1200.54)"/><rect class="cls-1" x="600.51" y="687.6" width="13.05" height="13.05" transform="translate(-290.12 1307.98) rotate(-81.47)"/><circle class="cls-50" cx="607.04" cy="694.12" r="6.11" transform="translate(-290.12 1307.98) rotate(-81.47)"/><rect class="cls-1" x="487.68" y="822.32" width="8.07" height="8.07" transform="translate(-411.09 383.47) rotate(-23.67)"/><circle class="cls-51" cx="491.71" cy="826.36" r="3.78" transform="translate(-411.09 383.47) rotate(-23.67)"/><rect class="cls-1" x="349.55" y="946.48" width="14.83" height="14.83" transform="translate(-725.32 1406.03) rotate(-88.72)"/><circle class="cls-52" cx="356.97" cy="953.9" r="6.94" transform="matrix(0.02, -1, 1, 0.02, -725.32, 1406.03)"/><rect class="cls-1" x="247.87" y="804.32" width="15.36" height="15.36" transform="translate(-560.74 437.83) rotate(-37.33)"/><circle class="cls-53" cx="255.55" cy="812" r="7.19" transform="translate(-560.74 437.83) rotate(-37.33)"/><rect class="cls-1" x="1561.12" y="757.09" width="8.15" height="8.15" transform="translate(-295.72 905.41) rotate(-26.85)"/><circle class="cls-54" cx="1565.19" cy="761.17" r="3.81" transform="translate(-295.72 905.41) rotate(-26.85)"/><rect class="cls-1" x="1410.78" y="768.44" width="12.83" height="12.83" transform="translate(175.11 2053.8) rotate(-74.7)"/><circle class="cls-55" cx="1417.2" cy="774.85" r="6.01" transform="translate(175.11 2053.8) rotate(-74.7)"/><rect class="cls-1" x="1317.05" y="481.64" width="10.22" height="10.22" transform="translate(-182.46 867.28) rotate(-31.01)"/><circle class="cls-56" cx="1322.16" cy="486.75" r="4.78" transform="matrix(0.86, -0.52, 0.52, 0.86, -182.46, 867.28)"/><rect class="cls-1" x="1220.37" y="571.71" width="10.89" height="10.89" transform="translate(-91.35 1329.39) rotate(-53.2)"/><circle class="cls-57" cx="1225.82" cy="577.16" r="5.1" transform="translate(-91.35 1329.39) rotate(-53.2)"/><rect class="cls-1" x="1120.73" y="726.74" width="9.84" height="9.84" transform="translate(-326.43 1020.7) rotate(-40.41)"/><circle class="cls-58" cx="1125.65" cy="731.66" r="4.61" transform="translate(-326.43 1020.7) rotate(-40.41)"/><rect class="cls-1" x="966.94" y="669.17" width="13.29" height="13.29" transform="translate(-313.26 1003.6) rotate(-45.04)"/><circle class="cls-59" cx="973.58" cy="675.82" r="6.22" transform="translate(-313.26 1003.6) rotate(-45.04)"/><rect class="cls-1" x="857.86" y="646.54" width="7.87" height="7.87" transform="translate(-172.7 191.9) rotate(-4.86)"/><circle class="cls-60" cx="861.8" cy="650.47" r="3.68" transform="matrix(1, -0.08, 0.08, 1, -172.7, 191.9)"/><rect class="cls-1" x="715.29" y="705.02" width="9.39" height="9.39" transform="translate(-212.88 224.21) rotate(-8.04)"/><circle class="cls-61" cx="719.98" cy="709.71" r="4.4" transform="translate(-212.88 224.21) rotate(-8.04)"/><rect class="cls-1" x="598.84" y="653.94" width="14" height="14" transform="translate(-247.21 1294.65) rotate(-82.72)"/><circle class="cls-62" cx="605.85" cy="660.94" r="6.55" transform="translate(-247.21 1294.65) rotate(-82.72)"/><rect class="cls-1" x="468.96" y="584.07" width="8.28" height="8.28" transform="translate(-358.91 957.32) rotate(-70.74)"/><circle class="cls-63" cx="473.1" cy="588.21" r="3.88" transform="translate(-358.91 957.32) rotate(-70.74)"/><rect class="cls-1" x="361" y="692.72" width="8.04" height="8.04" transform="translate(-530.06 675.5) rotate(-52.26)"/><circle class="cls-64" cx="365.02" cy="696.73" r="3.76" transform="translate(-530.06 675.5) rotate(-52.26)"/><rect class="cls-1" x="248.42" y="650.69" width="14.26" height="14.26" transform="translate(-291.86 212.25) rotate(-15.98)"/><circle class="cls-65" cx="255.55" cy="657.82" r="6.68" transform="translate(-291.86 212.25) rotate(-15.98)"/><rect class="cls-1" x="1626.25" y="564.46" width="9.6" height="9.6" transform="translate(791.7 2256.71) rotate(-84.66)"/><circle class="cls-66" cx="1631.05" cy="569.26" r="4.49" transform="translate(791.7 2256.71) rotate(-84.66)"/><rect class="cls-1" x="1491" y="350.98" width="9.75" height="9.75" transform="translate(-158.19 358.49) rotate(-9.13)"/><circle class="cls-67" cx="1495.87" cy="355.86" r="4.56" transform="translate(-158.19 358.49) rotate(-9.13)"/><rect class="cls-1" x="1395.26" y="351.45" width="8.1" height="8.1" transform="translate(-163.25 398.52) rotate(-11.34)"/><circle class="cls-68" cx="1399.31" cy="355.5" r="3.79" transform="translate(-163.25 398.52) rotate(-11.34)"/><rect class="cls-1" x="1268.17" y="540.16" width="11.87" height="11.87" transform="translate(-226.01 525.89) rotate(-17.54)"/><circle class="cls-69" cx="1274.1" cy="546.09" r="5.56" transform="translate(-226.01 525.89) rotate(-17.54)"/><rect class="cls-1" x="1152.56" y="378.45" width="9.33" height="9.33" transform="translate(-44.83 1062.27) rotate(-45.81)"/><circle class="cls-70" cx="1157.22" cy="383.12" r="4.37" transform="translate(-44.83 1062.27) rotate(-45.81)"/><rect class="cls-1" x="1021.52" y="310.11" width="9.31" height="9.31" transform="translate(-162.26 321.75) rotate(-11.2)"/><circle class="cls-71" cx="1026.17" cy="314.77" r="4.36" transform="translate(-162.26 321.75) rotate(-11.2)"/><rect class="cls-1" x="909.92" y="410.64" width="7.85" height="7.85" transform="translate(-136.34 152.96) rotate(-2.27)"/><circle class="cls-72" cx="913.85" cy="414.57" r="3.68" transform="translate(-136.34 152.96) rotate(-2.27)"/><rect class="cls-1" x="781.21" y="355.87" width="12.63" height="12.63" transform="translate(-36.07 985.91) rotate(-60.51)"/><circle class="cls-73" cx="787.52" cy="362.18" r="5.91" transform="translate(-36.07 985.91) rotate(-60.51)"/><rect class="cls-1" x="625.92" y="440.4" width="13.93" height="13.93" transform="translate(-233.12 351.39) rotate(-19.34)"/><circle class="cls-74" cx="632.88" cy="447.36" r="6.52" transform="translate(-233.12 351.39) rotate(-19.34)"/><rect class="cls-1" x="515.72" y="417.39" width="8.85" height="8.85" transform="translate(-239.11 336.6) rotate(-21.51)"/><circle class="cls-75" cx="520.15" cy="421.81" r="4.14" transform="translate(-239.11 336.6) rotate(-21.51)"/><rect class="cls-1" x="370.63" y="462.96" width="13.05" height="13.05" transform="translate(-236.37 932.05) rotate(-86.3)"/><circle class="cls-76" cx="377.16" cy="469.49" r="6.11" transform="translate(-236.37 932.05) rotate(-86.3)"/><rect class="cls-1" x="249.45" y="432.42" width="12.2" height="12.2" transform="translate(-372.2 576.74) rotate(-62.22)"/><circle class="cls-77" cx="255.55" cy="438.52" r="5.71" transform="translate(-372.2 576.74) rotate(-62.22)"/><rect class="cls-1" x="1652.45" y="252.23" width="15.63" height="15.63" transform="translate(986.92 1963.58) rotate(-79.7)"/><circle class="cls-78" cx="1660.27" cy="260.04" r="7.32" transform="translate(986.92 1963.58) rotate(-79.7)"/><rect class="cls-1" x="1544.31" y="360.73" width="11.44" height="11.44" transform="translate(872.37 1975.14) rotate(-82.83)"/><circle class="cls-79" cx="1550.03" cy="366.45" r="5.35" transform="translate(872.37 1975.14) rotate(-82.83)"/><rect class="cls-1" x="1427.57" y="222.26" width="11.73" height="11.73" transform="translate(7.89 980.31) rotate(-35.02)"/><circle class="cls-80" cx="1433.43" cy="228.12" r="5.49" transform="translate(7.89 980.31) rotate(-35.02)"/><rect class="cls-1" x="1297.09" y="192.72" width="10.13" height="10.13" transform="translate(68.65 1018.79) rotate(-40.97)"/><circle class="cls-81" cx="1302.15" cy="197.78" r="4.74" transform="translate(68.65 1018.79) rotate(-40.97)"/><rect class="cls-1" x="1186.88" y="262.23" width="14.96" height="14.96" transform="translate(344.83 1370.09) rotate(-66.19)"/><circle class="cls-82" cx="1194.36" cy="269.71" r="7" transform="translate(344.83 1370.09) rotate(-66.19)"/><rect class="cls-1" x="1049.43" y="118.65" width="14.94" height="14.94" transform="translate(-68.23 594.76) rotate(-26.12)"/><circle class="cls-83" cx="1056.9" cy="126.12" r="6.99" transform="translate(-68.23 594.76) rotate(-26.12)"/><rect class="cls-1" x="940.67" y="176.23" width="9.43" height="9.43" transform="translate(485.49 1198.23) rotate(-80.2)"/><circle class="cls-84" cx="945.38" cy="180.94" r="4.41" transform="translate(485.49 1198.23) rotate(-80.2)"/><rect class="cls-1" x="783.29" y="352.37" width="13.14" height="13.14" transform="translate(-166.64 708.05) rotate(-39.99)"/><circle class="cls-85" cx="789.87" cy="358.94" r="6.15" transform="translate(-166.64 708.05) rotate(-39.99)"/><rect class="cls-1" x="670.25" y="224.65" width="12.05" height="12.05" transform="translate(-95.53 641.42) rotate(-43.15)"/><circle class="cls-86" cx="676.27" cy="230.67" r="5.64" transform="translate(-95.53 641.42) rotate(-43.15)"/><rect class="cls-1" x="555.68" y="93.85" width="12.08" height="12.08" transform="translate(212.77 739.27) rotate(-76.5)"/><circle class="cls-87" cx="561.72" cy="99.89" r="5.66" transform="translate(212.77 739.27) rotate(-76.5)"/><rect class="cls-1" x="406.84" y="251.78" width="8.77" height="8.77" transform="translate(-155.09 562.75) rotate(-55.02)"/><circle class="cls-88" cx="411.22" cy="256.17" r="4.1" transform="translate(-155.09 562.75) rotate(-55.02)"/><rect class="cls-1" x="250.4" y="348.86" width="10.3" height="10.3" transform="translate(-137.61 129.37) rotate(-2.79)"/><circle class="cls-89" cx="255.55" cy="354.01" r="4.82" transform="translate(-137.61 129.37) rotate(-2.79)"/><rect class="cls-1" x="1506.27" y="1022.93" width="9.74" height="9.74" transform="translate(224.87 2551.89) rotate(-84.59)"/><circle class="cls-90" cx="1511.14" cy="1027.8" r="4.56" transform="translate(224.87 2551.89) rotate(-84.59)"/><rect class="cls-1" x="1404.76" y="897.83" width="9.85" height="9.85" transform="translate(-319.79 556.74) rotate(-16.6)"/><circle class="cls-91" cx="1409.69" cy="902.75" r="4.61" transform="translate(-319.79 556.74) rotate(-16.6)"/><rect class="cls-1" x="1305.97" y="784.77" width="9.6" height="9.6" transform="translate(-233.19 344.14) rotate(-9.52)"/><circle class="cls-92" cx="1310.77" cy="789.57" r="4.49" transform="translate(-233.19 344.14) rotate(-9.52)"/><rect class="cls-1" x="1486.74" y="634.16" width="12" height="12" transform="translate(-28.59 1579) rotate(-53.63)"/><circle class="cls-93" cx="1492.74" cy="640.16" r="5.62" transform="translate(-28.59 1579) rotate(-53.63)"/><rect class="cls-1" x="1455.28" y="523.86" width="15.28" height="15.28" transform="translate(-170.11 1015.94) rotate(-33.64)"/><circle class="cls-94" cx="1462.92" cy="531.5" r="7.15" transform="translate(-170.11 1015.94) rotate(-33.64)"/><rect class="cls-1" x="1486.22" y="416.38" width="10.42" height="10.42" transform="translate(-43.73 1171.6) rotate(-39.91)"/><circle class="cls-95" cx="1491.43" cy="421.59" r="4.88" transform="translate(-43.73 1171.6) rotate(-39.91)"/><rect class="cls-1" x="1416.28" y="275.52" width="8.01" height="8.01" transform="translate(-52.09 913.95) rotate(-32.1)"/><circle class="cls-96" cx="1420.29" cy="279.53" r="3.75" transform="translate(-52.09 913.95) rotate(-32.1)"/><rect class="cls-1" x="1587.4" y="151.88" width="11.49" height="11.49" transform="translate(952.84 1788.38) rotate(-76.71)"/><circle class="cls-97" cx="1593.15" cy="157.62" r="5.38" transform="translate(952.84 1788.38) rotate(-76.71)"/><rect class="cls-1" x="1398.42" y="19.83" width="12.34" height="12.34" transform="matrix(0.27, -0.96, 0.96, 0.27, 883.26, 1488.99)"/><circle class="cls-98" cx="1404.59" cy="26" r="5.78" transform="translate(883.26 1488.99) rotate(-74.49)"/><rect class="cls-1" x="1346.7" y="983.53" width="12.55" height="12.55" transform="translate(-434.53 927.66) rotate(-30.07)"/><circle class="cls-99" cx="1352.98" cy="989.8" r="5.87" transform="translate(-434.53 927.66) rotate(-30.07)"/><rect class="cls-1" x="1223.61" y="828.49" width="10.37" height="10.37" transform="translate(-341.66 1271.24) rotate(-46.64)"/><circle class="cls-100" cx="1228.8" cy="833.67" r="4.86" transform="translate(-341.66 1271.24) rotate(-46.64)"/><rect class="cls-1" x="1256.61" y="694.04" width="14.45" height="14.45" transform="translate(-267.87 1130.86) rotate(-41.54)"/><circle class="cls-101" cx="1263.83" cy="701.27" r="6.76" transform="translate(-267.87 1130.86) rotate(-41.54)"/><rect class="cls-1" x="1291.19" y="553.48" width="12.06" height="12.06" transform="translate(-132.21 144.06) rotate(-1.21)"/><circle class="cls-102" cx="1297.22" cy="559.51" r="5.65" transform="translate(-132.21 144.06) rotate(-1.21)"/><rect class="cls-1" x="1104.54" y="439.13" width="13.71" height="13.71" transform="translate(-94.83 1068.14) rotate(-46.84)"/><circle class="cls-103" cx="1111.4" cy="445.99" r="6.42" transform="translate(-94.83 1068.14) rotate(-46.84)"/><rect class="cls-1" x="1144.06" y="318.47" width="12.98" height="12.98" transform="translate(191.39 1293.7) rotate(-61.24)"/><circle class="cls-104" cx="1150.55" cy="324.96" r="6.08" transform="translate(191.39 1293.7) rotate(-61.24)"/><rect class="cls-1" x="1332.98" y="171.82" width="14.31" height="14.31" transform="translate(-115.33 510.67) rotate(-16.76)"/><circle class="cls-105" cx="1340.13" cy="178.98" r="6.7" transform="translate(-115.33 510.67) rotate(-16.76)"/><rect class="cls-1" x="1358.55" y="21.53" width="8.94" height="8.94" transform="translate(257.44 1085.08) rotate(-44.83)"/><circle class="cls-106" cx="1363.02" cy="26" r="4.18" transform="translate(257.44 1085.08) rotate(-44.83)"/><rect class="cls-1" x="887.82" y="983.54" width="9.02" height="9.02" transform="translate(-406.36 484.27) rotate(-20.14)"/><circle class="cls-107" cx="892.33" cy="988.05" r="4.22" transform="translate(-406.36 484.27) rotate(-20.14)"/><rect class="cls-1" x="873.94" y="847.5" width="8.76" height="8.76" transform="translate(-434.46 692.65) rotate(-31.1)"/><circle class="cls-108" cx="878.32" cy="851.88" r="4.1" transform="translate(-434.46 692.65) rotate(-31.1)"/><rect class="cls-1" x="882.99" y="711.48" width="14.43" height="14.43" transform="translate(-356.58 1037.3) rotate(-49.09)"/><circle class="cls-109" cx="890.21" cy="718.69" r="6.76" transform="translate(-356.58 1037.3) rotate(-49.09)"/><rect class="cls-1" x="940.81" y="600.97" width="12.14" height="12.14" transform="translate(-271.53 478.51) rotate(-20.08)"/><circle class="cls-110" cx="946.88" cy="607.04" r="5.68" transform="translate(-271.53 478.51) rotate(-20.08)"/><rect class="cls-1" x="1104.29" y="454.46" width="10.04" height="10.04" transform="translate(-186.83 820.84) rotate(-34.27)"/><circle class="cls-111" cx="1109.31" cy="459.48" r="4.7" transform="translate(-186.83 820.84) rotate(-34.27)"/><rect class="cls-1" x="1001.48" y="314.8" width="11.97" height="11.97" transform="translate(-170.5 433.64) rotate(-17.46)"/><circle class="cls-112" cx="1007.47" cy="320.78" r="5.6" transform="translate(-170.5 433.64) rotate(-17.46)"/><rect class="cls-1" x="932.96" y="174.86" width="11.34" height="11.34" transform="translate(112.4 941.86) rotate(-53.31)"/><circle class="cls-113" cx="938.63" cy="180.53" r="5.31" transform="translate(112.4 941.86) rotate(-53.31)"/><rect class="cls-1" x="1006.8" y="20.94" width="10.12" height="10.12" transform="translate(0.88 624.05) rotate(-29.88)"/><circle class="cls-114" cx="1011.86" cy="26" r="4.74" transform="translate(0.88 624.05) rotate(-29.88)"/><rect class="cls-1" x="810.2" y="995.23" width="14.14" height="14.14" transform="translate(-450.12 1716.78) rotate(-78.35)"/><circle class="cls-115" cx="817.27" cy="1002.3" r="6.62" transform="translate(-450.12 1716.78) rotate(-78.35)"/><rect class="cls-1" x="756.91" y="870.38" width="10.36" height="10.36" transform="translate(-517.29 923) rotate(-45.55)"/><circle class="cls-116" cx="762.09" cy="875.56" r="4.85" transform="translate(-517.29 923) rotate(-45.55)"/><rect class="cls-1" x="652.74" y="775.82" width="11.11" height="11.11" transform="translate(-478.86 794.58) rotate(-44.08)"/><circle class="cls-117" cx="658.29" cy="781.38" r="5.2" transform="translate(-478.86 794.58) rotate(-44.08)"/><rect class="cls-1" x="595.67" y="673.19" width="11.45" height="11.45" transform="translate(-410.94 629.47) rotate(-37.92)"/><circle class="cls-118" cx="601.4" cy="678.91" r="5.36" transform="translate(-410.94 629.47) rotate(-37.92)"/><rect class="cls-1" x="575.4" y="565.75" width="9.94" height="9.94" transform="translate(-151.6 149.76) rotate(-3.2)"/><circle class="cls-119" cx="580.37" cy="570.72" r="4.65" transform="translate(-151.6 149.76) rotate(-3.2)"/><rect class="cls-1" x="772.65" y="410.35" width="14.38" height="14.38" transform="translate(-222.73 602.94) rotate(-32.63)"/><circle class="cls-120" cx="779.84" cy="417.54" r="6.73" transform="translate(-222.73 602.94) rotate(-32.63)"/><rect class="cls-1" x="770.1" y="288.29" width="13.56" height="13.56" transform="translate(299.97 1162.38) rotate(-85.41)"/><circle class="cls-121" cx="776.88" cy="295.07" r="6.35" transform="translate(299.97 1162.38) rotate(-85.41)"/><rect class="cls-1" x="581.68" y="176.74" width="8.75" height="8.75" transform="translate(-30.76 658.32) rotate(-53.19)"/><circle class="cls-122" cx="586.05" cy="181.12" r="4.1" transform="translate(-30.76 658.32) rotate(-53.19)"/><rect class="cls-1" x="783.83" y="22.05" width="7.89" height="7.89" transform="translate(-47.84 474.35) rotate(-26.79)"/><circle class="cls-123" cx="787.78" cy="26" r="3.69" transform="translate(-47.84 474.35) rotate(-26.79)"/><rect class="cls-1" x="381.2" y="1005.53" width="13.34" height="13.34" transform="translate(-371.63 252.99) rotate(-15.14)"/><circle class="cls-124" cx="387.87" cy="1012.2" r="6.24" transform="translate(-371.63 252.99) rotate(-15.14)"/><rect class="cls-1" x="541.55" y="905.77" width="11.37" height="11.37" transform="translate(-280.8 234.33) rotate(-10.73)"/><circle class="cls-125" cx="547.24" cy="911.45" r="5.32" transform="matrix(0.98, -0.19, 0.19, 0.98, -280.8, 234.33)"/><rect class="cls-1" x="545.85" y="783.62" width="12.1" height="12.1" transform="matrix(1, -0.04, 0.04, 1, -148.48, 136.69)"/><circle class="cls-126" cx="551.9" cy="789.67" r="5.66" transform="translate(-148.48 136.69) rotate(-2.04)"/><rect class="cls-1" x="354.03" y="658.71" width="12.37" height="12.37" transform="translate(-230.93 189.38) rotate(-10.03)"/><circle class="cls-127" cx="360.22" cy="664.89" r="5.79" transform="translate(-230.93 189.38) rotate(-10.03)"/><rect class="cls-1" x="559.63" y="565.64" width="8.25" height="8.25" transform="translate(-314.21 423.69) rotate(-26.18)"/><circle class="cls-128" cx="563.75" cy="569.76" r="3.86" transform="translate(-314.21 423.69) rotate(-26.18)"/><rect class="cls-1" x="547.81" y="454.81" width="10.42" height="10.42" transform="translate(-204.19 911.58) rotate(-67.52)"/><circle class="cls-129" cx="553.02" cy="460.02" r="4.88" transform="translate(-204.19 911.58) rotate(-67.52)"/><rect class="cls-1" x="579.74" y="297.93" width="10.85" height="10.85" transform="translate(-138.34 686.37) rotate(-51.25)"/><circle class="cls-130" cx="585.17" cy="303.35" r="5.08" transform="translate(-138.34 686.37) rotate(-51.25)"/><rect class="cls-1" x="422.85" y="156.8" width="8.28" height="8.28" transform="translate(-133.07 400.56) rotate(-36.31)"/><circle class="cls-131" cx="426.98" cy="160.94" r="3.87" transform="translate(-133.07 400.56) rotate(-36.31)"/><rect class="cls-1" x="384.38" y="19.15" width="13.69" height="13.69" transform="translate(100.52 495.8) rotate(-68.1)"/><circle class="cls-132" cx="391.22" cy="26" r="6.41" transform="translate(100.52 495.8) rotate(-68.1)"/></svg>