<svg id="レイヤー_1" data-name="レイヤー 1" xmlns="http://www.w3.org/2000/svg" viewBox="0 0 1779.5 1339.49"><defs><style>.cls-1,.cls-10,.cls-100,.cls-101,.cls-102,.cls-103,.cls-104,.cls-105,.cls-106,.cls-107,.cls-108,.cls-109,.cls-11,.cls-110,.cls-111,.cls-112,.cls-113,.cls-114,.cls-12,.cls-13,.cls-14,.cls-15,.cls-16,.cls-17,.cls-18,.cls-19,.cls-2,.cls-20,.cls-21,.cls-22,.cls-23,.cls-24,.cls-25,.cls-26,.cls-27,.cls-28,.cls-29,.cls-3,.cls-30,.cls-31,.cls-32,.cls-33,.cls-34,.cls-35,.cls-36,.cls-37,.cls-38,.cls-39,.cls-4,.cls-40,.cls-41,.cls-42,.cls-43,.cls-44,.cls-45,.cls-46,.cls-47,.cls-48,.cls-49,.cls-5,.cls-50,.cls-51,.cls-52,.cls-53,.cls-54,.cls-55,.cls-56,.cls-57,.cls-58,.cls-59,.cls-6,.cls-60,.cls-61,.cls-62,.cls-63,.cls-64,.cls-65,.cls-66,.cls-67,.cls-68,.cls-69,.cls-7,.cls-70,.cls-71,.cls-72,.cls-73,.cls-74,.cls-75,.cls-76,.cls-77,.cls-78,.cls-79,.cls-8,.cls-80,.cls-81,.cls-82,.cls-83,.cls-84,.cls-85,.cls-86,.cls-87,.cls-88,.cls-89,.cls-9,.cls-90,.cls-91,.cls-92,.cls-93,.cls-94,.cls-95,.cls-96,.cls-97,.cls-98,.cls-99{fill:none;}.cls-10,.cls-100,.cls-101,.cls-102,.cls-103,.cls-104,.cls-105,.cls-106,.cls-107,.cls-108,.cls-109,.cls-11,.cls-110,.cls-111,.cls-112,.cls-113,.cls-114,.cls-12,.cls-13,.cls-14,.cls-15,.cls-16,.cls-17,.cls-18,.cls-19,.cls-2,.cls-20,.cls-21,.cls-22,.cls-23,.cls-24,.cls-25,.cls-26,.cls-27,.cls-28,.cls-29,.cls-3,.cls-30,.cls-31,.cls-32,.cls-33,.cls-34,.cls-35,.cls-36,.cls-37,.cls-38,.cls-39,.cls-4,.cls-40,.cls-41,.cls-42,.cls-43,.cls-44,.cls-45,.cls-46,.cls-47,.cls-48,.cls-49,.cls-5,.cls-50,.cls-51,.cls-52,.cls-53,.cls-54,.cls-55,.cls-56,.cls-57,.cls-58,.cls-59,.cls-6,.cls-60,.cls-61,.cls-62,.cls-63,.cls-64,.cls-65,.cls-66,.cls-67,.cls-68,.cls-69,.cls-7,.cls-70,.cls-71,.cls-72,.cls-73,.cls-74,.cls-75,.cls-76,.cls-77,.cls-78,.cls-79,.cls-8,.cls-80,.cls-81,.cls-82,.cls-83,.cls-84,.cls-85,.cls-86,.cls-87,.cls-88,.cls-89,.cls-9,.cls-90,.cls-91,.cls-92,.cls-93,.cls-94,.cls-95,.cls-96,.cls-97,.cls-98,.cls-99{stroke:#c3e0e0;stroke-miterlimit:10;}.cls-2{stroke-width:0.27px;}.cls-3{stroke-width:0.62px;}.cls-4{stroke-width:0.8px;}.cls-5{stroke-width:0.53px;}.cls-6{stroke-width:0.2px;}.cls-7{stroke-width:0.19px;}.cls-8{stroke-width:0.34px;}.cls-9{stroke-width:0.49px;}.cls-10{stroke-width:0.54px;}.cls-11{stroke-width:0.52px;}.cls-12{stroke-width:0.54px;}.cls-13{stroke-width:0.79px;}.cls-14{stroke-width:0.59px;}.cls-15{stroke-width:0.34px;}.cls-16{stroke-width:0.18px;}.cls-17{stroke-width:0.75px;}.cls-18{stroke-width:0.54px;}.cls-19{stroke-width:0.37px;}.cls-20{stroke-width:0.43px;}.cls-21{stroke-width:0.5px;}.cls-22{stroke-width:0.24px;}.cls-23{stroke-width:0.36px;}.cls-24{stroke-width:0.41px;}.cls-25{stroke-width:0.35px;}.cls-26{stroke-width:0.65px;}.cls-27{stroke-width:0.31px;}.cls-28{stroke-width:0.56px;}.cls-29{stroke-width:0.2px;}.cls-30{stroke-width:0.28px;}.cls-31{stroke-width:0.24px;}.cls-32{stroke-width:0.43px;}.cls-33{stroke-width:0.22px;}.cls-34{stroke-width:0.42px;}.cls-35{stroke-width:0.28px;}.cls-36{stroke-width:0.45px;}.cls-37{stroke-width:0.29px;}.cls-38{stroke-width:0.42px;}.cls-39{stroke-width:0.17px;}.cls-40{stroke-width:0.19px;}.cls-41{stroke-width:0.46px;}.cls-42{stroke-width:0.44px;}.cls-43{stroke-width:0.16px;}.cls-44{stroke-width:0.17px;}.cls-45{stroke-width:0.41px;}.cls-46{stroke-width:0.24px;}.cls-47{stroke-width:0.26px;}.cls-48{stroke-width:0.73px;}.cls-49{stroke-width:0.32px;}.cls-50{stroke-width:0.58px;}.cls-51{stroke-width:0.75px;}.cls-52{stroke-width:0.65px;}.cls-53{stroke-width:0.53px;}.cls-54{stroke-width:0.71px;}.cls-55{stroke-width:0.41px;}.cls-56{stroke-width:0.25px;}.cls-57{stroke-width:0.67px;}.cls-58{stroke-width:0.25px;}.cls-59{stroke-width:0.28px;}.cls-60{stroke-width:0.39px;}.cls-61{stroke-width:0.3px;}.cls-62{stroke-width:0.45px;}.cls-63{stroke-width:0.79px;}.cls-64{stroke-width:0.67px;}.cls-65{stroke-width:0.79px;}.cls-66{stroke-width:0.35px;}.cls-67{stroke-width:0.44px;}.cls-68{stroke-width:0.76px;}.cls-69{stroke-width:0.67px;}.cls-70{stroke-width:0.22px;}.cls-71{stroke-width:0.26px;}.cls-72{stroke-width:0.57px;}.cls-73{stroke-width:0.27px;}.cls-74{stroke-width:0.36px;}.cls-75{stroke-width:0.37px;}.cls-76{stroke-width:0.77px;}.cls-77{stroke-width:0.66px;}.cls-78{stroke-width:0.67px;}.cls-79{stroke-width:0.41px;}.cls-80{stroke-width:0.28px;}.cls-81{stroke-width:0.28px;}.cls-82{stroke-width:0.48px;}.cls-83{stroke-width:0.72px;}.cls-84{stroke-width:0.77px;}.cls-85{stroke-width:0.23px;}.cls-86{stroke-width:0.24px;}.cls-87{stroke-width:0.52px;}.cls-88{stroke-width:0.51px;}.cls-89{stroke-width:0.48px;}.cls-90{stroke-width:0.32px;}.cls-91{stroke-width:0.42px;}.cls-92{stroke-width:0.62px;}.cls-93{stroke-width:0.63px;}.cls-94{stroke-width:0.37px;}.cls-95{stroke-width:0.56px;}.cls-96{stroke-width:0.64px;}.cls-97{stroke-width:0.7px;}.cls-98{stroke-width:0.37px;}.cls-99{stroke-width:0.45px;}.cls-100{stroke-width:0.23px;}.cls-101{stroke-width:0.39px;}.cls-102{stroke-width:0.42px;}.cls-103{stroke-width:0.15px;}.cls-104{stroke-width:0.24px;}.cls-105{stroke-width:0.4px;}.cls-106{stroke-width:0.54px;}.cls-107{stroke-width:0.15px;}.cls-108{stroke-width:0.8px;}.cls-109{stroke-width:0.36px;}.cls-110{stroke-width:0.39px;}.cls-111{stroke-width:0.44px;}.cls-112{stroke-width:0.21px;}.cls-113{stroke-width:0.32px;}.cls-114{stroke-width:0.79px;}</style></defs><title>bg-line</title><rect class="cls-1" x="162.39" y="33.42" width="0.27" height="5" transform="translate(47.64 311.15) rotate(-86.98)"/><line class="cls-2" x1="94.57" y1="150.87" x2="89.58" y2="150.61"/><rect class="cls-1" x="140.79" y="145.74" width="0.62" height="11.57" transform="translate(-110.14 165.43) rotate(-17.87)"/><line class="cls-3" x1="72.43" y1="271.85" x2="68.88" y2="260.84"/><rect class="cls-1" x="295.51" y="302.27" width="14.89" height="0.8" transform="translate(-194.31 382.55) rotate(-40.29)"/><line class="cls-4" x1="226.83" y1="422.3" x2="238.18" y2="412.67"/><rect class="cls-1" x="180.26" y="473.98" width="9.83" height="0.53" transform="translate(-319.97 324.04) rotate(-37.3)"/><line class="cls-5" x1="110.81" y1="592.04" x2="118.63" y2="586.09"/><rect class="cls-1" x="71.52" y="607.34" width="0.2" height="3.69" transform="translate(-415.09 273.48) rotate(-36.03)"/><line class="cls-6" x1="0.08" y1="722.51" x2="2.25" y2="725.5"/><rect class="cls-1" x="384.67" y="728.54" width="0.19" height="3.59" transform="translate(-162.91 171.59) rotate(-7.54)"/><line class="cls-7" x1="314.55" y1="846.93" x2="314.08" y2="843.37"/><rect class="cls-1" x="337.86" y="844.77" width="0.34" height="6.43" transform="translate(-607.89 704.16) rotate(-51.81)"/><line class="cls-8" x1="265.05" y1="960.81" x2="270.11" y2="964.79"/><rect class="cls-1" x="108.6" y="1029.4" width="0.49" height="9.06" transform="translate(-670.91 388.65) rotate(-37.01)"/><line class="cls-9" x1="41.12" y1="1152.36" x2="35.66" y2="1145.13"/><rect class="cls-1" x="363.68" y="1215.96" width="0.54" height="10.09" transform="translate(-842.64 759.18) rotate(-46.49)"/><line class="cls-10" x1="289.84" y1="1332.35" x2="297.15" y2="1339.3"/><rect class="cls-1" x="535.64" y="1164.18" width="0.52" height="9.75" transform="translate(-777.15 1615.25) rotate(-80.3)"/><line class="cls-11" x1="460.65" y1="1283.05" x2="470.26" y2="1284.69"/><rect class="cls-1" x="649.48" y="1168.25" width="0.54" height="10.16" transform="matrix(0.96, -0.29, 0.29, 0.96, -379.95, 350.75)"/><line class="cls-12" x1="577.84" y1="1283.28" x2="580.76" y2="1293.01"/><rect class="cls-1" x="784.4" y="992.66" width="0.79" height="14.7" transform="translate(-481.75 684.37) rotate(-32.08)"/><line class="cls-13" x1="718.24" y1="1121.05" x2="710.43" y2="1108.6"/><rect class="cls-1" x="931.36" y="1196.74" width="0.59" height="10.99" transform="translate(-654.9 1195.54) rotate(-47.64)"/><line class="cls-14" x1="865.27" y1="1320.75" x2="857.14" y2="1313.35"/><rect class="cls-1" x="1051.68" y="1142.23" width="6.28" height="0.34" transform="translate(-184.38 231.66) rotate(-6.02)"/><line class="cls-15" x1="987.49" y1="1256.88" x2="981.24" y2="1257.54"/><rect class="cls-1" x="1234.76" y="1192.79" width="3.27" height="0.18" transform="translate(-166.97 2391.65) rotate(-83.09)"/><line class="cls-16" x1="1166.14" y1="1306.07" x2="1165.74" y2="1309.31"/><rect class="cls-1" x="1393.05" y="912.23" width="0.75" height="13.94" transform="translate(311.64 2362.08) rotate(-86.12)"/><line class="cls-17" x1="1329.92" y1="1034.49" x2="1316.02" y2="1033.54"/><rect class="cls-1" x="1526.48" y="1040.57" width="0.54" height="10.09" transform="translate(-394.1 1178.32) rotate(-34.96)"/><line class="cls-18" x1="1453.41" y1="1156.3" x2="1459.19" y2="1164.57"/><rect class="cls-1" x="1673.07" y="1074.16" width="0.37" height="6.83" transform="translate(-243.79 1934.71) rotate(-54.68)"/><line class="cls-19" x1="1605.58" y1="1194.37" x2="1600.01" y2="1190.42"/><rect class="cls-1" x="1544.79" y="878.62" width="0.43" height="8.03" transform="translate(17.48 2018.74) rotate(-64.77)"/><line class="cls-20" x1="1470.92" y1="995.74" x2="1478.18" y2="999.17"/><rect class="cls-1" x="1531.17" y="730.51" width="0.5" height="9.38" transform="translate(-216.28 580.54) rotate(-16.52)"/><line class="cls-21" x1="1462.3" y1="854.52" x2="1459.63" y2="845.52"/><rect class="cls-1" x="1777.89" y="612.52" width="4.5" height="0.24" transform="translate(822.69 2388.01) rotate(-80.88)"/><line class="cls-22" x1="1709.33" y1="729.68" x2="1710.04" y2="725.24"/><rect class="cls-1" x="1624.91" y="456.03" width="6.75" height="0.36" transform="matrix(0.95, -0.33, 0.33, 0.95, -130.17, 671.42)"/><line class="cls-23" x1="1554.64" y1="572.13" x2="1561.03" y2="569.93"/><rect class="cls-1" x="1531.18" y="277.15" width="0.41" height="7.73" transform="translate(264.67 1392.36) rotate(-50.19)"/><line class="cls-24" x1="1457.96" y1="393.36" x2="1463.9" y2="398.3"/><rect class="cls-1" x="1846.31" y="96.1" width="6.57" height="0.35" transform="translate(1576.97 2052.12) rotate(-86.71)"/><line class="cls-25" x1="1779.33" y1="207.82" x2="1778.95" y2="214.37"/><rect class="cls-1" x="1605.69" y="158.09" width="0.65" height="12.15" transform="translate(949.68 1783.3) rotate(-74.56)"/><line class="cls-26" x1="1541.42" y1="280.6" x2="1529.71" y2="277.36"/><rect class="cls-1" x="1420.53" y="127.59" width="5.77" height="0.31" transform="translate(-10.14 671.95) rotate(-22.61)"/><line class="cls-27" x1="1355.62" y1="241.45" x2="1350.3" y2="243.67"/><rect class="cls-1" x="1306.88" y="-90.71" width="0.56" height="10.37" transform="translate(263.46 906.08) rotate(-38.27)"/><line class="cls-28" x1="1239.91" y1="33.37" x2="1233.49" y2="25.22"/><rect class="cls-1" x="1129.07" y="100.92" width="3.69" height="0.2" transform="translate(19.15 668.43) rotate(-28.6)"/><line class="cls-29" x1="1058.84" y1="216.72" x2="1062.08" y2="214.95"/><rect class="cls-1" x="969.36" y="45.07" width="0.28" height="5.2" transform="translate(434.14 1014.58) rotate(-64.2)"/><line class="cls-30" x1="901.39" y1="163.62" x2="896.71" y2="161.36"/><rect class="cls-1" x="818.41" y="199.78" width="0.24" height="4.4" transform="matrix(0.04, -1, 1, 0.04, 515.25, 1127.09)"/><line class="cls-31" x1="750.28" y1="316.88" x2="745.88" y2="316.71"/><rect class="cls-1" x="661.43" y="125.36" width="0.43" height="8.09" transform="translate(-75.47 143.82) rotate(-2.5)"/><line class="cls-32" x1="591.38" y1="248.27" x2="591.02" y2="240.19"/><rect class="cls-1" x="509.3" y="-24.26" width="0.22" height="4.04" transform="translate(137.94 504.13) rotate(-51.32)"/><line class="cls-33" x1="437.38" y1="91.31" x2="440.53" y2="93.83"/><rect class="cls-1" x="375.55" y="-117.38" width="0.42" height="7.9" transform="translate(300.87 393.87) rotate(-72.55)"/><line class="cls-34" x1="309.08" y1="2.57" x2="301.54" y2="0.2"/><rect class="cls-1" x="234.95" y="83.67" width="5.21" height="0.28" transform="translate(-83.41 172.19) rotate(-13.41)"/><line class="cls-35" x1="164.56" y1="199.23" x2="169.63" y2="198.02"/><rect class="cls-1" x="1546.97" y="805.6" width="8.41" height="0.45" transform="translate(-196.39 1413.4) rotate(-43.83)"/><line class="cls-36" x1="1483.75" y1="917.73" x2="1477.68" y2="923.56"/><rect class="cls-1" x="1416.52" y="912.12" width="5.35" height="0.29" transform="translate(-146.03 244.78) rotate(-5.11)"/><line class="cls-37" x1="1346.08" y1="1027.32" x2="1351.41" y2="1026.84"/><rect class="cls-1" x="1306.52" y="823.82" width="0.42" height="7.82" transform="translate(-224.56 1451.11) rotate(-51.55)"/><line class="cls-38" x1="1239.34" y1="944.98" x2="1233.22" y2="940.12"/><rect class="cls-1" x="1190.53" y="960.73" width="0.17" height="3.16" transform="translate(-270.77 437.65) rotate(-14.26)"/><line class="cls-39" x1="1119.77" y1="1075.6" x2="1120.55" y2="1078.66"/><rect class="cls-1" x="1049.57" y="1017.29" width="0.19" height="3.59" transform="translate(-304.92 1834.86) rotate(-72.78)"/><line class="cls-40" x1="980.93" y1="1134.44" x2="977.5" y2="1133.37"/><rect class="cls-1" x="885.94" y="998.33" width="0.46" height="8.57" transform="translate(-522.02 1148.83) rotate(-49.87)"/><line class="cls-41" x1="812.44" y1="1114.67" x2="818.99" y2="1120.19"/><rect class="cls-1" x="770.07" y="716.92" width="0.44" height="8.28" transform="matrix(0.14, -0.99, 0.99, 0.14, -122.8, 1496.59)"/><line class="cls-42" x1="703.94" y1="836.46" x2="695.74" y2="835.29"/><rect class="cls-1" x="644.86" y="991.26" width="2.93" height="0.16" transform="translate(-553.74 1458.95) rotate(-74.24)"/><line class="cls-43" x1="575.47" y1="1107.57" x2="576.27" y2="1104.74"/><rect class="cls-1" x="524.49" y="817.17" width="3.13" height="0.17" transform="translate(-383.85 1421.92) rotate(-87.5)"/><line class="cls-44" x1="455.67" y1="930.51" x2="455.53" y2="933.63"/><rect class="cls-1" x="379.63" y="685.31" width="0.41" height="7.6" transform="translate(-83.52 122.19) rotate(-1.09)"/><line class="cls-45" x1="309.45" y1="807.72" x2="309.31" y2="800.13"/><rect class="cls-1" x="237.43" y="712.79" width="0.24" height="4.51" transform="translate(-474.41 434.65) rotate(-39.99)"/><line class="cls-46" x1="168.55" y1="831.59" x2="165.65" y2="828.14"/><rect class="cls-1" x="1576.53" y="478.58" width="0.26" height="4.83" transform="translate(-133.66 763.25) rotate(-22.8)"/><line class="cls-47" x1="1505.27" y1="593.59" x2="1507.14" y2="598.04"/><rect class="cls-1" x="1407.51" y="740.04" width="13.65" height="0.73" transform="translate(-144.94 1431.38) rotate(-48.79)"/><line class="cls-48" x1="1348.38" y1="850.09" x2="1339.39" y2="860.36"/><rect class="cls-1" x="1274.24" y="487.11" width="0.32" height="5.93" transform="translate(541.62 1798.87) rotate(-82.02)"/><line class="cls-49" x1="1206.88" y1="605.3" x2="1201.01" y2="604.48"/><rect class="cls-1" x="1156.48" y="772.27" width="0.58" height="10.75" transform="translate(-154.44 1527.57) rotate(-61.02)"/><line class="cls-50" x1="1091.02" y1="895.06" x2="1081.62" y2="889.86"/><rect class="cls-1" x="977.46" y="748.52" width="0.75" height="14.08" transform="translate(-327.27 818.76) rotate(-35.3)"/><line class="cls-51" x1="903.31" y1="864.63" x2="911.45" y2="876.12"/><rect class="cls-1" x="847.39" y="569.03" width="0.65" height="12.11" transform="translate(-11.84 1343.11) rotate(-73.77)"/><line class="cls-52" x1="783.08" y1="691.6" x2="771.45" y2="688.22"/><rect class="cls-1" x="658.88" y="463.97" width="9.83" height="0.53" transform="translate(-216.6 590.28) rotate(-35.76)"/><line class="cls-53" x1="589.35" y1="581.92" x2="597.33" y2="576.18"/><rect class="cls-1" x="542.8" y="655.27" width="13.2" height="0.71" transform="translate(-367.47 646.93) rotate(-41.74)"/><line class="cls-54" x1="483.87" y1="766.05" x2="474.02" y2="774.83"/><rect class="cls-1" x="368.28" y="618.65" width="7.58" height="0.41" transform="translate(-119.98 147.44) rotate(-4.71)"/><line class="cls-55" x1="305.39" y1="733.36" x2="297.84" y2="733.98"/><rect class="cls-1" x="235.19" y="760.21" width="4.71" height="0.25" transform="translate(-382.21 298.27) rotate(-26.25)"/><line class="cls-56" x1="169.21" y1="874.11" x2="164.99" y2="876.19"/><rect class="cls-1" x="1577.44" y="575.39" width="0.67" height="12.5" transform="translate(-131.3 1074.07) rotate(-33.21)"/><line class="cls-57" x1="1503.9" y1="691.23" x2="1510.75" y2="701.69"/><rect class="cls-1" x="1440.09" y="422.92" width="4.76" height="0.25" transform="translate(24.66 1204.44) rotate(-42.67)"/><line class="cls-58" x1="1373.77" y1="536.25" x2="1370.27" y2="539.47"/><rect class="cls-1" x="1313.99" y="609.78" width="5.28" height="0.28" transform="translate(-176.92 1008.12) rotate(-36.12)"/><line class="cls-59" x1="1248.31" y1="723.19" x2="1244.04" y2="726.3"/><rect class="cls-1" x="1159.21" y="446.29" width="7.29" height="0.39" transform="translate(569.7 1691.94) rotate(-86.19)"/><line class="cls-60" x1="1092.64" y1="557.67" x2="1092.16" y2="564.94"/><rect class="cls-1" x="1007.35" y="400.37" width="0.3" height="5.56" transform="translate(-131.97 331.45) rotate(-11.91)"/><line class="cls-61" x1="937.62" y1="520.69" x2="936.47" y2="515.25"/><rect class="cls-1" x="888.78" y="459.21" width="0.45" height="8.47" transform="translate(-170.71 415.53) rotate(-18.19)"/><line class="cls-62" x1="819.87" y1="582.29" x2="817.23" y2="574.24"/><rect class="cls-1" x="730.1" y="408.09" width="0.79" height="14.7" transform="translate(-174.82 626.28) rotate(-36.19)"/><line class="cls-63" x1="655.7" y1="524.33" x2="664.38" y2="536.19"/><rect class="cls-1" x="593.08" y="341.02" width="12.52" height="0.67" transform="translate(135.45 1022.69) rotate(-84.88)"/><line class="cls-64" x1="529.45" y1="449.94" x2="528.33" y2="462.41"/><rect class="cls-1" x="479.59" y="538" width="14.8" height="0.79" transform="matrix(0.93, -0.38, 0.38, 0.93, -237.68, 338.52)"/><line class="cls-65" x1="409.68" y1="656" x2="423.39" y2="650.42"/><rect class="cls-1" x="350.72" y="317.77" width="0.35" height="6.5" transform="translate(-59.38 768.56) rotate(-86.85)"/><line class="cls-66" x1="283.68" y1="436.02" x2="277.2" y2="435.66"/><rect class="cls-1" x="237.33" y="566.1" width="0.44" height="8.28" transform="translate(-288.1 267.45) rotate(-24.85)"/><line class="cls-67" x1="168.84" y1="688.81" x2="165.36" y2="681.3"/><rect class="cls-1" x="1567.24" y="144.55" width="0.76" height="14.24" transform="translate(-76.69 208.03) rotate(-3.4)"/><line class="cls-68" x1="1497.59" y1="273.59" x2="1496.75" y2="259.38"/><rect class="cls-1" x="1403.35" y="186.68" width="12.51" height="0.67" transform="translate(393.55 1363.81) rotate(-55.88)"/><line class="cls-69" x1="1335.65" y1="307.01" x2="1342.67" y2="296.65"/><rect class="cls-1" x="1264.54" y="169.65" width="4.16" height="0.22" transform="translate(486.77 1347.55) rotate(-63.92)"/><line class="cls-70" x1="1197.09" y1="282.71" x2="1195.25" y2="286.45"/><rect class="cls-1" x="1137.89" y="267.49" width="0.26" height="4.81" transform="translate(368.3 1322.23) rotate(-66.62)"/><line class="cls-71" x1="1069.77" y1="385.66" x2="1065.36" y2="383.76"/><rect class="cls-1" x="955.45" y="95.26" width="0.57" height="10.62" transform="translate(-71.29 123.17) rotate(-0.5)"/><line class="cls-72" x1="885.23" y1="210.08" x2="885.33" y2="220.7"/><rect class="cls-1" x="794.72" y="406.08" width="0.27" height="5.12" transform="translate(176.09 1229.24) rotate(-79.36)"/><line class="cls-73" x1="721.89" y1="522.98" x2="726.92" y2="523.92"/><rect class="cls-1" x="626.06" y="75.86" width="6.8" height="0.36" transform="translate(13.66 514.27) rotate(-37.56)"/><line class="cls-74" x1="556.31" y1="192.93" x2="561.7" y2="188.79"/><rect class="cls-1" x="490.59" y="76.3" width="0.37" height="6.87" transform="translate(195.7 638.13) rotate(-72.37)"/><line class="cls-75" x1="423.59" y1="195.59" x2="417.05" y2="193.51"/><rect class="cls-1" x="368.73" y="206.63" width="0.77" height="14.35" transform="translate(-79.95 525.12) rotate(-57.51)"/><line class="cls-76" x1="304.71" y1="332.47" x2="292.61" y2="324.76"/><rect class="cls-1" x="237.22" y="299.03" width="0.66" height="12.25" transform="translate(-113.12 153.46) rotate(-8.54)"/><line class="cls-77" x1="168.01" y1="426.03" x2="166.19" y2="413.91"/><rect class="cls-1" x="1349" y="1029.49" width="0.67" height="12.42" transform="translate(-412.75 1328.75) rotate(-43.52)"/><line class="cls-78" x1="1283.16" y1="1155.02" x2="1274.61" y2="1146.02"/><rect class="cls-1" x="1452.45" y="875.04" width="7.65" height="0.41" transform="translate(-199.05 1602.41) rotate(-52.13)"/><line class="cls-79" x1="1383.48" y1="993.08" x2="1388.17" y2="987.04"/><rect class="cls-1" x="1398.2" y="689.35" width="5.19" height="0.28" transform="translate(153.84 1830.69) rotate(-67.31)"/><line class="cls-80" x1="1329.34" y1="806.7" x2="1331.35" y2="801.91"/><rect class="cls-1" x="1351.76" y="506.71" width="5.18" height="0.28" transform="translate(-154.8 767.63) rotate(-26.31)"/><line class="cls-81" x1="1281.58" y1="622.82" x2="1286.22" y2="620.52"/><rect class="cls-1" x="1253.54" y="352.2" width="9.05" height="0.48" transform="matrix(0.96, -0.28, 0.28, 0.96, -118.8, 482.21)"/><line class="cls-82" x1="1191.95" y1="465.99" x2="1183.27" y2="468.53"/><rect class="cls-1" x="1592.82" y="203.16" width="0.72" height="13.39" transform="translate(186.95 1217.96) rotate(-41.28)"/><line class="cls-83" x1="1518.31" y1="319.64" x2="1527.14" y2="329.71"/><rect class="cls-1" x="1608.6" y="30.67" width="14.4" height="0.77" transform="translate(361.11 1245.58) rotate(-43.98)"/><line class="cls-84" x1="1540.17" y1="150.87" x2="1550.53" y2="140.87"/><rect class="cls-1" x="1246.15" y="1036.93" width="4.33" height="0.23" transform="translate(-401.09 1526.92) rotate(-53.08)"/><line class="cls-85" x1="1179.17" y1="1150.13" x2="1176.56" y2="1153.6"/><rect class="cls-1" x="1238.61" y="860.12" width="4.46" height="0.24" transform="translate(-274.85 538.05) rotate(-17.91)"/><line class="cls-86" x1="1168.27" y1="975.75" x2="1172.51" y2="974.37"/><rect class="cls-1" x="1198.99" y="697.83" width="0.52" height="9.65" transform="translate(-251.12 984.05) rotate(-37.25)"/><line class="cls-87" x1="1125.88" y1="813.63" x2="1131.72" y2="821.31"/><rect class="cls-1" x="1097.49" y="567.41" width="9.5" height="0.51" transform="translate(-107.64 193.73) rotate(-4.03)"/><line class="cls-88" x1="1036.52" y1="682.15" x2="1027.05" y2="682.82"/><rect class="cls-1" x="1313.5" y="405.02" width="0.48" height="8.99" transform="translate(-126.58 393.69) rotate(-11.87)"/><line class="cls-89" x1="1242.36" y1="519.93" x2="1244.21" y2="528.73"/><rect class="cls-1" x="1295" y="283.6" width="0.32" height="6.01" transform="translate(926.3 1693.92) rotate(-89.48)"/><line class="cls-90" x1="1227.71" y1="401.45" x2="1221.7" y2="401.4"/><rect class="cls-1" x="1027.99" y="140.3" width="0.42" height="7.76" transform="translate(-76.29 352.51) rotate(-13.15)"/><line class="cls-91" x1="958.63" y1="262.78" x2="956.86" y2="255.22"/><rect class="cls-1" x="1045.38" y="30.74" width="11.65" height="0.62" transform="translate(147.7 787.76) rotate(-39.31)"/><line class="cls-92" x1="985.26" y1="142.18" x2="976.24" y2="149.56"/><rect class="cls-1" x="839.52" y="981.02" width="11.77" height="0.63" transform="translate(-520 1125.11) rotate(-50.54)"/><line class="cls-93" x1="778.69" y1="1091.61" x2="771.21" y2="1100.7"/><rect class="cls-1" x="1123.22" y="833" width="6.92" height="0.37" transform="translate(-342.54 1031.88) rotate(-39.91)"/><line class="cls-94" x1="1058.89" y1="945.78" x2="1053.58" y2="950.22"/><rect class="cls-1" x="830.21" y="672.52" width="10.4" height="0.56" transform="translate(-57.08 1476.68) rotate(-78.82)"/><line class="cls-95" x1="763.95" y1="792.72" x2="765.97" y2="782.51"/><rect class="cls-1" x="775.66" y="508.89" width="0.64" height="11.93" transform="translate(-140.9 1017.99) rotate(-58.21)"/><line class="cls-96" x1="700.46" y1="626.53" x2="710.6" y2="632.82"/><rect class="cls-1" x="777.42" y="342.79" width="13.1" height="0.7" transform="translate(-42.51 858.93) rotate(-51.58)"/><line class="cls-97" x1="717.59" y1="452.83" x2="709.45" y2="463.09"/><rect class="cls-1" x="951.47" y="188.83" width="0.37" height="6.92" transform="translate(420.49 1161.72) rotate(-73.09)"/><line class="cls-98" x1="884.51" y1="308.11" x2="877.89" y2="306.1"/><rect class="cls-1" x="1031.92" y="30.82" width="8.46" height="0.45" transform="translate(410.44 1021.23) rotate(-59.33)"/><line class="cls-99" x1="967.85" y1="142.23" x2="963.54" y2="149.51"/><rect class="cls-1" x="639.46" y="1025.65" width="0.23" height="4.38" transform="translate(-641.4 1154.56) rotate(-58.67)"/><line class="cls-100" x1="567.25" y1="1141.52" x2="570.99" y2="1143.8"/><rect class="cls-1" x="775.75" y="863.42" width="0.39" height="7.33" transform="translate(-397.06 1353.82) rotate(-66.81)"/><line class="cls-101" x1="708.87" y1="983.35" x2="702.13" y2="980.46"/><rect class="cls-1" x="828.4" y="689.07" width="7.8" height="0.42" transform="translate(-318.75 816.07) rotate(-40.26)"/><line class="cls-102" x1="764.83" y1="801.58" x2="758.87" y2="806.62"/><rect class="cls-1" x="635.36" y="564.01" width="2.84" height="0.15" transform="translate(-263.15 867.7) rotate(-54.36)"/><line class="cls-103" x1="565.5" y1="680.05" x2="567.16" y2="677.74"/><rect class="cls-1" x="554.32" y="433.15" width="4.39" height="0.24" transform="matrix(0.88, -0.48, 0.48, 0.88, -210.19, 435.59)"/><line class="cls-104" x1="487.99" y1="547.03" x2="484.14" y2="549.14"/><rect class="cls-1" x="873.32" y="297.57" width="0.4" height="7.51" transform="translate(-92.97 641.87) rotate(-33.17)"/><line class="cls-105" x1="805.12" y1="419.29" x2="801.02" y2="413"/><rect class="cls-1" x="820.56" y="168.49" width="0.54" height="10.15" transform="translate(-18.53 624.05) rotate(-35.52)"/><line class="cls-106" x1="753.33" y1="292.51" x2="747.43" y2="284.25"/><rect class="cls-1" x="607.65" y="30.98" width="2.85" height="0.15" transform="translate(85.29 553.82) rotate(-44.9)"/><line class="cls-107" x1="539.63" y1="144.86" x2="537.61" y2="146.88"/><rect class="cls-1" x="539.2" y="904.06" width="0.8" height="14.86" transform="translate(-538.04 1354.25) rotate(-77.41)"/><line class="cls-108" x1="461.89" y1="1024.69" x2="476.39" y2="1027.92"/><rect class="cls-1" x="358.07" y="727.36" width="0.36" height="6.77" transform="translate(-492.67 614.92) rotate(-47.42)"/><line class="cls-109" x1="290.29" y1="847.85" x2="285.31" y2="843.27"/><rect class="cls-1" x="435.24" y="577.35" width="7.34" height="0.39" transform="translate(-189.94 229.33) rotate(-13.1)"/><line class="cls-110" x1="372.03" y1="691.54" x2="364.88" y2="693.2"/><rect class="cls-1" x="483.37" y="434.3" width="0.44" height="8.28" transform="translate(-99.99 149.79) rotate(-4.02)"/><line class="cls-111" x1="412.85" y1="549.13" x2="413.43" y2="557.39"/><rect class="cls-1" x="595.01" y="318.77" width="3.84" height="0.21" transform="translate(5.29 865.38) rotate(-67.74)"/><line class="cls-112" x1="527.21" y1="431.91" x2="525.75" y2="435.46"/><rect class="cls-1" x="443.15" y="177.09" width="0.32" height="5.99" transform="translate(-100.82 362.62) rotate(-30.24)"/><line class="cls-113" x1="371.35" y1="292.32" x2="374.37" y2="297.49"/><rect class="cls-1" x="592.97" y="23.7" width="0.79" height="14.71" transform="translate(238.6 667.61) rotate(-64.41)"/><line class="cls-114" x1="529.54" y1="149.05" x2="516.28" y2="142.69"/></svg>