<svg id="レイヤー_1" data-name="レイヤー 1" xmlns="http://www.w3.org/2000/svg" viewBox="0 0 1743.37 1293.52"><defs><style>.cls-1,.cls-10,.cls-100,.cls-101,.cls-102,.cls-103,.cls-104,.cls-105,.cls-106,.cls-107,.cls-108,.cls-109,.cls-11,.cls-110,.cls-111,.cls-112,.cls-113,.cls-114,.cls-115,.cls-116,.cls-117,.cls-118,.cls-119,.cls-12,.cls-120,.cls-121,.cls-122,.cls-123,.cls-124,.cls-125,.cls-126,.cls-127,.cls-128,.cls-129,.cls-13,.cls-130,.cls-131,.cls-132,.cls-133,.cls-134,.cls-135,.cls-136,.cls-137,.cls-14,.cls-15,.cls-16,.cls-17,.cls-18,.cls-19,.cls-2,.cls-20,.cls-21,.cls-22,.cls-23,.cls-24,.cls-25,.cls-26,.cls-27,.cls-28,.cls-29,.cls-3,.cls-30,.cls-31,.cls-32,.cls-33,.cls-34,.cls-35,.cls-36,.cls-37,.cls-38,.cls-39,.cls-4,.cls-40,.cls-41,.cls-42,.cls-43,.cls-44,.cls-45,.cls-46,.cls-47,.cls-48,.cls-49,.cls-5,.cls-50,.cls-51,.cls-52,.cls-53,.cls-54,.cls-55,.cls-56,.cls-57,.cls-58,.cls-59,.cls-6,.cls-60,.cls-61,.cls-62,.cls-63,.cls-64,.cls-65,.cls-66,.cls-67,.cls-68,.cls-69,.cls-7,.cls-70,.cls-71,.cls-72,.cls-73,.cls-74,.cls-75,.cls-76,.cls-77,.cls-78,.cls-79,.cls-8,.cls-80,.cls-81,.cls-82,.cls-83,.cls-84,.cls-85,.cls-86,.cls-87,.cls-88,.cls-89,.cls-9,.cls-90,.cls-91,.cls-92,.cls-93,.cls-94,.cls-95,.cls-96,.cls-97,.cls-98,.cls-99{fill:none;}.cls-10,.cls-100,.cls-101,.cls-102,.cls-103,.cls-104,.cls-105,.cls-106,.cls-107,.cls-108,.cls-109,.cls-11,.cls-110,.cls-111,.cls-112,.cls-113,.cls-114,.cls-115,.cls-116,.cls-117,.cls-118,.cls-119,.cls-12,.cls-120,.cls-121,.cls-122,.cls-123,.cls-124,.cls-125,.cls-126,.cls-127,.cls-128,.cls-129,.cls-13,.cls-130,.cls-131,.cls-132,.cls-133,.cls-134,.cls-135,.cls-136,.cls-137,.cls-14,.cls-15,.cls-16,.cls-17,.cls-18,.cls-19,.cls-2,.cls-20,.cls-21,.cls-22,.cls-23,.cls-24,.cls-25,.cls-26,.cls-27,.cls-28,.cls-29,.cls-3,.cls-30,.cls-31,.cls-32,.cls-33,.cls-34,.cls-35,.cls-36,.cls-37,.cls-38,.cls-39,.cls-4,.cls-40,.cls-41,.cls-42,.cls-43,.cls-44,.cls-45,.cls-46,.cls-47,.cls-48,.cls-49,.cls-5,.cls-50,.cls-51,.cls-52,.cls-53,.cls-54,.cls-55,.cls-56,.cls-57,.cls-58,.cls-59,.cls-6,.cls-60,.cls-61,.cls-62,.cls-63,.cls-64,.cls-65,.cls-66,.cls-67,.cls-68,.cls-69,.cls-7,.cls-70,.cls-71,.cls-72,.cls-73,.cls-74,.cls-75,.cls-76,.cls-77,.cls-78,.cls-79,.cls-8,.cls-80,.cls-81,.cls-82,.cls-83,.cls-84,.cls-85,.cls-86,.cls-87,.cls-88,.cls-89,.cls-9,.cls-90,.cls-91,.cls-92,.cls-93,.cls-94,.cls-95,.cls-96,.cls-97,.cls-98,.cls-99{stroke:#c3e0e0;stroke-miterlimit:10;}.cls-2{stroke-width:0.47px;}.cls-3{stroke-width:0.61px;}.cls-4{stroke-width:0.43px;}.cls-5{stroke-width:0.62px;}.cls-6{stroke-width:0.21px;}.cls-7{stroke-width:0.36px;}.cls-8{stroke-width:0.88px;}.cls-9{stroke-width:0.44px;}.cls-10{stroke-width:0.74px;}.cls-11{stroke-width:0.37px;}.cls-12{stroke-width:0.53px;}.cls-13{stroke-width:0.83px;}.cls-14{stroke-width:0.45px;}.cls-15{stroke-width:0.95px;}.cls-16{stroke-width:0.58px;}.cls-17{stroke-width:0.44px;}.cls-18{stroke-width:0.96px;}.cls-19{stroke-width:0.78px;}.cls-20{stroke-width:0.39px;}.cls-21{stroke-width:0.89px;}.cls-22{stroke-width:0.34px;}.cls-23{stroke-width:0.7px;}.cls-24{stroke-width:0.69px;}.cls-25{stroke-width:0.64px;}.cls-26{stroke-width:0.51px;}.cls-27{stroke-width:0.69px;}.cls-28{stroke-width:0.96px;}.cls-29{stroke-width:0.71px;}.cls-30{stroke-width:0.98px;}.cls-31{stroke-width:0.51px;}.cls-32{stroke-width:0.87px;}.cls-33{stroke-width:0.81px;}.cls-34{stroke-width:0.4px;}.cls-35{stroke-width:0.36px;}.cls-36{stroke-width:0.7px;}.cls-37{stroke-width:0.55px;}.cls-38{stroke-width:0.38px;}.cls-39{stroke-width:0.94px;}.cls-40{stroke-width:0.94px;}.cls-41{stroke-width:0.32px;}.cls-42{stroke-width:0.58px;}.cls-43{stroke-width:0.94px;}.cls-44{stroke-width:0.64px;}.cls-45{stroke-width:0.54px;}.cls-46{stroke-width:0.35px;}.cls-47{stroke-width:0.58px;}.cls-48{stroke-width:0.91px;}.cls-49{stroke-width:0.25px;}.cls-50{stroke-width:0.51px;}.cls-51{stroke-width:0.57px;}.cls-52{stroke-width:0.54px;}.cls-53{stroke-width:0.51px;}.cls-54{stroke-width:0.26px;}.cls-55{stroke-width:0.67px;}.cls-56{stroke-width:0.39px;}.cls-57{stroke-width:0.52px;}.cls-58{stroke-width:0.46px;}.cls-59{stroke-width:0.53px;}.cls-60{stroke-width:0.61px;}.cls-61{stroke-width:0.63px;}.cls-62{stroke-width:0.91px;}.cls-63{stroke-width:0.41px;}.cls-64{stroke-width:0.48px;}.cls-65{stroke-width:0.65px;}.cls-66{stroke-width:0.71px;}.cls-67{stroke-width:0.22px;}.cls-68{stroke-width:0.88px;}.cls-69{stroke-width:0.83px;}.cls-70{stroke-width:0.41px;}.cls-71{stroke-width:0.65px;}.cls-72{stroke-width:0.32px;}.cls-73{stroke-width:0.58px;}.cls-74{stroke-width:0.48px;}.cls-75{stroke-width:0.28px;}.cls-76{stroke-width:0.36px;}.cls-77{stroke-width:0.32px;}.cls-78{stroke-width:0.43px;}.cls-79{stroke-width:0.83px;}.cls-80{stroke-width:0.67px;}.cls-81{stroke-width:0.58px;}.cls-82{stroke-width:0.58px;}.cls-83{stroke-width:0.21px;}.cls-84{stroke-width:0.5px;}.cls-85{stroke-width:0.6px;}.cls-86{stroke-width:0.63px;}.cls-87{stroke-width:0.82px;}.cls-88{stroke-width:0.65px;}.cls-89{stroke-width:0.76px;}.cls-90{stroke-width:0.71px;}.cls-91{stroke-width:0.88px;}.cls-92{stroke-width:0.8px;}.cls-93{stroke-width:0.74px;}.cls-94{stroke-width:0.83px;}.cls-95{stroke-width:0.33px;}.cls-96{stroke-width:0.51px;}.cls-97{stroke-width:0.83px;}.cls-98{stroke-width:0.94px;}.cls-99{stroke-width:0.35px;}.cls-100{stroke-width:0.22px;}.cls-101{stroke-width:0.92px;}.cls-102{stroke-width:0.41px;}.cls-103{stroke-width:0.65px;}.cls-104{stroke-width:0.93px;}.cls-105{stroke-width:0.86px;}.cls-106{stroke-width:0.77px;}.cls-107{stroke-width:0.93px;}.cls-108{stroke-width:0.63px;}.cls-109{stroke-width:0.69px;}.cls-110{stroke-width:0.26px;}.cls-111{stroke-width:0.39px;}.cls-112{stroke-width:0.29px;}.cls-113{stroke-width:0.98px;}.cls-114{stroke-width:0.22px;}.cls-115{stroke-width:0.43px;}.cls-116{stroke-width:0.84px;}.cls-117{stroke-width:0.66px;}.cls-118{stroke-width:0.8px;}.cls-119{stroke-width:0.26px;}.cls-120{stroke-width:0.33px;}.cls-121{stroke-width:0.66px;}.cls-122{stroke-width:0.37px;}.cls-123{stroke-width:0.93px;}.cls-124{stroke-width:0.24px;}.cls-125{stroke-width:0.99px;}.cls-126{stroke-width:0.86px;}.cls-127{stroke-width:0.68px;}.cls-128{stroke-width:0.64px;}.cls-129{stroke-width:0.21px;}.cls-130{stroke-width:0.38px;}.cls-131{stroke-width:0.88px;}.cls-132{stroke-width:0.26px;}.cls-133{stroke-width:0.81px;}.cls-134{stroke-width:0.95px;}.cls-135{stroke-width:0.29px;}.cls-136{stroke-width:0.83px;}.cls-137{stroke-width:0.83px;}</style></defs><title>bg-rect</title><rect class="cls-1" x="118.23" y="44.6" width="7.03" height="7.03" transform="translate(-91.42 114.31) rotate(-3.58)"/><rect class="cls-2" x="118.47" y="44.83" width="6.56" height="6.56" transform="translate(-91.42 114.31) rotate(-3.58)"/><rect class="cls-1" x="191.63" y="184.33" width="9.18" height="9.18" transform="translate(-164.74 302.14) rotate(-45.3)"/><rect class="cls-3" x="191.94" y="184.63" width="8.56" height="8.56" transform="translate(-164.74 302.14) rotate(-45.3)"/><rect class="cls-1" x="190" y="294.58" width="6.43" height="6.43" transform="translate(-161.75 169.69) rotate(-15.63)"/><rect class="cls-4" x="190.21" y="294.8" width="6.01" height="6.01" transform="translate(-161.75 169.69) rotate(-15.63)"/><rect class="cls-1" x="221.31" y="430.57" width="9.33" height="9.33" transform="translate(-314.23 350.55) rotate(-39.6)"/><rect class="cls-5" x="221.62" y="430.88" width="8.7" height="8.7" transform="translate(-314.23 350.55) rotate(-39.6)"/><rect class="cls-1" x="337.87" y="579.66" width="3.11" height="3.11" transform="translate(-422.19 675.22) rotate(-58.64)"/><rect class="cls-6" x="337.97" y="579.77" width="2.9" height="2.9" transform="translate(-422.19 675.22) rotate(-58.64)"/><rect class="cls-1" x="89" y="710.32" width="5.35" height="5.35" transform="matrix(0.99, -0.14, 0.14, 0.99, -186.15, 126.09)"/><rect class="cls-7" x="89.18" y="710.5" width="4.99" height="4.99" transform="translate(-186.15 126.09) rotate(-7.93)"/><rect class="cls-1" x="155.93" y="818.38" width="13.17" height="13.17" transform="translate(-133.89 116.83) rotate(-3.16)"/><rect class="cls-8" x="156.37" y="818.82" width="12.29" height="12.29" transform="translate(-133.89 116.83) rotate(-3.16)"/><rect class="cls-1" x="138.55" y="949.39" width="6.67" height="6.67" transform="translate(-361.96 190.19) rotate(-17.06)"/><rect class="cls-9" x="138.78" y="949.62" width="6.23" height="6.23" transform="translate(-361.96 190.19) rotate(-17.06)"/><rect class="cls-1" x="287.83" y="923.08" width="11.07" height="11.07" transform="translate(-717.57 722.52) rotate(-53.74)"/><rect class="cls-10" x="288.2" y="923.45" width="10.34" height="10.34" transform="translate(-717.57 722.52) rotate(-53.74)"/><rect class="cls-1" x="390.12" y="986.23" width="5.56" height="5.56" transform="translate(-483.21 379.78) rotate(-26.06)"/><rect class="cls-11" x="390.3" y="986.42" width="5.19" height="5.19" transform="translate(-483.21 379.78) rotate(-26.06)"/><rect class="cls-1" x="526.22" y="1178.16" width="7.89" height="7.89" transform="translate(-364.14 274.14) rotate(-14.3)"/><rect class="cls-12" x="526.48" y="1178.42" width="7.37" height="7.37" transform="translate(-364.14 274.14) rotate(-14.3)"/><rect class="cls-1" x="646.51" y="1013.82" width="12.44" height="12.44" transform="translate(-641.36 1010.53) rotate(-51.88)"/><rect class="cls-13" x="646.93" y="1014.24" width="11.61" height="11.61" transform="matrix(0.62, -0.79, 0.79, 0.62, -641.36, 1010.53)"/><rect class="cls-1" x="769.01" y="966.97" width="6.8" height="6.8" transform="translate(-262 274.63) rotate(-11.17)"/><rect class="cls-14" x="769.24" y="967.2" width="6.35" height="6.35" transform="translate(-262 274.63) rotate(-11.17)"/><rect class="cls-1" x="888.04" y="1097.94" width="14.25" height="14.25" transform="translate(-223.21 230.78) rotate(-7.38)"/><rect class="cls-15" x="888.52" y="1098.41" width="13.3" height="13.3" transform="translate(-223.21 230.78) rotate(-7.38)"/><rect class="cls-1" x="1018.98" y="1047.15" width="8.71" height="8.71" transform="translate(-442.99 1663.01) rotate(-65.9)"/><rect class="cls-16" x="1019.27" y="1047.44" width="8.13" height="8.13" transform="translate(-442.99 1663.01) rotate(-65.9)"/><rect class="cls-1" x="1137.45" y="1094.58" width="6.57" height="6.57" transform="translate(-449.06 701.33) rotate(-25.37)"/><rect class="cls-17" x="1137.67" y="1094.8" width="6.14" height="6.14" transform="translate(-449.06 701.33) rotate(-25.37)"/><rect class="cls-1" x="1268.95" y="1096.5" width="14.39" height="14.39" transform="translate(-204.75 2163.41) rotate(-75.25)"/><rect class="cls-18" x="1269.43" y="1096.98" width="13.43" height="13.43" transform="translate(-204.75 2163.41) rotate(-75.25)"/><rect class="cls-1" x="1411.26" y="1019.79" width="11.65" height="11.65" transform="translate(220.75 2486.14) rotate(-86.61)"/><rect class="cls-19" x="1411.65" y="1020.17" width="10.87" height="10.87" transform="translate(220.75 2486.14) rotate(-86.61)"/><rect class="cls-1" x="1511.02" y="1178.74" width="5.87" height="5.87" transform="translate(-354.74 2009.33) rotate(-60.02)"/><rect class="cls-20" x="1511.22" y="1178.94" width="5.48" height="5.48" transform="translate(-354.74 2009.33) rotate(-60.02)"/><rect class="cls-1" x="1621.29" y="1014.07" width="13.33" height="13.33" transform="translate(343.61 2631.51) rotate(-83.61)"/><rect class="cls-21" x="1621.74" y="1014.52" width="12.44" height="12.44" transform="translate(343.61 2631.51) rotate(-83.61)"/><rect class="cls-1" x="1611.39" y="942.48" width="5.1" height="5.1" transform="translate(-115.25 1949.74) rotate(-59.05)"/><rect class="cls-22" x="1611.56" y="942.65" width="4.76" height="4.76" transform="matrix(0.51, -0.86, 0.86, 0.51, -115.25, 1949.74)"/><rect class="cls-1" x="1692.15" y="818.85" width="10.43" height="10.43" transform="translate(718.07 2594.09) rotate(-87.73)"/><rect class="cls-23" x="1692.5" y="819.2" width="9.74" height="9.74" transform="translate(718.07 2594.09) rotate(-87.73)"/><rect class="cls-1" x="1696.51" y="691.21" width="10.38" height="10.38" transform="translate(42.56 1759.23) rotate(-53.59)"/><rect class="cls-24" x="1696.86" y="691.55" width="9.69" height="9.69" transform="matrix(0.59, -0.8, 0.8, 0.59, 42.56, 1759.23)"/><rect class="cls-1" x="1715.09" y="542.61" width="9.54" height="9.54" transform="translate(-123.24 230.35) rotate(-4.08)"/><rect class="cls-25" x="1715.41" y="542.93" width="8.9" height="8.9" transform="translate(-123.24 230.35) rotate(-4.08)"/><rect class="cls-1" x="1822.77" y="414.73" width="7.7" height="7.7" transform="translate(48.98 1337.04) rotate(-38.58)"/><rect class="cls-26" x="1823.03" y="414.98" width="7.19" height="7.19" transform="translate(48.98 1337.04) rotate(-38.58)"/><rect class="cls-1" x="1637.25" y="272.65" width="10.31" height="10.31" transform="matrix(1, -0.05, 0.05, 1, -99.64, 181.96)"/><rect class="cls-27" x="1637.6" y="272.99" width="9.62" height="9.62" transform="translate(-99.64 181.96) rotate(-2.62)"/><rect class="cls-1" x="1654.15" y="168.58" width="14.35" height="14.35" transform="translate(-47.89 688.17) rotate(-20.1)"/><rect class="cls-28" x="1654.63" y="169.05" width="13.39" height="13.39" transform="translate(-47.89 688.17) rotate(-20.1)"/><rect class="cls-1" x="1522.52" y="73.64" width="10.61" height="10.61" transform="translate(-41.39 570.85) rotate(-17.54)"/><rect class="cls-29" x="1522.87" y="74" width="9.91" height="9.91" transform="translate(-41.39 570.85) rotate(-17.54)"/><rect class="cls-1" x="1582.1" y="66.53" width="14.67" height="14.67" transform="translate(517.58 1431.53) rotate(-54.5)"/><rect class="cls-30" x="1582.59" y="67.02" width="13.69" height="13.69" transform="translate(517.58 1431.53) rotate(-54.5)"/><rect class="cls-1" x="1481.16" y="154.94" width="7.62" height="7.62" transform="translate(519.62 1474.4) rotate(-60.16)"/><rect class="cls-31" x="1481.42" y="155.19" width="7.11" height="7.11" transform="translate(519.62 1474.4) rotate(-60.16)"/><rect class="cls-1" x="1371.98" y="139.13" width="12.99" height="12.99" transform="translate(-33.96 663.38) rotate(-23.28)"/><rect class="cls-32" x="1372.41" y="139.57" width="12.13" height="12.13" transform="translate(-33.96 663.38) rotate(-23.28)"/><rect class="cls-1" x="1277.89" y="96.36" width="12.13" height="12.13" transform="translate(-92.54 231.79) rotate(-5.57)"/><rect class="cls-33" x="1278.29" y="96.76" width="11.33" height="11.33" transform="translate(-92.54 231.79) rotate(-5.57)"/><rect class="cls-1" x="1133.9" y="-57.15" width="5.96" height="5.96" transform="translate(314.07 922.19) rotate(-47.1)"/><rect class="cls-34" x="1134.1" y="-56.95" width="5.56" height="5.56" transform="translate(314.07 922.19) rotate(-47.1)"/><rect class="cls-1" x="996.13" y="28.45" width="5.39" height="5.39" transform="translate(693.27 1113.25) rotate(-79.25)"/><rect class="cls-35" x="996.31" y="28.63" width="5.03" height="5.03" transform="translate(693.27 1113.25) rotate(-79.25)"/><rect class="cls-1" x="859.29" y="-43.24" width="10.55" height="10.55" transform="translate(176.69 693.05) rotate(-43.66)"/><rect class="cls-36" x="859.65" y="-42.88" width="9.85" height="9.85" transform="translate(176.69 693.05) rotate(-43.66)"/><rect class="cls-1" x="736.21" y="161.15" width="8.24" height="8.24" transform="translate(-92.35 124.11) rotate(-1.35)"/><rect class="cls-37" x="736.49" y="161.42" width="7.69" height="7.69" transform="translate(-92.35 124.11) rotate(-1.35)"/><rect class="cls-1" x="591.72" y="-64.93" width="5.7" height="5.7" transform="translate(32.88 410.07) rotate(-31.73)"/><rect class="cls-38" x="591.91" y="-64.74" width="5.32" height="5.32" transform="translate(32.88 410.07) rotate(-31.73)"/><rect class="cls-1" x="455.11" y="42.44" width="14.06" height="14.06" transform="translate(130.18 552.1) rotate(-64.54)"/><rect class="cls-39" x="455.58" y="42.91" width="13.12" height="13.12" transform="translate(130.18 552.1) rotate(-64.54)"/><rect class="cls-1" x="358.72" y="-105.58" width="14.06" height="14.06" transform="translate(315.75 384.88) rotate(-80.78)"/><rect class="cls-40" x="359.19" y="-105.12" width="13.12" height="13.12" transform="translate(315.75 384.88) rotate(-80.78)"/><rect class="cls-1" x="235.14" y="-56.24" width="4.83" height="4.83" transform="translate(13.09 254.99) rotate(-43.35)"/><rect class="cls-41" x="235.3" y="-56.08" width="4.5" height="4.5" transform="translate(13.09 254.99) rotate(-43.35)"/><rect class="cls-1" x="1598.29" y="756.15" width="8.74" height="8.74" transform="translate(-212.79 1273.47) rotate(-38.63)"/><rect class="cls-42" x="1598.58" y="756.44" width="8.16" height="8.16" transform="translate(-212.79 1273.47) rotate(-38.63)"/><rect class="cls-1" x="1472.52" y="970.43" width="14.09" height="14.09" transform="translate(-97.49 2048.07) rotate(-66.38)"/><rect class="cls-43" x="1472.98" y="970.9" width="13.15" height="13.15" transform="translate(-97.49 2048.07) rotate(-66.38)"/><rect class="cls-1" x="1369.3" y="787.29" width="9.55" height="9.55" transform="matrix(1, -0.07, 0.07, 1, -140.95, 205.19)"/><rect class="cls-44" x="1369.62" y="787.61" width="8.91" height="8.91" transform="translate(-140.95 205.19) rotate(-4.03)"/><rect class="cls-1" x="1238.98" y="691.44" width="8.1" height="8.1" transform="translate(89.59 1748.19) rotate(-70.85)"/><rect class="cls-45" x="1239.25" y="691.71" width="7.56" height="7.56" transform="translate(89.59 1748.19) rotate(-70.85)"/><rect class="cls-1" x="1146.47" y="930.55" width="5.31" height="5.31" transform="translate(-388.1 1344.81) rotate(-50.97)"/><rect class="cls-46" x="1146.65" y="930.73" width="4.96" height="4.96" transform="translate(-388.1 1344.81) rotate(-50.97)"/><rect class="cls-1" x="1035.02" y="888.68" width="8.66" height="8.66" transform="translate(-231.7 307.06) rotate(-10.31)"/><rect class="cls-47" x="1035.3" y="888.97" width="8.08" height="8.08" transform="translate(-231.7 307.06) rotate(-10.31)"/><rect class="cls-1" x="939.6" y="864.26" width="13.68" height="13.68" transform="translate(-422.53 1101.68) rotate(-48.16)"/><rect class="cls-48" x="940.05" y="864.71" width="12.76" height="12.76" transform="translate(-422.53 1101.68) rotate(-48.16)"/><rect class="cls-1" x="847.71" y="771.24" width="3.77" height="3.77" transform="translate(-197.98 1512.21) rotate(-75.71)"/><rect class="cls-49" x="847.84" y="771.37" width="3.52" height="3.52" transform="translate(-197.98 1512.21) rotate(-75.71)"/><rect class="cls-1" x="699" y="717.79" width="7.59" height="7.59" transform="translate(-330.72 1177.27) rotate(-66.03)"/><rect class="cls-50" x="699.25" y="718.04" width="7.08" height="7.08" transform="translate(-330.72 1177.27) rotate(-66.03)"/><rect class="cls-1" x="596.6" y="912.62" width="8.53" height="8.53" transform="translate(-411.71 433.51) rotate(-24.2)"/><rect class="cls-51" x="596.88" y="912.91" width="7.96" height="7.96" transform="translate(-411.71 433.51) rotate(-24.2)"/><rect class="cls-1" x="497.95" y="902.59" width="8.16" height="8.16" transform="matrix(1, -0.07, 0.07, 1, -151.07, 144.1)"/><rect class="cls-52" x="498.22" y="902.86" width="7.61" height="7.61" transform="translate(-151.07 144.1) rotate(-4.03)"/><rect class="cls-1" x="356.16" y="922.06" width="7.71" height="7.71" transform="matrix(0.86, -0.5, 0.5, 0.86, -506.03, 413.98)"/><rect class="cls-53" x="356.41" y="922.32" width="7.2" height="7.2" transform="translate(-506.03 413.98) rotate(-30.24)"/><rect class="cls-1" x="235.6" y="958.98" width="3.89" height="3.89" transform="translate(-143.71 121.93) rotate(-3.31)"/><rect class="cls-54" x="235.73" y="959.11" width="3.63" height="3.63" transform="translate(-143.71 121.93) rotate(-3.31)"/><rect class="cls-1" x="1614.94" y="596.92" width="10.01" height="10.01" transform="translate(-94.34 122.15) rotate(-0.55)"/><rect class="cls-55" x="1615.27" y="597.25" width="9.34" height="9.34" transform="translate(-94.34 122.15) rotate(-0.55)"/><rect class="cls-1" x="1526.56" y="516.18" width="5.81" height="5.81" transform="translate(325.01 1793.48) rotate(-65.05)"/><rect class="cls-56" x="1526.75" y="516.37" width="5.42" height="5.42" transform="translate(325.01 1793.48) rotate(-65.05)"/><rect class="cls-1" x="1419.58" y="650.92" width="7.84" height="7.84" transform="translate(-228.85 861.63) rotate(-28.37)"/><rect class="cls-57" x="1419.84" y="651.18" width="7.32" height="7.32" transform="translate(-228.85 861.63) rotate(-28.37)"/><rect class="cls-1" x="1286.16" y="747.7" width="6.95" height="6.95" transform="translate(374.26 2100.36) rotate(-86.58)"/><rect class="cls-58" x="1286.39" y="747.93" width="6.49" height="6.49" transform="translate(374.26 2100.36) rotate(-86.58)"/><rect class="cls-1" x="1194.53" y="663.1" width="8" height="8" transform="translate(52 1646.88) rotate(-68.64)"/><rect class="cls-59" x="1194.8" y="663.37" width="7.47" height="7.47" transform="translate(52 1646.88) rotate(-68.64)"/><rect class="cls-1" x="1068.85" y="582.05" width="9.1" height="9.1" transform="translate(204.6 1635.38) rotate(-79.03)"/><rect class="cls-60" x="1069.16" y="582.35" width="8.49" height="8.49" transform="translate(204.6 1635.38) rotate(-79.03)"/><rect class="cls-1" x="948.2" y="597.13" width="9.42" height="9.42" transform="translate(-256.85 592.74) rotate(-26.38)"/><rect class="cls-61" x="948.51" y="597.45" width="8.79" height="8.79" transform="translate(-256.85 592.74) rotate(-26.38)"/><rect class="cls-1" x="841.16" y="565.88" width="13.65" height="13.65" transform="translate(-245.67 486.83) rotate(-23.19)"/><rect class="cls-62" x="841.61" y="566.33" width="12.74" height="12.74" transform="translate(-245.67 486.83) rotate(-23.19)"/><rect class="cls-1" x="733.8" y="654.27" width="6.11" height="6.11" transform="translate(-35.81 1476.1) rotate(-87.89)"/><rect class="cls-63" x="734" y="654.47" width="5.7" height="5.7" transform="translate(-35.81 1476.1) rotate(-87.89)"/><rect class="cls-1" x="625.7" y="640.64" width="7.25" height="7.25" transform="translate(-191.87 226.95) rotate(-10.1)"/><rect class="cls-64" x="625.94" y="640.88" width="6.76" height="6.76" transform="translate(-191.87 226.95) rotate(-10.1)"/><rect class="cls-1" x="484.69" y="562.83" width="9.71" height="9.71" transform="translate(-181.07 1146.8) rotate(-88.3)"/><rect class="cls-65" x="485.02" y="563.16" width="9.06" height="9.06" transform="translate(-181.07 1146.8) rotate(-88.3)"/><rect class="cls-1" x="374.7" y="598.31" width="10.67" height="10.67" transform="translate(-418.23 637.68) rotate(-51.97)"/><rect class="cls-66" x="375.06" y="598.67" width="9.96" height="9.96" transform="translate(-418.23 637.68) rotate(-51.97)"/><rect class="cls-1" x="235.88" y="581.57" width="3.34" height="3.34" transform="matrix(0.8, -0.61, 0.61, 0.8, -393.73, 370.23)"/><rect class="cls-67" x="235.99" y="581.68" width="3.12" height="3.12" transform="translate(-393.73 370.23) rotate(-37.34)"/><rect class="cls-1" x="1551.4" y="451.33" width="13.17" height="13.17" transform="translate(-131.78 293.5) rotate(-6.77)"/><rect class="cls-68" x="1551.84" y="451.77" width="12.29" height="12.29" transform="translate(-131.78 293.5) rotate(-6.77)"/><rect class="cls-1" x="1443.46" y="389.73" width="12.39" height="12.39" transform="translate(-123.42 736.54) rotate(-24.23)"/><rect class="cls-69" x="1443.87" y="390.14" width="11.56" height="11.56" transform="translate(-123.42 736.54) rotate(-24.23)"/><rect class="cls-1" x="1297.1" y="295.37" width="6.2" height="6.2" transform="translate(49.85 1060.9) rotate(-42.37)"/><rect class="cls-70" x="1297.31" y="295.58" width="5.79" height="5.79" transform="translate(49.85 1060.9) rotate(-42.37)"/><rect class="cls-1" x="1167.39" y="512.72" width="9.76" height="9.76" transform="translate(-197.3 661.61) rotate(-25.5)"/><rect class="cls-71" x="1167.71" y="513.05" width="9.11" height="9.11" transform="translate(-197.3 661.61) rotate(-25.5)"/><rect class="cls-1" x="1061.89" y="518.47" width="4.78" height="4.78" transform="translate(47.64 1364.26) rotate(-64.53)"/><rect class="cls-72" x="1062.05" y="518.63" width="4.46" height="4.46" transform="translate(47.64 1364.26) rotate(-64.53)"/><rect class="cls-1" x="920.42" y="393.56" width="8.68" height="8.68" transform="translate(-55.11 972.76) rotate(-51)"/><rect class="cls-73" x="920.71" y="393.85" width="8.1" height="8.1" transform="translate(-55.11 972.76) rotate(-51)"/><rect class="cls-1" x="828.62" y="550.59" width="7.23" height="7.23" transform="translate(-139.87 192.54) rotate(-5.73)"/><rect class="cls-74" x="828.86" y="550.83" width="6.75" height="6.75" transform="translate(-139.87 192.54) rotate(-5.73)"/><rect class="cls-1" x="727.94" y="520.14" width="4.14" height="4.14" transform="translate(-54.31 1196) rotate(-74.77)"/><rect class="cls-75" x="728.08" y="520.28" width="3.86" height="3.86" transform="translate(-54.31 1196) rotate(-74.77)"/><rect class="cls-1" x="580.42" y="519.28" width="5.36" height="5.36" transform="translate(-40.56 1199.74) rotate(-88.71)"/><rect class="cls-76" x="580.6" y="519.46" width="5" height="5" transform="translate(-40.56 1199.74) rotate(-88.71)"/><rect class="cls-1" x="470.58" y="395.82" width="4.83" height="4.83" transform="translate(-36.9 957.5) rotate(-87.15)"/><rect class="cls-77" x="470.75" y="395.98" width="4.51" height="4.51" transform="translate(-36.9 957.5) rotate(-87.15)"/><rect class="cls-1" x="374.86" y="408.78" width="6.4" height="6.4" transform="matrix(0.14, -0.99, 0.99, 0.14, -172.95, 833.08)"/><rect class="cls-78" x="375.07" y="409" width="5.98" height="5.98" transform="translate(-172.95 833.08) rotate(-81.68)"/><rect class="cls-1" x="231.34" y="533.89" width="12.41" height="12.41" transform="translate(-418.59 485.17) rotate(-50.37)"/><rect class="cls-79" x="231.76" y="534.3" width="11.58" height="11.58" transform="translate(-418.59 485.17) rotate(-50.37)"/><rect class="cls-1" x="1595.68" y="147.65" width="10.09" height="10.09" transform="translate(-20.26 746.75) rotate(-23.09)"/><rect class="cls-80" x="1596.01" y="147.98" width="9.41" height="9.41" transform="translate(-20.26 746.75) rotate(-23.09)"/><rect class="cls-1" x="1490.59" y="302.7" width="8.76" height="8.76" transform="translate(123.07 1239.85) rotate(-44.38)"/><rect class="cls-81" x="1490.88" y="302.99" width="8.18" height="8.18" transform="translate(123.07 1239.85) rotate(-44.38)"/><rect class="cls-1" x="1342.03" y="151.71" width="8.72" height="8.72" transform="translate(951.39 1583.02) rotate(-83.55)"/><rect class="cls-82" x="1342.32" y="152" width="8.14" height="8.14" transform="translate(951.39 1583.02) rotate(-83.55)"/><rect class="cls-1" x="1221.01" y="136.68" width="3.19" height="3.19" transform="translate(146.56 979.02) rotate(-43.08)"/><rect class="cls-83" x="1221.11" y="136.78" width="2.97" height="2.97" transform="translate(146.56 979.02) rotate(-43.08)"/><rect class="cls-1" x="1096.69" y="208.21" width="7.44" height="7.44" transform="translate(103.05 974.36) rotate(-46.72)"/><rect class="cls-84" x="1096.94" y="208.46" width="6.94" height="6.94" transform="translate(103.05 974.36) rotate(-46.72)"/><rect class="cls-1" x="974.8" y="256.47" width="8.97" height="8.97" transform="translate(-118.3 271.81) rotate(-9.5)"/><rect class="cls-85" x="975.1" y="256.77" width="8.38" height="8.38" transform="translate(-118.3 271.81) rotate(-9.5)"/><rect class="cls-1" x="876.42" y="305.88" width="9.5" height="9.5" transform="translate(14.98 935.32) rotate(-53.09)"/><rect class="cls-86" x="876.73" y="306.19" width="8.87" height="8.87" transform="translate(14.98 935.32) rotate(-53.09)"/><rect class="cls-1" x="742.89" y="112.14" width="12.27" height="12.27" transform="translate(79.65 712.54) rotate(-48.99)"/><rect class="cls-87" x="743.3" y="112.55" width="11.45" height="11.45" transform="translate(79.65 712.54) rotate(-48.99)"/><rect class="cls-1" x="601.68" y="363.13" width="9.73" height="9.73" transform="translate(-47.09 903.71) rotate(-68.46)"/><rect class="cls-88" x="602.01" y="363.46" width="9.08" height="9.08" transform="translate(-47.09 903.71) rotate(-68.46)"/><rect class="cls-1" x="487.49" y="300.78" width="11.44" height="11.44" transform="translate(-30.72 797.48) rotate(-73.3)"/><rect class="cls-89" x="487.87" y="301.16" width="10.67" height="10.67" transform="translate(-30.72 797.48) rotate(-73.3)"/><rect class="cls-1" x="361.36" y="218.46" width="10.58" height="10.58" transform="translate(-1.63 656.41) rotate(-80.78)"/><rect class="cls-90" x="361.71" y="218.81" width="9.87" height="9.87" transform="translate(-1.63 656.41) rotate(-80.78)"/><rect class="cls-1" x="230.95" y="213.73" width="13.2" height="13.2" transform="translate(-170.06 383.95) rotate(-52.98)"/><rect class="cls-91" x="231.39" y="214.17" width="12.32" height="12.32" transform="translate(-170.06 383.95) rotate(-52.98)"/><rect class="cls-1" x="1501.33" y="969.48" width="12.02" height="12.02" transform="translate(-368.06 905.42) rotate(-27.26)"/><rect class="cls-92" x="1501.73" y="969.88" width="11.22" height="11.22" transform="translate(-368.06 905.42) rotate(-27.26)"/><rect class="cls-1" x="1303.94" y="824.69" width="11.05" height="11.05" transform="translate(-304.66 659.54) rotate(-22.07)"/><rect class="cls-93" x="1304.31" y="825.06" width="10.31" height="10.31" transform="translate(-304.66 659.54) rotate(-22.07)"/><rect class="cls-1" x="1367.1" y="708.94" width="12.46" height="12.46" transform="matrix(0.22, -0.98, 0.98, 0.22, 289.95, 2008.39)"/><rect class="cls-94" x="1367.51" y="709.35" width="11.63" height="11.63" transform="translate(289.95 2008.39) rotate(-77.54)"/><rect class="cls-1" x="1433.67" y="572.13" width="4.97" height="4.97" transform="translate(655.11 2064.47) rotate(-85.22)"/><rect class="cls-95" x="1433.84" y="572.29" width="4.64" height="4.64" transform="translate(655.11 2064.47) rotate(-85.22)"/><rect class="cls-1" x="1308.79" y="422.27" width="7.65" height="7.65" transform="translate(580.54 1753.59) rotate(-80.19)"/><rect class="cls-96" x="1309.05" y="422.52" width="7.14" height="7.14" transform="translate(580.54 1753.59) rotate(-80.19)"/><rect class="cls-1" x="1299.61" y="273.69" width="12.48" height="12.48" transform="translate(251.64 1309.22) rotate(-55.8)"/><rect class="cls-97" x="1300.03" y="274.11" width="11.65" height="11.65" transform="translate(251.64 1309.22) rotate(-55.8)"/><rect class="cls-1" x="1433.95" y="151.5" width="14.03" height="14.03" transform="translate(37.9 876.58) rotate(-31.22)"/><rect class="cls-98" x="1434.42" y="151.97" width="13.09" height="13.09" transform="translate(37.9 876.58) rotate(-31.22)"/><rect class="cls-1" x="1570.29" y="25.4" width="5.2" height="5.2" transform="translate(1352.34 1702.21) rotate(-86.21)"/><rect class="cls-99" x="1570.46" y="25.57" width="4.85" height="4.85" transform="translate(1352.34 1702.21) rotate(-86.21)"/><rect class="cls-1" x="1242.82" y="997.44" width="3.32" height="3.32" transform="translate(-287.91 1785.86) rotate(-63.98)"/><rect class="cls-100" x="1242.93" y="997.55" width="3.1" height="3.1" transform="translate(-287.91 1785.86) rotate(-63.98)"/><rect class="cls-1" x="1214.77" y="888.06" width="13.83" height="13.83" transform="translate(-165.46 222.22) rotate(-5.25)"/><rect class="cls-101" x="1215.24" y="888.52" width="12.91" height="12.91" transform="translate(-165.46 222.22) rotate(-5.25)"/><rect class="cls-1" x="1196.96" y="754.16" width="6.16" height="6.16" transform="translate(-291.85 653.02) rotate(-23.71)"/><rect class="cls-102" x="1197.16" y="754.37" width="5.75" height="5.75" transform="translate(-291.85 653.02) rotate(-23.71)"/><rect class="cls-1" x="1292.9" y="645.69" width="9.77" height="9.77" transform="matrix(0.96, -0.28, 0.28, 0.96, -219.38, 498.63)"/><rect class="cls-103" x="1293.23" y="646.01" width="9.12" height="9.12" transform="translate(-219.38 498.63) rotate(-16.36)"/><rect class="cls-1" x="1279.49" y="515.96" width="14.01" height="14.01" transform="matrix(1, -0.03, 0.03, 1, -106.13, 151.84)"/><rect class="cls-104" x="1279.95" y="516.43" width="13.08" height="13.08" transform="translate(-106.13 151.84) rotate(-2)"/><rect class="cls-1" x="1199.83" y="387.51" width="12.93" height="12.93" transform="translate(466.16 1589.61) rotate(-77.2)"/><rect class="cls-105" x="1200.26" y="387.94" width="12.07" height="12.07" transform="translate(466.16 1589.61) rotate(-77.2)"/><rect class="cls-1" x="1114.49" y="263.09" width="11.56" height="11.56" transform="translate(757.03 1494.38) rotate(-89.71)"/><rect class="cls-106" x="1114.88" y="263.48" width="10.79" height="10.79" transform="translate(757.03 1494.38) rotate(-89.71)"/><rect class="cls-1" x="1116.59" y="123.97" width="13.96" height="13.96" transform="translate(-51.65 552.13) rotate(-22.79)"/><rect class="cls-107" x="1117.06" y="124.44" width="13.03" height="13.03" transform="translate(-51.65 552.13) rotate(-22.79)"/><rect class="cls-1" x="1214.14" y="23.26" width="9.48" height="9.48" transform="translate(691.56 1272.17) rotate(-70.23)"/><rect class="cls-108" x="1214.46" y="23.57" width="8.85" height="8.85" transform="translate(691.56 1272.17) rotate(-70.23)"/><rect class="cls-1" x="884.86" y="1030.22" width="10.29" height="10.29" transform="translate(-552.92 1315.33) rotate(-56.61)"/><rect class="cls-109" x="885.21" y="1030.56" width="9.61" height="9.61" transform="translate(-552.92 1315.33) rotate(-56.61)"/><rect class="cls-1" x="864.72" y="909.35" width="3.91" height="3.91" transform="translate(-246.9 1746.73) rotate(-81.85)"/><rect class="cls-110" x="864.85" y="909.48" width="3.65" height="3.65" transform="translate(-246.9 1746.73) rotate(-81.85)"/><rect class="cls-1" x="928.88" y="786.5" width="5.88" height="5.88" transform="translate(-258.16 1423.89) rotate(-65.88)"/><rect class="cls-111" x="929.07" y="786.7" width="5.49" height="5.49" transform="translate(-258.16 1423.89) rotate(-65.88)"/><rect class="cls-1" x="841.08" y="659.04" width="4.36" height="4.36" transform="translate(17.55 1545.7) rotate(-84.64)"/><rect class="cls-112" x="841.23" y="659.19" width="4.07" height="4.07" transform="translate(17.55 1545.7) rotate(-84.64)"/><rect class="cls-1" x="1064.15" y="550.27" width="14.65" height="14.65" transform="translate(52.56 1434.65) rotate(-67.12)"/><rect class="cls-113" x="1064.64" y="550.75" width="13.67" height="13.67" transform="translate(52.56 1434.65) rotate(-67.12)"/><rect class="cls-1" x="872.76" y="434.77" width="3.33" height="3.33" transform="translate(-165.29 318.13) rotate(-13.22)"/><rect class="cls-114" x="872.87" y="434.88" width="3.11" height="3.11" transform="translate(-165.29 318.13) rotate(-13.22)"/><rect class="cls-1" x="832.88" y="328.02" width="6.43" height="6.43" transform="translate(42.19 995.88) rotate(-59.96)"/><rect class="cls-115" x="833.09" y="328.23" width="6" height="6" transform="translate(42.19 995.88) rotate(-59.96)"/><rect class="cls-1" x="915.29" y="230.21" width="12.56" height="12.56" transform="translate(-117.35 390.22) rotate(-17.23)"/><rect class="cls-116" x="915.71" y="230.63" width="11.73" height="11.73" transform="translate(-117.35 390.22) rotate(-17.23)"/><rect class="cls-1" x="906.78" y="128.25" width="9.92" height="9.92" transform="translate(346.18 1028.24) rotate(-67.14)"/><rect class="cls-117" x="907.11" y="128.58" width="9.26" height="9.26" transform="translate(346.18 1028.24) rotate(-67.14)"/><rect class="cls-1" x="957.98" y="21.97" width="12.04" height="12.04" transform="translate(539.45 1038.64) rotate(-71.28)"/><rect class="cls-118" x="958.38" y="22.38" width="11.24" height="11.24" transform="translate(539.45 1038.64) rotate(-71.28)"/><rect class="cls-1" x="722.52" y="1007.15" width="3.86" height="3.86" transform="translate(-330.9 335.58) rotate(-15.42)"/><rect class="cls-119" x="722.65" y="1007.27" width="3.6" height="3.6" transform="matrix(0.96, -0.27, 0.27, 0.96, -330.9, 335.58)"/><rect class="cls-1" x="778.89" y="916.42" width="4.92" height="4.92" transform="translate(-145.26 157.93) rotate(-3.63)"/><rect class="cls-120" x="779.06" y="916.58" width="4.59" height="4.59" transform="matrix(1, -0.06, 0.06, 1, -145.26, 157.93)"/><rect class="cls-1" x="679.44" y="809.41" width="9.93" height="9.93" transform="translate(-162.77 175.16) rotate(-5.44)"/><rect class="cls-121" x="679.77" y="809.74" width="9.27" height="9.27" transform="translate(-162.77 175.16) rotate(-5.44)"/><rect class="cls-1" x="669.83" y="717.33" width="5.61" height="5.61" transform="translate(-146.64 165.52) rotate(-4.81)"/><rect class="cls-122" x="670.02" y="717.52" width="5.24" height="5.24" transform="translate(-146.64 165.52) rotate(-4.81)"/><rect class="cls-1" x="832.31" y="597.77" width="13.88" height="13.88" transform="translate(-274.09 569.8) rotate(-27.91)"/><rect class="cls-123" x="832.77" y="598.23" width="12.96" height="12.96" transform="translate(-274.09 569.8) rotate(-27.91)"/><rect class="cls-1" x="696.37" y="503.99" width="3.63" height="3.63" transform="translate(-140.19 186.71) rotate(-6.33)"/><rect class="cls-124" x="696.49" y="504.11" width="3.39" height="3.39" transform="translate(-140.19 186.71) rotate(-6.33)"/><rect class="cls-1" x="667.92" y="379.3" width="14.89" height="14.89" transform="translate(-39.48 955.52) rotate(-66.23)"/><rect class="cls-125" x="668.42" y="379.79" width="13.9" height="13.9" transform="translate(-39.48 955.52) rotate(-66.23)"/><rect class="cls-1" x="731.67" y="249.72" width="12.93" height="12.93" transform="translate(-119.84 499.28) rotate(-29.2)"/><rect class="cls-126" x="732.1" y="250.15" width="12.07" height="12.07" transform="translate(-119.84 499.28) rotate(-29.2)"/><rect class="cls-1" x="856.05" y="122.4" width="10.25" height="10.25" transform="translate(-93.92 318.89) rotate(-14.01)"/><rect class="cls-127" x="856.39" y="122.74" width="9.56" height="9.56" transform="translate(-93.92 318.89) rotate(-14.01)"/><rect class="cls-1" x="564.79" y="23.17" width="9.65" height="9.65" transform="translate(-30.29 387.35) rotate(-29.12)"/><rect class="cls-128" x="565.11" y="23.49" width="9" height="9" transform="translate(-30.29 387.35) rotate(-29.12)"/><rect class="cls-1" x="563.9" y="963.55" width="3.15" height="3.15" transform="translate(-250.2 221.64) rotate(-10.17)"/><rect class="cls-129" x="564.01" y="963.66" width="2.94" height="2.94" transform="translate(-250.2 221.64) rotate(-10.17)"/><rect class="cls-1" x="447.64" y="856.39" width="5.65" height="5.65" transform="translate(-582.93 1186.4) rotate(-75.47)"/><rect class="cls-130" x="447.83" y="856.58" width="5.27" height="5.27" transform="translate(-582.93 1186.4) rotate(-75.47)"/><rect class="cls-1" x="553.59" y="744.83" width="13.22" height="13.22" transform="translate(-341.31 1324.7) rotate(-83.15)"/><rect class="cls-131" x="554.03" y="745.27" width="12.34" height="12.34" transform="translate(-341.31 1324.7) rotate(-83.15)"/><rect class="cls-1" x="620.59" y="636.03" width="3.85" height="3.85" transform="translate(-337.9 558.68) rotate(-33.66)"/><rect class="cls-132" x="620.71" y="636.16" width="3.59" height="3.59" transform="translate(-337.9 558.68) rotate(-33.66)"/><rect class="cls-1" x="505.31" y="499.32" width="12.08" height="12.08" transform="translate(-219.37 288.53) rotate(-17.93)"/><rect class="cls-133" x="505.71" y="499.72" width="11.27" height="11.27" transform="translate(-219.37 288.53) rotate(-17.93)"/><rect class="cls-1" x="552.67" y="375.95" width="14.21" height="14.21" transform="translate(-166.89 259.38) rotate(-14.54)"/><rect class="cls-134" x="553.14" y="376.42" width="13.26" height="13.26" transform="translate(-166.89 259.38) rotate(-14.54)"/><rect class="cls-1" x="497.48" y="258.83" width="4.41" height="4.41" transform="translate(-111.98 578.11) rotate(-49.5)"/><rect class="cls-135" x="497.63" y="258.97" width="4.12" height="4.12" transform="translate(-111.98 578.11) rotate(-49.5)"/><rect class="cls-1" x="394.7" y="126.88" width="12.51" height="12.51" transform="translate(100.25 605.16) rotate(-78.24)"/><rect class="cls-136" x="395.12" y="127.29" width="11.67" height="11.67" transform="translate(100.25 605.16) rotate(-78.24)"/><rect class="cls-1" x="558.66" y="21.77" width="12.46" height="12.46" transform="translate(364.93 689.14) rotate(-81.49)"/><rect class="cls-137" x="559.07" y="22.18" width="11.63" height="11.63" transform="translate(364.93 689.14) rotate(-81.49)"/></svg>