<svg id="レイヤー_1" data-name="レイヤー 1" xmlns="http://www.w3.org/2000/svg" viewBox="0 0 1650.2 1207.41"><defs><style>.cls-1,.cls-10,.cls-100,.cls-101,.cls-102,.cls-103,.cls-104,.cls-105,.cls-106,.cls-107,.cls-108,.cls-109,.cls-11,.cls-110,.cls-111,.cls-112,.cls-113,.cls-114,.cls-115,.cls-116,.cls-117,.cls-118,.cls-119,.cls-12,.cls-120,.cls-121,.cls-122,.cls-123,.cls-124,.cls-125,.cls-126,.cls-127,.cls-128,.cls-129,.cls-13,.cls-130,.cls-131,.cls-132,.cls-133,.cls-134,.cls-135,.cls-136,.cls-137,.cls-138,.cls-139,.cls-14,.cls-140,.cls-141,.cls-142,.cls-143,.cls-144,.cls-145,.cls-146,.cls-147,.cls-148,.cls-149,.cls-15,.cls-150,.cls-151,.cls-152,.cls-153,.cls-154,.cls-155,.cls-156,.cls-157,.cls-158,.cls-159,.cls-16,.cls-160,.cls-161,.cls-162,.cls-163,.cls-164,.cls-165,.cls-166,.cls-167,.cls-17,.cls-18,.cls-19,.cls-2,.cls-20,.cls-21,.cls-22,.cls-23,.cls-24,.cls-25,.cls-26,.cls-27,.cls-28,.cls-29,.cls-3,.cls-30,.cls-31,.cls-32,.cls-33,.cls-34,.cls-35,.cls-36,.cls-37,.cls-38,.cls-39,.cls-4,.cls-40,.cls-41,.cls-42,.cls-43,.cls-44,.cls-45,.cls-46,.cls-47,.cls-48,.cls-49,.cls-5,.cls-50,.cls-51,.cls-52,.cls-53,.cls-54,.cls-55,.cls-56,.cls-57,.cls-58,.cls-59,.cls-6,.cls-60,.cls-61,.cls-62,.cls-63,.cls-64,.cls-65,.cls-66,.cls-67,.cls-68,.cls-69,.cls-7,.cls-70,.cls-71,.cls-72,.cls-73,.cls-74,.cls-75,.cls-76,.cls-77,.cls-78,.cls-79,.cls-8,.cls-80,.cls-81,.cls-82,.cls-83,.cls-84,.cls-85,.cls-86,.cls-87,.cls-88,.cls-89,.cls-9,.cls-90,.cls-91,.cls-92,.cls-93,.cls-94,.cls-95,.cls-96,.cls-97,.cls-98,.cls-99{fill:none;}.cls-10,.cls-100,.cls-101,.cls-102,.cls-103,.cls-104,.cls-105,.cls-106,.cls-107,.cls-108,.cls-109,.cls-11,.cls-110,.cls-111,.cls-112,.cls-113,.cls-114,.cls-115,.cls-116,.cls-117,.cls-118,.cls-119,.cls-12,.cls-120,.cls-121,.cls-122,.cls-123,.cls-124,.cls-125,.cls-126,.cls-127,.cls-128,.cls-129,.cls-13,.cls-130,.cls-131,.cls-132,.cls-133,.cls-134,.cls-135,.cls-136,.cls-137,.cls-138,.cls-139,.cls-14,.cls-140,.cls-141,.cls-142,.cls-143,.cls-144,.cls-145,.cls-146,.cls-147,.cls-148,.cls-149,.cls-15,.cls-150,.cls-151,.cls-152,.cls-153,.cls-154,.cls-155,.cls-156,.cls-157,.cls-158,.cls-159,.cls-16,.cls-160,.cls-161,.cls-162,.cls-163,.cls-164,.cls-165,.cls-166,.cls-167,.cls-17,.cls-18,.cls-19,.cls-2,.cls-20,.cls-21,.cls-22,.cls-23,.cls-24,.cls-25,.cls-26,.cls-27,.cls-28,.cls-29,.cls-3,.cls-30,.cls-31,.cls-32,.cls-33,.cls-34,.cls-35,.cls-36,.cls-37,.cls-38,.cls-39,.cls-4,.cls-40,.cls-41,.cls-42,.cls-43,.cls-44,.cls-45,.cls-46,.cls-47,.cls-48,.cls-49,.cls-5,.cls-50,.cls-51,.cls-52,.cls-53,.cls-54,.cls-55,.cls-56,.cls-57,.cls-58,.cls-59,.cls-6,.cls-60,.cls-61,.cls-62,.cls-63,.cls-64,.cls-65,.cls-66,.cls-67,.cls-68,.cls-69,.cls-7,.cls-70,.cls-71,.cls-72,.cls-73,.cls-74,.cls-75,.cls-76,.cls-77,.cls-78,.cls-79,.cls-8,.cls-80,.cls-81,.cls-82,.cls-83,.cls-84,.cls-85,.cls-86,.cls-87,.cls-88,.cls-89,.cls-9,.cls-90,.cls-91,.cls-92,.cls-93,.cls-94,.cls-95,.cls-96,.cls-97,.cls-98,.cls-99{stroke:#c3e0e0;stroke-miterlimit:10;}.cls-2{stroke-width:0.53px;}.cls-3{stroke-width:0.83px;}.cls-4{stroke-width:0.98px;}.cls-5{stroke-width:0.69px;}.cls-6{stroke-width:0.75px;}.cls-7{stroke-width:0.63px;}.cls-8{stroke-width:0.7px;}.cls-9{stroke-width:0.94px;}.cls-10{stroke-width:0.95px;}.cls-11{stroke-width:0.8px;}.cls-12{stroke-width:0.92px;}.cls-13{stroke-width:0.84px;}.cls-14{stroke-width:0.76px;}.cls-15{stroke-width:0.99px;}.cls-16{stroke-width:0.85px;}.cls-17{stroke-width:0.83px;}.cls-18{stroke-width:0.63px;}.cls-19{stroke-width:0.6px;}.cls-20{stroke-width:0.71px;}.cls-21{stroke-width:0.96px;}.cls-22{stroke-width:0.99px;}.cls-23{stroke-width:0.81px;}.cls-24{stroke-width:0.91px;}.cls-25{stroke-width:0.52px;}.cls-26{stroke-width:0.64px;}.cls-27{stroke-width:0.76px;}.cls-28{stroke-width:0.95px;}.cls-29{stroke-width:0.61px;}.cls-30{stroke-width:0.82px;}.cls-31{stroke-width:0.95px;}.cls-32{stroke-width:0.69px;}.cls-33{stroke-width:0.72px;}.cls-34{stroke-width:0.7px;}.cls-35{stroke-width:0.54px;}.cls-36{stroke-width:0.97px;}.cls-37{stroke-width:0.79px;}.cls-38{stroke-width:0.67px;}.cls-39{stroke-width:0.98px;}.cls-40{stroke-width:0.53px;}.cls-41{stroke-width:0.69px;}.cls-42{stroke-width:0.89px;}.cls-43{stroke-width:0.86px;}.cls-44{stroke-width:0.88px;}.cls-45{stroke-width:0.52px;}.cls-46{stroke-width:0.75px;}.cls-47{stroke-width:0.52px;}.cls-48{stroke-width:0.63px;}.cls-49{stroke-width:0.65px;}.cls-50{stroke-width:0.65px;}.cls-51{stroke-width:0.51px;}.cls-52{stroke-width:0.6px;}.cls-53{stroke-width:0.77px;}.cls-54{stroke-width:0.81px;}.cls-55{stroke-width:0.59px;}.cls-56{stroke-width:0.75px;}.cls-57{stroke-width:0.53px;}.cls-58{stroke-width:0.94px;}.cls-59{stroke-width:0.53px;}.cls-60{stroke-width:0.72px;}.cls-61{stroke-width:0.82px;}.cls-62{stroke-width:0.82px;}.cls-63{stroke-width:0.73px;}.cls-64{stroke-width:0.98px;}.cls-65{stroke-width:0.72px;}.cls-66{stroke-width:0.79px;}.cls-67{stroke-width:0.76px;}.cls-68{stroke-width:0.84px;}.cls-69{stroke-width:0.93px;}.cls-70{stroke-width:0.91px;}.cls-71{stroke-width:0.73px;}.cls-72{stroke-width:0.8px;}.cls-73{stroke-width:0.91px;}.cls-74{stroke-width:0.93px;}.cls-75{stroke-width:0.58px;}.cls-76{stroke-width:0.7px;}.cls-77{stroke-width:0.88px;}.cls-78{stroke-width:0.93px;}.cls-79{stroke-width:0.85px;}.cls-80{stroke-width:0.71px;}.cls-81{stroke-width:0.88px;}.cls-82{stroke-width:0.59px;}.cls-83{stroke-width:0.97px;}.cls-84{stroke-width:0.94px;}.cls-85{stroke-width:0.69px;}.cls-86{stroke-width:0.96px;}.cls-87{stroke-width:0.79px;}.cls-88{stroke-width:0.73px;}.cls-89{stroke-width:0.9px;}.cls-90{stroke-width:0.7px;}.cls-91{stroke-width:0.71px;}.cls-92{stroke-width:0.88px;}.cls-93{stroke-width:0.92px;}.cls-94{stroke-width:0.75px;}.cls-95{stroke-width:0.78px;}.cls-96{stroke-width:0.9px;}.cls-97{stroke-width:0.74px;}.cls-98{stroke-width:0.91px;}.cls-99{stroke-width:0.88px;}.cls-100{stroke-width:0.84px;}.cls-101{stroke-width:0.52px;}.cls-102{stroke-width:0.84px;}.cls-103{stroke-width:0.54px;}.cls-104{stroke-width:1px;}.cls-105{stroke-width:0.6px;}.cls-106{stroke-width:0.85px;}.cls-107{stroke-width:0.62px;}.cls-108{stroke-width:0.95px;}.cls-109{stroke-width:0.91px;}.cls-110{stroke-width:0.98px;}.cls-111{stroke-width:0.76px;}.cls-112{stroke-width:0.87px;}.cls-113{stroke-width:0.89px;}.cls-114{stroke-width:0.88px;}.cls-115{stroke-width:0.56px;}.cls-116{stroke-width:0.79px;}.cls-117{stroke-width:0.6px;}.cls-118{stroke-width:0.82px;}.cls-119{stroke-width:0.51px;}.cls-120{stroke-width:0.98px;}.cls-121{stroke-width:0.61px;}.cls-122{stroke-width:0.79px;}.cls-123{stroke-width:0.65px;}.cls-124{stroke-width:0.63px;}.cls-125{stroke-width:0.85px;}.cls-126{stroke-width:0.81px;}.cls-127{stroke-width:0.57px;}.cls-128{stroke-width:0.55px;}.cls-129{stroke-width:0.67px;}.cls-130{stroke-width:0.95px;}.cls-131{stroke-width:0.79px;}.cls-132{stroke-width:0.63px;}.cls-133{stroke-width:0.72px;}.cls-134{stroke-width:0.87px;}.cls-135{stroke-width:0.82px;}.cls-136{stroke-width:0.66px;}.cls-137{stroke-width:0.53px;}.cls-138{stroke-width:0.64px;}.cls-139{stroke-width:0.88px;}.cls-140{stroke-width:0.78px;}.cls-141{stroke-width:0.82px;}.cls-142{stroke-width:0.54px;}.cls-143{stroke-width:0.89px;}.cls-144{stroke-width:0.77px;}.cls-145{stroke-width:0.6px;}.cls-146{stroke-width:0.64px;}.cls-147{stroke-width:0.8px;}.cls-148{stroke-width:0.82px;}.cls-149{stroke-width:0.59px;}.cls-150{stroke-width:0.51px;}.cls-151{stroke-width:0.69px;}.cls-152{stroke-width:0.59px;}.cls-153{stroke-width:0.82px;}.cls-154{stroke-width:0.99px;}.cls-155{stroke-width:0.95px;}.cls-156{stroke-width:0.61px;}.cls-157{stroke-width:0.93px;}.cls-158{stroke-width:0.95px;}.cls-159{stroke-width:0.77px;}.cls-160{stroke-width:0.7px;}.cls-161{stroke-width:0.54px;}.cls-162{stroke-width:0.65px;}.cls-163{stroke-width:0.57px;}.cls-164{stroke-width:0.69px;}.cls-165{stroke-width:0.95px;}.cls-166{stroke-width:1px;}.cls-167{stroke-width:0.65px;}</style></defs><title>bg-tri</title><rect class="cls-1" x="209.51" y="130.08" width="6.51" height="5.64" transform="translate(-101.13 372.89) rotate(-76.68)"/><polygon class="cls-2" points="79.43 196.98 74.07 198.58 75.36 193.15 79.43 196.98"/><rect class="cls-1" x="286.88" y="247.66" width="10.11" height="8.76" transform="translate(-208 189.15) rotate(-21.67)"/><polygon class="cls-3" points="157.68 318.89 150.87 313.51 158.94 310.31 157.68 318.89"/><rect class="cls-1" x="359.09" y="326.77" width="10.36" height="11.96" transform="translate(-188.77 659.24) rotate(-74.61)"/><polygon class="cls-4" points="227.59 400.36 225 390.43 234.89 393.15 227.59 400.36"/><rect class="cls-1" x="274.72" y="439.44" width="7.32" height="8.45" transform="translate(-372.23 412.02) rotate(-47.42)"/><polygon class="cls-5" points="144.82 505.04 143.24 512.12 137.9 507.21 144.82 505.04"/><rect class="cls-1" x="135.83" y="525.69" width="9.12" height="7.9" transform="matrix(1, -0.07, 0.07, 1, -171.88, 74.54)"/><polygon class="cls-6" points="5.04 596.39 0.67 589.9 8.48 589.36 5.04 596.39"/><rect class="cls-1" x="228.52" y="644.9" width="6.65" height="7.68" transform="translate(-590.6 765.43) rotate(-74.76)"/><polygon class="cls-7" points="96.99 709.7 98.67 716.07 92.31 714.34 96.99 709.7"/><rect class="cls-1" x="247.06" y="725.18" width="8.56" height="7.41" transform="translate(-179.65 80.28) rotate(-3.5)"/><polygon class="cls-8" points="115.59 789.44 119.64 795.56 112.31 796.01 115.59 789.44"/><rect class="cls-1" x="354.31" y="833.85" width="11.49" height="9.95" transform="translate(-543.78 409.4) rotate(-34.08)"/><polygon class="cls-9" points="226.75 905.72 217.88 901.41 226.05 895.88 226.75 905.72"/><rect class="cls-1" x="340.5" y="931.44" width="10.07" height="11.63" transform="matrix(0.51, -0.86, 0.86, 0.51, -773.02, 823.13)"/><polygon class="cls-10" points="207.9 1004.33 207.98 994.35 216.58 999.42 207.9 1004.33"/><rect class="cls-1" x="253.74" y="1030.21" width="9.76" height="8.45" transform="translate(-943.06 1079.31) rotate(-74.96)"/><polygon class="cls-11" points="126.36 1098.88 118.28 1101.04 120.45 1092.96 126.36 1098.88"/><rect class="cls-1" x="344.45" y="1120.09" width="9.75" height="11.26" transform="translate(-290.82 124.07) rotate(-8.11)"/><polygon class="cls-12" points="217.67 1188.71 210.07 1194.68 208.71 1185.11 217.67 1188.71"/><rect class="cls-1" x="441.27" y="951.82" width="8.91" height="10.29" transform="translate(-644.37 569.6) rotate(-39.74)"/><polygon class="cls-13" points="307.39 1022.83 310.44 1014.55 316.09 1021.34 307.39 1022.83"/><rect class="cls-1" x="552.11" y="1083.17" width="9.24" height="8" transform="translate(-434.68 279.28) rotate(-17.37)"/><polygon class="cls-14" points="420.19 1147.63 426.03 1153 418.46 1155.37 420.19 1147.63"/><rect class="cls-1" x="636.13" y="993.78" width="10.48" height="12.1" transform="translate(-539.99 1626.7) rotate(-85.63)"/><polygon class="cls-15" points="506.13 1059.15 510.62 1068.51 500.27 1067.72 506.13 1059.15"/><rect class="cls-1" x="714.76" y="1097.04" width="8.96" height="10.34" transform="translate(-629.01 1677.21) rotate(-79.74)"/><polygon class="cls-16" points="584.32 1162.2 587.31 1170.55 578.58 1168.97 584.32 1162.2"/><rect class="cls-1" x="803.18" y="959.32" width="10.18" height="8.82" transform="translate(-365.62 317.38) rotate(-15.65)"/><polygon class="cls-17" points="671.74 1023.84 677.99 1029.95 669.58 1032.31 671.74 1023.84"/><rect class="cls-1" x="882.43" y="1134.9" width="6.68" height="7.71" transform="translate(-674.63 976.05) rotate(-43.1)"/><polygon class="cls-18" points="748.23 1204.16 750.15 1197.83 754.67 1202.66 748.23 1204.16"/><rect class="cls-1" x="994.56" y="1066.15" width="6.36" height="7.35" transform="translate(-288.1 2037.2) rotate(-85.15)"/><polygon class="cls-19" points="861.96 1135.95 859.28 1130.25 865.56 1130.78 861.96 1135.95"/><rect class="cls-1" x="1103.39" y="990.79" width="7.48" height="8.64" transform="translate(-500.75 838.99) rotate(-33.46)"/><polygon class="cls-20" points="974.1 1056.99 970.78 1063.62 966.7 1057.44 974.1 1056.99"/><rect class="cls-1" x="1208.2" y="997.68" width="10.12" height="11.68" transform="translate(-262.67 1893.21) rotate(-71.24)"/><polygon class="cls-21" points="1076.37 1070.96 1074.42 1061.13 1083.91 1064.35 1076.37 1070.96"/><rect class="cls-1" x="1287.57" y="934.04" width="10.49" height="12.11" transform="translate(-293.3 1675.27) rotate(-60.87)"/><polygon class="cls-22" points="1155.18 1007.37 1155.02 996.98 1164.1 1002.04 1155.18 1007.37"/><rect class="cls-1" x="1377.66" y="1063.11" width="8.51" height="9.82" transform="translate(-493 1289.8) rotate(-42.9)"/><polygon class="cls-23" points="1243.82 1133.92 1246.3 1125.87 1252.04 1132.04 1243.82 1133.92"/><rect class="cls-1" x="1488.8" y="1015.5" width="11.07" height="9.58" transform="matrix(0.79, -0.61, 0.61, 0.79, -447.97, 1182.45)"/><polygon class="cls-24" points="1356.41 1080.77 1365.17 1084.41 1357.64 1090.18 1356.41 1080.77"/><rect class="cls-1" x="1593.74" y="1106.13" width="5.45" height="6.29" transform="translate(-263.08 274.44) rotate(-7.27)"/><polygon class="cls-25" points="1463.09 1172.55 1458.8 1175.82 1458.12 1170.47 1463.09 1172.55"/><rect class="cls-1" x="1591.88" y="1024.14" width="7.75" height="6.71" transform="matrix(0.76, -0.65, 0.65, 0.76, -421.87, 1336.05)"/><polygon class="cls-26" points="1461.95 1093.13 1455.69 1090.88 1460.77 1086.59 1461.95 1093.13"/><rect class="cls-1" x="1763.6" y="914.7" width="8.01" height="9.25" transform="translate(-185.69 1798.63) rotate(-51.65)"/><polygon class="cls-27" points="1630.02 985.43 1631.17 977.58 1637.4 982.5 1630.02 985.43"/><rect class="cls-1" x="1773.36" y="794.28" width="10.08" height="11.64" transform="translate(186.09 2160.09) rotate(-65.89)"/><polygon class="cls-28" points="1641.16 867.38 1640.14 857.45 1649.25 861.53 1641.16 867.38"/><rect class="cls-1" x="1664.1" y="692.88" width="6.46" height="7.46" transform="translate(-5.92 1709.26) rotate(-54.36)"/><polygon class="cls-29" points="1530.24 762.29 1530.87 755.92 1536.07 759.65 1530.24 762.29"/><rect class="cls-1" x="1651.29" y="580.99" width="10.05" height="8.71" transform="translate(312.39 1924) rotate(-66)"/><polygon class="cls-30" points="1517.53 647.47 1526.11 646.57 1522.6 654.44 1517.53 647.47"/><rect class="cls-1" x="1656.7" y="470.43" width="9.99" height="11.53" transform="translate(-196.57 397.33) rotate(-11.26)"/><polygon class="cls-31" points="1530.1 538.96 1522.66 545.48 1520.73 535.78 1530.1 538.96"/><rect class="cls-1" x="1672.36" y="386.63" width="8.46" height="7.33" transform="translate(-116.11 919.88) rotate(-28.81)"/><polygon class="cls-32" points="1542.46 456.45 1536.25 452.69 1542.61 449.19 1542.46 456.45"/><rect class="cls-1" x="1619.31" y="296.61" width="8.74" height="7.57" transform="matrix(0.08, -1, 1, 0.08, 1053.98, 1957.09)"/><polygon class="cls-33" points="1491.17 364.2 1484.38 367.4 1485.01 359.93 1491.17 364.2"/><rect class="cls-1" x="1667.69" y="202.72" width="8.49" height="7.35" transform="translate(710.2 1738.08) rotate(-67.67)"/><polygon class="cls-34" points="1533.61 268.82 1540.83 267.85 1538.06 274.59 1533.61 268.82"/><rect class="cls-1" x="1763.41" y="121.82" width="5.67" height="6.55" transform="translate(801.51 1753.17) rotate(-66.13)"/><polygon class="cls-35" points="1631.61 186.55 1632.21 192.13 1627.07 189.86 1631.61 186.55"/><rect class="cls-1" x="1653.5" y="-61.8" width="10.27" height="11.86" transform="translate(556.6 1356.81) rotate(-52.45)"/><polygon class="cls-36" points="1520.54 10.99 1521.87 0.9 1529.94 7.1 1520.54 10.99"/><rect class="cls-1" x="1580.28" y="-40.72" width="8.37" height="9.66" transform="translate(102.45 863.67) rotate(-30.54)"/><polygon class="cls-37" points="1445.98 29.4 1450.06 22.18 1454.27 29.32 1445.98 29.4"/><rect class="cls-1" x="1469.86" y="77.79" width="7.02" height="8.11" transform="translate(928.19 1563.06) rotate(-77.06)"/><polygon class="cls-38" points="1338.44 142.63 1340.48 149.28 1333.7 147.73 1338.44 142.63"/><rect class="cls-1" x="1386.94" y="11.5" width="10.3" height="11.9" transform="translate(590.8 1303.72) rotate(-62.15)"/><polygon class="cls-39" points="1254.58 84.69 1254.19 74.49 1263.22 79.26 1254.58 84.69"/><rect class="cls-1" x="1285.62" y="102.39" width="6.45" height="5.59" transform="translate(368.33 1196.38) rotate(-57.29)"/><polygon class="cls-40" points="1151.38 167.51 1156.91 167.78 1153.91 172.44 1151.38 167.51"/><rect class="cls-1" x="1206.91" y="115.99" width="7.24" height="8.35" transform="translate(596.05 1301.96) rotate(-72.48)"/><polygon class="cls-41" points="1074.08 186.52 1072.53 179.52 1079.36 181.68 1074.08 186.52"/><rect class="cls-1" x="1115.71" y="-4.95" width="9.43" height="10.89" transform="translate(-79.03 415.46) rotate(-18.3)"/><polygon class="cls-42" points="988.49 62.84 982.27 69.82 979.34 60.95 988.49 62.84"/><rect class="cls-1" x="1029.09" y="65.04" width="9.13" height="10.55" transform="translate(-111.03 368.51) rotate(-16.98)"/><polygon class="cls-43" points="901.63 132.78 895.46 139.4 892.82 130.75 901.63 132.78"/><rect class="cls-1" x="943.22" y="6.09" width="10.7" height="9.27" transform="matrix(0.83, -0.56, 0.56, 0.83, 22.63, 598.88)"/><polygon class="cls-44" points="810.9 71.17 819.16 75.16 811.57 80.33 810.9 71.17"/><rect class="cls-1" x="863.66" y="120.45" width="5.47" height="6.32" transform="translate(481.46 1026.06) rotate(-81.56)"/><polygon class="cls-45" points="731.16 184.97 733.15 190.01 727.79 189.22 731.16 184.97"/><rect class="cls-1" x="751.5" y="15.27" width="9.18" height="7.95" transform="translate(454.68 820.73) rotate(-78.79)"/><polygon class="cls-46" points="617.37 82.17 624.83 79.64 623.29 87.36 617.37 82.17"/><rect class="cls-1" x="640.75" y="109.88" width="5.5" height="6.35" transform="translate(-2.37 584.6) rotate(-48.61)"/><polygon class="cls-47" points="509.4 174.94 508.33 180.28 504.24 176.67 509.4 174.94"/><rect class="cls-1" x="535.43" y="63.41" width="6.7" height="7.73" transform="translate(175.59 623.78) rotate(-72.33)"/><polygon class="cls-48" points="404.03 128.25 405.45 134.73 399.13 132.72 404.03 128.25"/><rect class="cls-1" x="414.81" y="54.08" width="6.84" height="7.89" transform="translate(84.36 494.36) rotate(-69.89)"/><polygon class="cls-49" points="283.61 118.98 284.78 125.66 278.42 123.33 283.61 118.98"/><rect class="cls-1" x="317.98" y="100.58" width="7.9" height="6.84" transform="translate(46.71 475.69) rotate(-83.52)"/><polygon class="cls-50" points="183.61 167.24 189.82 164.53 189.06 171.27 183.61 167.24"/><rect class="cls-1" x="240.86" y="116.63" width="5.39" height="6.22" transform="translate(-163.1 170.36) rotate(-23.45)"/><polygon class="cls-51" points="109.99 182.43 106.81 186.71 104.69 181.82 109.99 182.43"/><rect class="cls-1" x="1609.5" y="793.55" width="7.3" height="6.33" transform="translate(418.86 2314.95) rotate(-80.24)"/><polygon class="cls-52" points="1475.06 859.83 1480.94 857.66 1479.88 863.84 1475.06 859.83"/><rect class="cls-1" x="1502.31" y="857.87" width="8.12" height="9.37" transform="translate(95.26 2103.47) rotate(-72.5)"/><polygon class="cls-53" points="1371.8 922.98 1373.54 930.83 1365.87 928.41 1371.8 922.98"/><rect class="cls-1" x="1410.05" y="818.96" width="8.51" height="9.82" transform="translate(-106.1 1759.92) rotate(-62.43)"/><polygon class="cls-54" points="1277.15 890.48 1276.79 882.06 1284.26 885.96 1277.15 890.48"/><rect class="cls-1" x="1291.99" y="804.2" width="7.17" height="6.21" transform="translate(300.07 2132.12) rotate(-87.64)"/><polygon class="cls-55" points="1157.5 870.76 1162.95 867.9 1162.7 874.05 1157.5 870.76"/><rect class="cls-1" x="1178.34" y="758.52" width="9.17" height="7.94" transform="translate(-208.55 190.9) rotate(-5.98)"/><polygon class="cls-56" points="1047.7 829.25 1043.08 822.88 1050.9 822.06 1047.7 829.25"/><rect class="cls-1" x="1102.87" y="833.03" width="5.63" height="6.5" transform="translate(-131.68 1741.24) rotate(-74.47)"/><polygon class="cls-57" points="970.73 897.64 972.13 903.04 966.75 901.55 970.73 897.64"/><rect class="cls-1" x="996.22" y="858.57" width="11.44" height="9.9" transform="translate(-243.07 206.87) rotate(-7.77)"/><polygon class="cls-58" points="865.83 923.1 871.84 930.86 862.12 932.18 865.83 923.1"/><rect class="cls-1" x="881.75" y="727.81" width="6.42" height="5.56" transform="translate(-41.78 1625.39) rotate(-85.96)"/><polygon class="cls-59" points="751.63 794.3 746.68 796.71 747.07 791.22 751.63 794.3"/><rect class="cls-1" x="780.61" y="824.82" width="8.75" height="7.57" transform="translate(-335.88 1468.34) rotate(-76.87)"/><polygon class="cls-60" points="652.41 892.86 645.23 895.04 646.93 887.73 652.41 892.86"/><rect class="cls-1" x="691.94" y="748.42" width="8.66" height="10" transform="translate(-380.34 1225.47) rotate(-70.72)"/><polygon class="cls-61" points="561.87 813.66 563.46 822.09 555.37 819.26 561.87 813.66"/><rect class="cls-1" x="596.83" y="921.63" width="10" height="8.66" transform="translate(-497.69 450.62) rotate(-27.77)"/><polygon class="cls-62" points="467.89 992.63 460.64 988.05 468.23 984.05 467.89 992.63"/><rect class="cls-1" x="512.81" y="770.88" width="8.91" height="7.72" transform="matrix(0.67, -0.75, 0.75, 0.67, -540.61, 707.42)"/><polygon class="cls-63" points="384.03 840.38 376.54 838.81 381.64 833.11 384.03 840.38"/><rect class="cls-1" x="392.89" y="719.83" width="11.94" height="10.34" transform="translate(-556.33 902.24) rotate(-69.08)"/><polygon class="cls-64" points="259.38 787.06 269.5 785.44 265.84 795.01 259.38 787.06"/><rect class="cls-1" x="318.69" y="770.29" width="7.61" height="8.79" transform="matrix(0.98, -0.2, 0.2, 0.98, -286.83, 145.65)"/><polygon class="cls-65" points="183.91 838.87 189.53 833.85 191.07 841.23 183.91 838.87"/><rect class="cls-1" x="238.71" y="902.44" width="9.68" height="8.38" transform="translate(-516.14 268.93) rotate(-26.63)"/><polygon class="cls-66" points="109.51 973.22 102.57 968.66 109.99 964.94 109.51 973.22"/><rect class="cls-1" x="1622.01" y="549.24" width="8.03" height="9.27" transform="translate(452.45 1986.1) rotate(-71.63)"/><polygon class="cls-67" points="1491.48 614.34 1493.09 622.13 1485.54 619.63 1491.48 614.34"/><rect class="cls-1" x="1527.21" y="565.44" width="10.3" height="8.92" transform="translate(438.22 1957.87) rotate(-74.5)"/><polygon class="cls-68" points="1400.28 634.43 1391.73 636.64 1394.09 628.12 1400.28 634.43"/><rect class="cls-1" x="1437.3" y="571.36" width="9.78" height="11.3" transform="translate(0.1 1480.72) rotate(-54.55)"/><polygon class="cls-69" points="1304.33 643.8 1305.25 634.15 1313.15 639.77 1304.33 643.8"/><rect class="cls-1" x="1341.73" y="627.81" width="9.58" height="11.06" transform="translate(-68.03 1457.46) rotate(-55.93)"/><polygon class="cls-70" points="1213.13 693.68 1212.46 703.15 1204.59 697.84 1213.13 693.68"/><rect class="cls-1" x="1225.55" y="552.25" width="8.9" height="7.71" transform="translate(-220.91 923.03) rotate(-37.32)"/><polygon class="cls-71" points="1092.54 617.18 1099.58 620.12 1093.51 624.75 1092.54 617.18"/><rect class="cls-1" x="1136" y="695.38" width="8.48" height="9.79" transform="translate(-58.95 1575.76) rotate(-68.91)"/><polygon class="cls-72" points="1005.91 760.62 1007.21 768.92 999.38 765.9 1005.91 760.62"/><rect class="cls-1" x="1030.57" y="690.73" width="9.65" height="11.15" transform="translate(-259.19 297.73) rotate(-12.18)"/><polygon class="cls-73" points="903.65 759.03 896.57 765.45 894.55 756.1 903.65 759.03"/><rect class="cls-1" x="919.8" y="622.36" width="9.82" height="11.34" transform="matrix(0.83, -0.55, 0.55, 0.83, -328.61, 679.81)"/><polygon class="cls-74" points="785.83 693.79 790.15 685.07 795.54 693.18 785.83 693.79"/><rect class="cls-1" x="802.93" y="558.81" width="7.11" height="6.16" transform="translate(-311.62 598.01) rotate(-33.27)"/><polygon class="cls-75" points="672.29 627.53 666.84 624.79 671.94 621.44 672.29 627.53"/><rect class="cls-1" x="697.12" y="698.21" width="7.38" height="8.52" transform="translate(-379.87 1068.29) rotate(-62.8)"/><polygon class="cls-76" points="563.88 768.68 563.52 761.39 570.02 764.73 563.88 768.68"/><rect class="cls-1" x="576.59" y="548.75" width="10.79" height="9.34" transform="translate(-356.65 624.54) rotate(-44.1)"/><polygon class="cls-77" points="449.06 619.7 440.15 617.16 446.8 610.72 449.06 619.7"/><rect class="cls-1" x="468.92" y="664.86" width="9.82" height="11.34" transform="translate(-229.99 141.45) rotate(-8.55)"/><polygon class="cls-78" points="342.2 733.49 334.59 739.56 333.14 729.93 342.2 733.49"/><rect class="cls-1" x="360.16" y="596.61" width="8.94" height="10.33" transform="matrix(0.99, -0.16, 0.16, 0.99, -229.8, 131.92)"/><polygon class="cls-79" points="225.49 665.93 232.32 660.29 233.78 669.03 225.49 665.93"/><rect class="cls-1" x="239.81" y="642.99" width="7.48" height="8.64" transform="translate(-576.41 810.55) rotate(-77.67)"/><polygon class="cls-80" points="107.34 713.83 105.09 706.77 112.33 708.35 107.34 713.83"/><rect class="cls-1" x="1675.04" y="373.3" width="9.33" height="10.77" transform="translate(-169.97 605.48) rotate(-18.14)"/><polygon class="cls-81" points="1540.54 443.42 1546.71 436.54 1549.59 445.32 1540.54 443.42"/><rect class="cls-1" x="1567.8" y="323.6" width="6.2" height="7.16" transform="matrix(0.55, -0.83, 0.83, 0.55, 297.07, 1521.72)"/><polygon class="cls-82" points="1433.95 392.84 1434.32 386.7 1439.45 390.09 1433.95 392.84"/><rect class="cls-1" x="1471.16" y="365.73" width="11.79" height="10.21" transform="translate(451.9 1670.45) rotate(-68.35)"/><polygon class="cls-83" points="1345.34 435.92 1335.33 437.38 1339.06 427.99 1345.34 435.92"/><rect class="cls-1" x="1392.24" y="495.42" width="9.89" height="11.42" transform="translate(49.65 1421.66) rotate(-55)"/><polygon class="cls-84" points="1259.32 567.97 1260.18 558.21 1268.2 563.83 1259.32 567.97"/><rect class="cls-1" x="1311.57" y="384.25" width="7.29" height="8.42" transform="translate(214.85 1426.61) rotate(-61.74)"/><polygon class="cls-85" points="1178.25 454.62 1178.03 447.4 1184.39 450.82 1178.25 454.62"/><rect class="cls-1" x="1211.79" y="468.69" width="11.7" height="10.13" transform="translate(118.18 1419.36) rotate(-63.72)"/><polygon class="cls-86" points="1085.76 539.13 1075.74 539.78 1080.19 530.78 1085.76 539.13"/><rect class="cls-1" x="1108.25" y="414.76" width="9.67" height="8.37" transform="translate(-201.61 327.19) rotate(-13.12)"/><polygon class="cls-87" points="978.29 485.81 972.62 479.75 980.7 477.87 978.29 485.81"/><rect class="cls-1" x="996.02" y="533.9" width="7.66" height="8.85" transform="translate(-3.72 1334.05) rotate(-68.45)"/><polygon class="cls-88" points="863.14 604.77 862.03 597.26 869.09 600.05 863.14 604.77"/><rect class="cls-1" x="903.33" y="503.62" width="9.5" height="10.96" transform="translate(-157.14 104.11) rotate(-2.53)"/><polygon class="cls-89" points="768.66 572.83 776.59 567.77 777.01 577.17 768.66 572.83"/><rect class="cls-1" x="802.14" y="453.04" width="7.4" height="8.54" transform="translate(-234.83 322.6) rotate(-17.22)"/><polygon class="cls-90" points="673.14 519.98 668.16 525.36 665.99 518.36 673.14 519.98"/><rect class="cls-1" x="705.41" y="357.07" width="7.5" height="8.66" transform="translate(-219.36 356.05) rotate(-22.04)"/><polygon class="cls-91" points="570.77 426.1 575.34 420.24 578.13 427.13 570.77 426.1"/><rect class="cls-1" x="603.21" y="324.28" width="9.27" height="10.7" transform="translate(-175.03 150.04) rotate(-7.88)"/><polygon class="cls-92" points="468.56 393.7 475.8 388.06 477.06 397.16 468.56 393.7"/><rect class="cls-1" x="505.29" y="488" width="9.74" height="11.25" transform="translate(-313.6 731.32) rotate(-58.26)"/><polygon class="cls-93" points="372.52 560.54 372.81 550.9 381.02 555.97 372.52 560.54"/><rect class="cls-1" x="402.59" y="493.71" width="9.13" height="7.91" transform="translate(-354.54 707.54) rotate(-63.87)"/><polygon class="cls-94" points="274.47 562.63 266.66 563.16 270.11 556.13 274.47 562.63"/><rect class="cls-1" x="314.49" y="350.28" width="8.19" height="9.46" transform="translate(-285.35 328.21) rotate(-37.18)"/><polygon class="cls-95" points="185.66 416.56 182.52 424.04 177.61 417.57 185.66 416.56"/><rect class="cls-1" x="238.05" y="347.7" width="10.99" height="9.52" transform="translate(-313.93 341.65) rotate(-45.36)"/><polygon class="cls-96" points="105.24 413.31 114.36 415.69 107.74 422.4 105.24 413.31"/><rect class="cls-1" x="1630.25" y="110.08" width="9.03" height="7.82" transform="translate(-101.58 528.19) rotate(-16.34)"/><polygon class="cls-97" points="1500.09 180.59 1494.48 175.24 1501.92 173.06 1500.09 180.59"/><rect class="cls-1" x="1511.27" y="193.07" width="11.12" height="9.63" transform="translate(-148.39 252.42) rotate(-7.1)"/><polygon class="cls-98" points="1380.78 257.56 1386.53 265.17 1377.07 266.35 1380.78 257.56"/><rect class="cls-1" x="1430.87" y="240.19" width="9.33" height="10.77" transform="matrix(0.96, -0.29, 0.29, 0.96, -145.96, 483.35)"/><polygon class="cls-99" points="1303.59 308.05 1297.24 314.76 1294.6 305.91 1303.59 308.05"/><rect class="cls-1" x="1331.9" y="185.44" width="10.29" height="8.91" transform="translate(206.54 1166.61) rotate(-50.63)"/><polygon class="cls-100" points="1204.27 255.75 1195.56 254.31 1201.16 247.49 1204.27 255.75"/><rect class="cls-1" x="1245.14" y="324.8" width="5.48" height="6.33" transform="translate(-61.74 926.64) rotate(-39.23)"/><polygon class="cls-101" points="1110.6 392.93 1112.53 387.85 1115.96 392.06 1110.6 392.93"/><rect class="cls-1" x="1122.56" y="176.02" width="10.27" height="8.9" transform="translate(3.02 814.93) rotate(-39.09)"/><polygon class="cls-102" points="989.86 241.23 998.09 244.37 991.25 249.93 989.86 241.23"/><rect class="cls-1" x="1049.73" y="278.88" width="6.57" height="5.69" transform="translate(136.03 1105.28) rotate(-59.18)"/><polygon class="cls-103" points="915.47 344.1 921.11 344.18 918.22 349.02 915.47 344.1"/><rect class="cls-1" x="943.93" y="315.23" width="12.16" height="10.53" transform="translate(197.4 1174.3) rotate(-70.66)"/><polygon class="cls-104" points="818.47 385.46 808.22 387.39 811.67 377.55 818.47 385.46"/><rect class="cls-1" x="829.28" y="327.85" width="7.33" height="6.35" transform="translate(-174.5 186.75) rotate(-8.27)"/><polygon class="cls-105" points="697.01 392.03 700.91 396.97 694.68 397.87 697.01 392.03"/><rect class="cls-1" x="735.58" y="293.32" width="9.03" height="10.42" transform="translate(-13.76 866.64) rotate(-61.18)"/><polygon class="cls-106" points="602.76 365.29 602.58 356.35 610.41 360.66 602.76 365.29"/><rect class="cls-1" x="621.47" y="268.98" width="7.57" height="6.56" transform="translate(-0.99 809.42) rotate(-67.51)"/><polygon class="cls-107" points="492.15 336.83 485.71 337.68 488.19 331.68 492.15 336.83"/><rect class="cls-1" x="516.44" y="161.84" width="10.07" height="11.63" transform="translate(42.73 658.13) rotate(-69.03)"/><polygon class="cls-108" points="387.37 227.39 388.93 237.24 379.62 233.67 387.37 227.39"/><rect class="cls-1" x="409.61" y="129.08" width="11.03" height="9.56" transform="translate(-93.71 423.06) rotate(-49.03)"/><polygon class="cls-109" points="276.63 194.87 285.93 196.67 279.72 203.82 276.63 194.87"/><rect class="cls-1" x="325.92" y="180.66" width="10.31" height="11.91" transform="translate(-11.9 568.63) rotate(-86.33)"/><polygon class="cls-110" points="195.25 254.34 190.72 245.18 200.91 245.84 195.25 254.34"/><rect class="cls-1" x="238.89" y="178.38" width="9.32" height="8.07" transform="translate(-185.13 164.25) rotate(-21.25)"/><polygon class="cls-111" points="106.8 242.92 113.03 247.93 105.58 250.83 106.8 242.92"/><rect class="cls-1" x="1508.62" y="1034.12" width="10.61" height="9.19" transform="translate(-330.94 1772.49) rotate(-55.86)"/><polygon class="cls-112" points="1375.28 1100.18 1384.35 1100.84 1379.25 1108.37 1375.28 1100.18"/><rect class="cls-1" x="1368.73" y="916.82" width="10.81" height="9.36" transform="translate(-373.06 610.81) rotate(-20.77)"/><polygon class="cls-113" points="1239.91 988.61 1232.73 982.74 1241.4 979.45 1239.91 988.61"/><rect class="cls-1" x="1437.12" y="802.23" width="10.72" height="9.28" transform="translate(-100.63 1736.8) rotate(-60.83)"/><polygon class="cls-114" points="1310.2 872.26 1301 872.4 1305.48 864.37 1310.2 872.26"/><rect class="cls-1" x="1463.51" y="722.77" width="5.91" height="6.82" transform="translate(348.49 2098.45) rotate(-79.45)"/><polygon class="cls-115" points="1331.33 787.38 1333.28 792.9 1327.53 791.83 1331.33 787.38"/><rect class="cls-1" x="1412.75" y="605.14" width="8.37" height="9.66" transform="translate(286.64 1852.63) rotate(-73.14)"/><polygon class="cls-116" points="1280.38 676.78 1278.5 668.7 1286.43 671.11 1280.38 676.78"/><rect class="cls-1" x="1443.16" y="504.95" width="7.36" height="6.38" transform="translate(-212.3 397.68) rotate(-12.84)"/><polygon class="cls-117" points="1311.85 574.21 1307.55 569.58 1313.71 568.18 1311.85 574.21"/><rect class="cls-1" x="1499.79" y="424.74" width="8.64" height="9.97" transform="translate(444.07 1755.17) rotate(-69.72)"/><polygon class="cls-118" points="1369.76 490 1371.2 498.44 1363.17 495.47 1369.76 490"/><rect class="cls-1" x="1381.79" y="314.6" width="6.23" height="5.4" transform="translate(-167.8 482.62) rotate(-17.01)"/><polygon class="cls-119" points="1248.7 378.76 1252.61 382.41 1247.5 383.98 1248.7 378.76"/><rect class="cls-1" x="1418.36" y="191.97" width="11.93" height="10.33" transform="translate(110.21 1084.45) rotate(-42.83)"/><polygon class="cls-120" points="1291.61 263.76 1281.83 260.75 1289.33 253.79 1291.61 263.76"/><rect class="cls-1" x="1350.01" y="109.52" width="7.41" height="6.41" transform="translate(-137.87 95.91) rotate(-1.37)"/><polygon class="cls-121" points="1218.21 178.88 1214.9 173.46 1221.25 173.31 1218.21 178.88"/><rect class="cls-1" x="1482.35" y="25.8" width="9.68" height="8.38" transform="translate(726.41 1443.27) rotate(-66.3)"/><polygon class="cls-122" points="1354.73 94.92 1346.48 95.83 1349.81 88.22 1354.73 94.92"/><rect class="cls-1" x="1105.23" y="1019.59" width="6.84" height="7.9" transform="translate(-55.9 2190.7) rotate(-89.72)"/><polygon class="cls-123" points="973.1 1084.33 976.45 1090.21 969.68 1090.18 973.1 1084.33"/><rect class="cls-1" x="1167.43" y="898.51" width="6.7" height="7.74" transform="translate(-226.41 195.66) rotate(-6.22)"/><polygon class="cls-124" points="1037.91 965.64 1032.56 969.57 1031.84 962.97 1037.91 965.64"/><rect class="cls-1" x="1087.31" y="779.93" width="8.97" height="10.36" transform="translate(-200.79 1534.03) rotate(-66.36)"/><polygon class="cls-125" points="954.77 852 953.79 843.17 961.93 846.73 954.77 852"/><rect class="cls-1" x="1163.87" y="688.48" width="9.89" height="8.57" transform="translate(-84.17 1529.25) rotate(-65.33)"/><polygon class="cls-126" points="1030.1 754.87 1038.55 754.08 1035 761.79 1030.1 754.87"/><rect class="cls-1" x="1294" y="588.8" width="6.9" height="5.98" transform="translate(-264.04 673.51) rotate(-25.25)"/><polygon class="cls-127" points="1160.85 653.15 1165.72 656.53 1160.36 659.06 1160.85 653.15"/><rect class="cls-1" x="1100.02" y="493.54" width="5.83" height="6.73" transform="translate(-110.49 1109.65) rotate(-51.25)"/><polygon class="cls-128" points="965.89 562.31 966.77 556.6 971.27 560.22 965.89 562.31"/><rect class="cls-1" x="1191.88" y="410.48" width="7.03" height="8.12" transform="translate(-65.24 1056.9) rotate(-46.35)"/><polygon class="cls-129" points="1061.8 476.03 1060.15 482.79 1055.12 477.99 1061.8 476.03"/><rect class="cls-1" x="1166.68" y="301.74" width="11.55" height="10.01" transform="translate(464.72 1438.64) rotate(-76.49)"/><polygon class="cls-130" points="1032.95 369.35 1042.45 366.54 1040.13 376.18 1032.95 369.35"/><rect class="cls-1" x="1178.93" y="206.35" width="9.63" height="8.34" transform="translate(-152.97 221.02) rotate(-7.56)"/><polygon class="cls-131" points="1048.62 277.43 1043.59 270.88 1051.78 269.79 1048.62 277.43"/><rect class="cls-1" x="1271.65" y="120.1" width="7.69" height="6.66" transform="translate(410.84 1240.82) rotate(-60.85)"/><polygon class="cls-132" points="1142.29 188.3 1135.69 188.4 1138.91 182.64 1142.29 188.3"/><rect class="cls-1" x="1102.94" y="26.19" width="8.79" height="7.61" transform="translate(891.24 1198.36) rotate(-87.38)"/><polygon class="cls-133" points="974.84 93.69 968.15 97.16 968.5 89.63 974.84 93.69"/><rect class="cls-1" x="1076.42" y="1020.17" width="10.56" height="9.14" transform="translate(-183.35 116.48) rotate(-2.74)"/><polygon class="cls-134" points="946.31 1092 941.41 1084.38 950.46 1083.95 946.31 1092"/><rect class="cls-1" x="923.26" y="927.76" width="8.62" height="9.96" transform="translate(-332.11 1679.49) rotate(-76.45)"/><polygon class="cls-135" points="791.19 999.7 788.77 991.5 797.08 993.5 791.19 999.7"/><rect class="cls-1" x="1055.25" y="841.3" width="6.94" height="8.02" transform="translate(-184 128.07) rotate(-3.41)"/><polygon class="cls-136" points="925.97 908.69 920.23 912.48 919.82 905.61 925.97 908.69"/><rect class="cls-1" x="954.13" y="762.69" width="5.57" height="6.43" transform="translate(-346.48 457.34) rotate(-21)"/><polygon class="cls-137" points="823.46 828.65 819.99 832.94 818.01 827.79 823.46 828.65"/><rect class="cls-1" x="1061.72" y="672.53" width="6.73" height="7.77" transform="translate(15.61 1609.86) rotate(-76.01)"/><polygon class="cls-138" points="930.18 737.32 932.01 743.73 925.55 742.12 930.18 737.32"/><rect class="cls-1" x="1035.95" y="554.91" width="10.75" height="9.31" transform="translate(-118.3 1213.7) rotate(-58.22)"/><polygon class="cls-139" points="908.97 625.11 899.75 624.83 904.6 616.98 908.97 625.11"/><rect class="cls-1" x="971.95" y="470.06" width="9.56" height="8.28" transform="translate(-191.86 203.49) rotate(-7.97)"/><polygon class="cls-140" points="840.7 534.43 845.74 540.9 837.62 542.03 840.7 534.43"/><rect class="cls-1" x="1038.11" y="381.19" width="8.69" height="10.03" transform="translate(93.42 1207.47) rotate(-63.3)"/><polygon class="cls-141" points="905.3 452.9 904.81 444.31 912.49 448.18 905.3 452.9"/><rect class="cls-1" x="907.86" y="296.58" width="6.64" height="5.75" transform="translate(126.35 1068.96) rotate(-65.59)"/><polygon class="cls-142" points="773.49 362.05 779.16 361.49 776.8 366.68 773.49 362.05"/><rect class="cls-1" x="1032.55" y="218.64" width="10.84" height="9.39" transform="translate(73.48 950.32) rotate(-50.82)"/><polygon class="cls-143" points="905.35 289.29 896.17 287.81 902.05 280.6 905.35 289.29"/><rect class="cls-1" x="1024.81" y="137.95" width="9.35" height="8.09" transform="translate(349.68 1090.88) rotate(-66.27)"/><polygon class="cls-144" points="896.92 206.87 888.95 207.75 892.18 200.41 896.92 206.87"/><rect class="cls-1" x="842.25" y="26.8" width="7.38" height="6.39" transform="translate(99.69 679.71) rotate(-45.86)"/><polygon class="cls-145" points="712.23 95.36 706.09 93.81 710.5 89.27 712.23 95.36"/><rect class="cls-1" x="672.77" y="982.09" width="7.81" height="6.76" transform="translate(-597.76 1412.37) rotate(-73.22)"/><polygon class="cls-146" points="538.49 1048.23 545.01 1046.7 543.07 1053.11 538.49 1048.23"/><rect class="cls-1" x="739.68" y="874.8" width="9.8" height="8.49" transform="translate(-540.08 1024.46) rotate(-53.81)"/><polygon class="cls-147" points="611.79 944.63 603.43 943.72 608.4 936.94 611.79 944.63"/><rect class="cls-1" x="762.54" y="757.01" width="10" height="8.66" transform="translate(-447.86 772.8) rotate(-42.01)"/><polygon class="cls-148" points="634.32 827.51 626.16 824.86 632.54 819.12 634.32 827.51"/><rect class="cls-1" x="696.3" y="655.45" width="7.14" height="6.18" transform="translate(-383.62 879.96) rotate(-52.71)"/><polygon class="cls-149" points="566.3 723.61 560.22 722.84 563.93 717.96 566.3 723.61"/><rect class="cls-1" x="752.41" y="574.23" width="5.37" height="6.21" transform="translate(-204.02 1115.49) rotate(-67.35)"/><polygon class="cls-150" points="618.7 642.9 618.01 637.62 622.93 639.66 618.7 642.9"/><rect class="cls-1" x="717.73" y="478.68" width="7.31" height="8.44" transform="translate(-197.24 171.75) rotate(-8.23)"/><polygon class="cls-151" points="582.88 546.88 588.58 542.4 589.61 549.57 582.88 546.88"/><rect class="cls-1" x="819.64" y="364.7" width="7.23" height="6.26" transform="translate(168.16 1168.36) rotate(-78.89)"/><polygon class="cls-152" points="685.2 430.89 691.06 428.89 689.87 434.97 685.2 430.89"/><rect class="cls-1" x="730.79" y="284.55" width="8.71" height="10.06" transform="translate(-168.66 537.8) rotate(-35.02)"/><polygon class="cls-153" points="596.69 355.16 600.33 347.34 605.28 354.41 596.69 355.16"/><rect class="cls-1" x="610.9" y="195.02" width="10.41" height="12.02" transform="translate(215.45 855.96) rotate(-83.93)"/><polygon class="cls-154" points="480.1 268.78 475.92 259.35 486.17 260.44 480.1 268.78"/><rect class="cls-1" x="725.06" y="116.3" width="10" height="11.55" transform="translate(-108.07 418.64) rotate(-27.84)"/><polygon class="cls-155" points="598.08 183.74 592.81 192.13 588.18 183.37 598.08 183.74"/><rect class="cls-1" x="806.52" y="26.26" width="6.47" height="7.47" transform="translate(-28.51 497.05) rotate(-31.99)"/><polygon class="cls-156" points="676.41 92.16 673.4 97.82 670.01 92.39 676.41 92.16"/><rect class="cls-1" x="571.02" y="974.82" width="9.77" height="11.28" transform="translate(-639.08 1401.54) rotate(-77.9)"/><polygon class="cls-157" points="441.18 1040.15 444.15 1049.36 434.68 1047.33 441.18 1040.15"/><rect class="cls-1" x="579.01" y="879.48" width="11.55" height="10" transform="translate(-408.62 324.83) rotate(-20.53)"/><polygon class="cls-158" points="450.64 951.84 442.99 945.54 452.27 942.07 450.64 951.84"/><rect class="cls-1" x="367.08" y="769.54" width="9.35" height="8.1" transform="translate(-550.19 1181.04) rotate(-87.95)"/><polygon class="cls-159" points="239.47 837.26 232.38 841.03 232.66 833.01 239.47 837.26"/><rect class="cls-1" x="502.23" y="647.46" width="7.41" height="8.56" transform="translate(-400.5 1009.41) rotate(-73.06)"/><polygon class="cls-160" points="371.24 712.42 372.9 719.58 365.88 717.44 371.24 712.42"/><rect class="cls-1" x="430.04" y="564.48" width="5.73" height="6.62" transform="translate(-412.64 706.99) rotate(-58.76)"/><polygon class="cls-161" points="298.54 629.36 298.42 635.04 293.56 632.09 298.54 629.36"/><rect class="cls-1" x="577.06" y="487.14" width="6.91" height="7.98" transform="translate(-112.89 1071.44) rotate(-83.04)"/><polygon class="cls-162" points="444.61 557.47 441.93 551.17 448.73 552 444.61 557.47"/><rect class="cls-1" x="576.9" y="406.77" width="6.98" height="6.05" transform="translate(-239.59 282.67) rotate(-19.66)"/><polygon class="cls-163" points="444 471.04 448.56 474.92 442.92 476.93 444 471.04"/><rect class="cls-1" x="574.13" y="327.89" width="8.35" height="7.23" transform="translate(-183.02 624.74) rotate(-49.98)"/><polygon class="cls-164" points="444.99 396.95 437.93 395.7 442.54 390.21 444.99 396.95"/><rect class="cls-1" x="412.67" y="215.54" width="11.59" height="10.04" transform="matrix(0.58, -0.82, 0.82, 0.58, -138.31, 499.39)"/><polygon class="cls-165" points="286.22 286.46 276.32 285.57 282.04 277.44 286.22 286.46"/><rect class="cls-1" x="516.61" y="110.72" width="10.54" height="12.16" transform="translate(-17.34 531.17) rotate(-53.61)"/><polygon class="cls-166" points="388.85 176.92 387.69 187.29 379.28 181.1 388.85 176.92"/><rect class="cls-1" x="432.11" y="26.58" width="7.89" height="6.83" transform="translate(56.38 456.12) rotate(-59.98)"/><polygon class="cls-167" points="302.88 94.94 296.12 94.94 299.5 89.08 302.88 94.94"/></svg>