<svg id="レイヤー_1" data-name="レイヤー 1" xmlns="http://www.w3.org/2000/svg" xmlns:xlink="http://www.w3.org/1999/xlink" viewBox="0 0 1186.98 443.35"><defs><style>.cls-1{fill:none;}.cls-2{fill:#e8537b;}.cls-3{clip-path:url(#clip-path);}.cls-4{fill:#f3ccdb;}.cls-5{fill:#7bc9d8;}.cls-6{fill:#fff;}.cls-7{fill:#e7757b;}.cls-8{fill:#f5b417;}.cls-9{fill:#888;}.cls-10{fill:#d7345e;}.cls-11{fill:#8cc56e;}</style><clipPath id="clip-path" transform="translate(-372.79 -313.82)"><path class="cls-1" d="M1444.87,447.47h-28.24a18.2,18.2,0,0,0-14.85-7.66h-13.65a29.69,29.69,0,0,0-24.66-40.61L1253,388.36c-.6-.06-1.21-.09-1.8-.09a18.11,18.11,0,0,0-3,.26l-1.76-3.27a18.21,18.21,0,0,0-22.93-8.23l-116.28,47.52a29.4,29.4,0,0,0-18.07-12.62l.83-16.18a18.22,18.22,0,0,0-17.26-19.13l-93-4.78-1,0a18.22,18.22,0,0,0-18.18,17.29l-.32,6.25-3.4-.37a27.67,27.67,0,0,0-5-8,29.55,29.55,0,0,0-18.63-9.5,31.08,31.08,0,0,0-3.55-.2,29,29,0,0,0-23.32,11.5l-13.09-1.41a18.21,18.21,0,0,0-19.88,14.87c-.82,4.53-1.57,9.31-2.25,14.24a18.18,18.18,0,0,0-4-4.52c-1.05-5.53-2.65-13.75-4.82-23.74-1.56-7.16-3.22-14.24-4.82-21.08l0-.2a18.22,18.22,0,0,0-22-13.56c-14.48,3.47-24.59,6.28-35.3,9.52a18.15,18.15,0,0,0-8.09-.07l-15,3.26a18.14,18.14,0,0,0-9,4.9,27.42,27.42,0,0,0-5.6.6,32.6,32.6,0,0,0-6.18,2,18.22,18.22,0,0,0-17.43-13l-1,0c-17.37,1-24.42,1.38-37,2.27l0-.13a18.22,18.22,0,0,0-18-15.8l-1,0L661,348.18a18.22,18.22,0,0,0-17.18,17.4c0,.72-.06,1.45-.08,2.19-12.15,1.23-24.47,2.49-36.62,3.81a18.15,18.15,0,0,0-11.62,6,18.09,18.09,0,0,0-7.29-1.55q-.82,0-1.65.07c-22.74,2-30.15,2.88-58.75,6.6a18.26,18.26,0,0,0-3.19-2.44L508,370.22A18.21,18.21,0,0,0,483.2,376a837.88,837.88,0,0,0-47.48,82.74,18.22,18.22,0,0,0,5.52,22.94l16,11.65a18.22,18.22,0,0,0,2.33,1.44c.18,3.08.29,4.66.46,6.94.76,10.52,2.14,25,3.17,35a18.22,18.22,0,0,0,18.11,16.36c.44,0,.89,0,1.34,0l20.56-1.49a18.16,18.16,0,0,0,11.91-5.65l15.12,4.39a18.2,18.2,0,0,0,22.27-11.45c5.69-16.2,8.69-25,11.33-33.67l.46-.06a18.16,18.16,0,0,0,11.31,4q.66,0,1.34,0l12.46-.9c0,.09.09.18.13.27l8,14.26-2.94.55A18.22,18.22,0,0,0,580,544.42L596.63,634c-2.89.67-6.69,1.38-10,2-.92.17-2.94.55-5,.83-.26-1.38-.54-2.85-.76-4.07-1-5.28-1.61-8.6-2.07-10.46a18.2,18.2,0,0,0-21-13.53l-31,5.77a18.22,18.22,0,0,0-14.58,21.25l1.08,5.79c5.76,30.94,14.86,61.15,56.47,61.15,8.84,0,19.39-1.23,34.2-4,15.33-2.85,31.08-6.9,43.05-16.81a18.21,18.21,0,0,0,12.27,6.2l30.91,2.49q.75.06,1.48.06a18.22,18.22,0,0,0,18.14-16.76l1.41-17.55,21,30.81a18.22,18.22,0,0,0,13.6,7.91l39.71,3.2q.74.06,1.47.06a18.22,18.22,0,0,0,14.78-28.87L797.06,663a45.45,45.45,0,0,0,14,8.29c7.44,2.75,14.1,3.16,20.85,3.37h.56A18.2,18.2,0,0,0,848.56,665l.05.13,8,17.29a18.21,18.21,0,0,0,22.85,9.42c11-4.07,21.2-8.2,29.69-11.8a18.22,18.22,0,0,0,16.3,10.44l22.39.22H948a18.23,18.23,0,0,0,16.76-11.07c6.94,3.6,15.06,7.46,24.37,11.32a18.21,18.21,0,0,0,23-8.09l9.36-17.12a18.22,18.22,0,0,0-4.84-23.15,18.13,18.13,0,0,0,1.93-6c15.19,52.79,56,57,68.32,57,.72,0,1.39,0,2,0a92.46,92.46,0,0,0,56.48-21.78c12.39,13,30,19.13,46.93,19.13,20.13,0,35.85-8.42,43.43-13.43a73,73,0,0,0,11.79-9.58l1.22,1.26a18.22,18.22,0,0,0,24.06,1.89c1.47-1.11,3.2-2.51,5.1-4.14a18.22,18.22,0,0,0,6.3,1.8,18.23,18.23,0,0,0,17.74,14h16.56a18.22,18.22,0,0,0,18.15-16.57,18.14,18.14,0,0,0,6.66-2.15c2,1.57,3.71,2.92,5.17,4a18.22,18.22,0,0,0,23.91-2.37l10.29-11a18.22,18.22,0,0,0-.5-25.41c-5.33-5.27-12.67-12.52-21.24-20.24l1.26-.09a18.22,18.22,0,0,0,17-18.33l-.12-14.2a18.22,18.22,0,0,0-18.22-18.07h-6.21l-18.34.4c0-1.09,0-1.84,0-2.89a18.15,18.15,0,0,0-5.67-13.18l27-48.07a18.11,18.11,0,0,0,9.92,3.55,18.16,18.16,0,0,0,4.93,12.46,43.93,43.93,0,0,0-.84,8.6c0,16,10.2,30.34,26,36.48l.12,0c6.36,2.42,11.94,2.7,17.85,3l.91,0a18.22,18.22,0,0,0,18.22-18.55l-.08-4.38a18.22,18.22,0,0,0,10.29-18l0-.18a55.42,55.42,0,0,0-2.09-11.46,18.23,18.23,0,0,0,2.92-8,18.22,18.22,0,0,0,17.36-18.2V465.69A18.22,18.22,0,0,0,1444.87,447.47Zm-358,227.95h0Z"/></clipPath></defs><title>logo</title><path class="cls-2" d="M1456.1,460.81h-28.24a18.2,18.2,0,0,0-14.85-7.66h-13.65a29.69,29.69,0,0,0-24.66-40.61l-110.46-10.84c-.6-.06-1.21-.09-1.8-.09a18.11,18.11,0,0,0-3,.26l-1.76-3.27a18.21,18.21,0,0,0-22.93-8.23L1118.46,437.9a29.4,29.4,0,0,0-18.07-12.62l.83-16.18A18.22,18.22,0,0,0,1084,390l-93-4.78-1,0a18.22,18.22,0,0,0-18.18,17.29l-.32,6.25-3.4-.37a27.67,27.67,0,0,0-5-8,29.55,29.55,0,0,0-18.63-9.5,31.08,31.08,0,0,0-3.55-.2,29,29,0,0,0-23.32,11.5l-13.09-1.41a18.21,18.21,0,0,0-19.88,14.87c-.82,4.53-1.57,9.31-2.25,14.24a18.18,18.18,0,0,0-4-4.52c-1.05-5.53-2.65-13.75-4.82-23.74-1.56-7.16-3.22-14.24-4.82-21.08l0-.2a18.22,18.22,0,0,0-22-13.56c-14.48,3.47-24.59,6.28-35.3,9.52a18.15,18.15,0,0,0-8.09-.07l-15,3.26a18.14,18.14,0,0,0-9,4.9,27.42,27.42,0,0,0-5.6.6,32.6,32.6,0,0,0-6.18,2,18.22,18.22,0,0,0-17.43-13l-1,0c-17.37,1-24.42,1.38-37,2.27l0-.13a18.22,18.22,0,0,0-18-15.8l-1,0-20.74,1.17A18.22,18.22,0,0,0,655,378.93c0,.72-.06,1.45-.08,2.19-12.15,1.23-24.47,2.49-36.62,3.81a18.15,18.15,0,0,0-11.62,6,18.09,18.09,0,0,0-7.29-1.55q-.82,0-1.65.07c-22.74,2-30.15,2.88-58.75,6.6a18.26,18.26,0,0,0-3.19-2.44L519.2,383.56a18.21,18.21,0,0,0-24.77,5.76A837.88,837.88,0,0,0,447,472.07,18.22,18.22,0,0,0,452.48,495l16,11.65a18.22,18.22,0,0,0,2.33,1.44c.18,3.08.29,4.66.46,6.94.76,10.52,2.14,25,3.17,35a18.22,18.22,0,0,0,18.11,16.36c.44,0,.89,0,1.34,0l20.56-1.49a18.16,18.16,0,0,0,11.91-5.65l15.12,4.39a18.2,18.2,0,0,0,22.27-11.45c5.69-16.2,8.69-25,11.33-33.67l.46-.06a18.16,18.16,0,0,0,11.31,4q.66,0,1.34,0l12.46-.9c0,.09.09.18.13.27l8,14.26-2.94.55a18.22,18.22,0,0,0-14.58,21.25l16.68,89.59c-2.89.67-6.69,1.38-10,2-.92.17-2.94.55-5,.83-.26-1.38-.54-2.85-.76-4.07-1-5.28-1.61-8.6-2.07-10.46a18.2,18.2,0,0,0-21-13.53l-31,5.77a18.22,18.22,0,0,0-14.58,21.25l1.08,5.79c5.76,30.94,14.86,61.15,56.47,61.15,8.84,0,19.39-1.23,34.2-4,15.33-2.85,31.08-6.9,43.05-16.81a18.21,18.21,0,0,0,12.27,6.2L701.41,704q.75.06,1.48.06A18.22,18.22,0,0,0,721,687.26l1.41-17.55,21,30.81a18.22,18.22,0,0,0,13.6,7.91l39.71,3.2q.74.06,1.47.06A18.22,18.22,0,0,0,813,682.82l-4.68-6.49a45.45,45.45,0,0,0,14,8.29c7.44,2.75,14.1,3.16,20.85,3.37h.56a18.2,18.2,0,0,0,16.06-9.62l.05.13,8,17.29a18.21,18.21,0,0,0,22.85,9.42c11-4.07,21.2-8.2,29.69-11.8a18.22,18.22,0,0,0,16.3,10.44l22.39.22h.18A18.23,18.23,0,0,0,976,693c6.94,3.6,15.06,7.46,24.37,11.32a18.21,18.21,0,0,0,23-8.09l9.36-17.12a18.22,18.22,0,0,0-4.84-23.15,18.13,18.13,0,0,0,1.93-6c15.19,52.79,56,57,68.32,57,.72,0,1.39,0,2,0a92.46,92.46,0,0,0,56.48-21.78c12.39,13,30,19.13,46.93,19.13,20.13,0,35.85-8.42,43.43-13.43a73,73,0,0,0,11.79-9.58l1.22,1.26a18.22,18.22,0,0,0,24.06,1.89c1.47-1.11,3.2-2.51,5.1-4.14a18.22,18.22,0,0,0,6.3,1.8,18.23,18.23,0,0,0,17.74,14h16.56a18.22,18.22,0,0,0,18.15-16.57,18.14,18.14,0,0,0,6.66-2.15c2,1.57,3.71,2.92,5.17,4a18.22,18.22,0,0,0,23.91-2.37l10.29-11a18.22,18.22,0,0,0-.5-25.41c-5.33-5.27-12.67-12.52-21.24-20.24l1.26-.09a18.22,18.22,0,0,0,17-18.33l-.12-14.2a18.22,18.22,0,0,0-18.22-18.07h-6.21l-18.34.4c0-1.09,0-1.84,0-2.89a18.15,18.15,0,0,0-5.67-13.18l27-48.07a18.11,18.11,0,0,0,9.92,3.55A18.16,18.16,0,0,0,1383.7,524a43.93,43.93,0,0,0-.84,8.6c0,16,10.2,30.34,26,36.48l.12,0c6.36,2.42,11.94,2.7,17.85,3l.91,0a18.22,18.22,0,0,0,18.22-18.55l-.08-4.38a18.22,18.22,0,0,0,10.29-18l0-.18A55.42,55.42,0,0,0,1454,519.5a18.23,18.23,0,0,0,2.92-8,18.22,18.22,0,0,0,17.36-18.2V479A18.22,18.22,0,0,0,1456.1,460.81Zm-358,227.95h0Z" transform="translate(-372.79 -313.82)"/><g class="cls-3"><rect class="cls-4" width="1186.98" height="443.35"/><rect class="cls-4" width="1186.98" height="443.35"/></g><path class="cls-5" d="M481.29,536.85a2,2,0,0,1-2-1.8c-1-9.93-2.38-24.22-3.13-34.54-.32-4.36-.44-6-1.18-20.47l-.41-8.12-.64,1c-1.12,1.76-2.5,3.92-4.31,6.75a2,2,0,0,1-2.86.53l-16-11.65a2,2,0,0,1-.61-2.52,813.12,813.12,0,0,1,46.66-81.31,2,2,0,0,1,2.72-.63l16.62,10.05a2,2,0,0,1,.77,2.56c-.8,1.69-1.19,2.48-2,4,41.32-5.4,47.1-6.14,73-8.48h.18a2,2,0,0,1,2,1.74c.19,1.48,1,10.47,1.83,19.17.5,5.4,1,10.57,1.26,13.53,4.8-.46,5.6-.52,7.25-.64h.15a2,2,0,0,1,2,1.85l1.43,19.64a2,2,0,0,1-1.85,2.14,44.24,44.24,0,0,0-4.87.65l-2.2.25c.42,7.65,1.75,27.85,2.08,32.32.16,2.14.23,3.11.31,6.4a2,2,0,0,1-1.85,2l-20,1.45h-.15a2,2,0,0,1-2-1.78c-.42-3.83-2.57-26.56-3.49-36.26l-.09-.94c-3.84.48-6,.77-7.67,1l-2.91.38c-.9,4.72-1.54,7.67-2,9.73,5.3-.48,8-.68,11.53-.94h.15a2,2,0,0,1,1.33.49,2,2,0,0,1,.71,1.37l1.44,19.8a2,2,0,0,1-1.7,2.12c-10.92,1.61-16.18,2.21-19.66,2.61-3.69,13.07-6.21,20.77-14,43.07a2,2,0,0,1-2.44,1.26L515.19,529a2,2,0,0,1-1.37-2.43c2.06-7.76,5.34-20.75,8.41-33-2.28.26-5.42.56-11.15,1h-.15a2,2,0,0,1-2-1.85l-1.39-19.18a2,2,0,0,1,1.66-2.12c3.69-.63,8-1.32,12.14-2l7.33-1.17,2.55-9.75c-8.29.95-17,1.84-25.49,2.7l-3.47.35h-.2a2,2,0,0,1-2-1.85L498.62,440a2,2,0,0,1,1.7-2.12l2.71-.4c11.53-1.72,14.45-2.15,34.63-4.71,1.12-4.39,1.77-6.85,2.23-8.58l.34-1.28-1.58.19c-5.44.66-15.56,1.9-30.62,3.42h-.2a2,2,0,0,1-2-1.85l-.41-5.58c-4.24,8-6.91,12.6-16.06,28.36l-1.23,2.11,7.58-.55h.15a2,2,0,0,1,2,1.78c.79,7,2.06,19.79,3.6,41,1.3,17.89,2,32.36,2.3,39.31l.1,2.22a2,2,0,0,1-1.85,2.09l-20.56,1.49Zm81.62-116a2,2,0,0,1,1.71,2.16c-.08.85-.15,1.49-1,6.6l4.68-.5c-.2-3.17-.37-6.81-.49-9.78-.7.08-1.13.11-1.76.16l-6.61.87Z" transform="translate(-372.79 -313.82)"/><path class="cls-6" d="M498.55,385.81l16.62,10.05c-1.2,2.56-1.48,3-3.78,7.37,45.08-5.9,50.12-6.57,76.79-9,.34,2.6,2.81,30.19,3.29,34.63,6.59-.63,7.36-.69,9.2-.82l1.43,19.64a45.52,45.52,0,0,0-5,.67l-4,.44c.25,5.54,1.83,29.49,2.18,34.24.16,2.15.22,3.07.3,6.3l-20,1.45c-.46-4.29-3.12-32.32-3.77-39.22-9.33,1.14-10.39,1.37-14.06,1.79-1.56,8.29-2.4,11.59-2.86,13.78,7.2-.68,10.12-.89,14.26-1.19l1.44,19.8c-12.36,1.82-17.42,2.35-20.93,2.75-3.8,13.54-6.19,21-14.37,44.24l-19.54-5.68c2.3-8.65,6.13-23.89,9.12-35.84-2.75.35-5.5.71-13.94,1.32l-1.39-19.18c6.25-1.07,14-2.25,20.74-3.36l3.62-13.84c-10.25,1.21-21.43,2.33-31.84,3.39l-1.44-19.8c14.19-2.11,15.72-2.38,38.65-5.28,2.52-9.9,2.9-11,3.61-14-1.84.13-13.3,1.74-35,3.93l-.91-12.58c-7.17,13.79-8.28,15.57-22.4,39.89l11.36-.82c.86,7.65,2.13,20.83,3.59,40.93,1.45,19.95,2.1,35.33,2.4,41.48l-20.56,1.49c-1.05-10.26-2.39-24.36-3.12-34.48-.31-4.3-.43-6-1.18-20.43l-.73-14.29c-1.95,2.92-3.74,5.83-8.32,12.95l-16-11.65a814.27,814.27,0,0,1,46.56-81.13m62.74,46,9.18-1c-.3-4.14-.56-9.83-.7-13.83-2.29.32-2.75.35-3.82.43-3.06.38-17.88,2.38-21.24,2.78l17.93,2.56c-.09.93-.18,1.71-1.35,9m-62.73-50a4,4,0,0,0-3.37,1.84,814.94,814.94,0,0,0-46.76,81.49,4,4,0,0,0,1.21,5l16,11.65a4,4,0,0,0,5.72-1.07l1.59-2.48.1,1.87c.74,14.49.87,16.25,1.18,20.52.75,10.37,2.11,24.67,3.13,34.6a4,4,0,0,0,4,3.59h.29l20.56-1.49a4,4,0,0,0,3.71-4.18l-.1-2.22c-.32-7-1-21.44-2.3-39.36-.86-11.82-1.63-21-2.29-28.09a4,4,0,0,0,.89.1l.41,0,3.47-.35c7.5-.76,15.2-1.55,22.62-2.38l-1.48,5.67-6,1c-4.15.66-8.45,1.34-12.15,2a4,4,0,0,0-3.31,4.23l1.39,19.18a4,4,0,0,0,4,3.71h.29c3.71-.27,6.35-.49,8.37-.68-2.86,11.39-5.8,23-7.7,30.18a4,4,0,0,0,2.75,4.87l19.54,5.68a4,4,0,0,0,4.89-2.51c7.6-21.61,10.21-29.54,13.72-41.9,3.5-.4,8.75-1,18.4-2.47l.27,0c.07.67.12,1.2.16,1.56a4,4,0,0,0,4,3.57h.29l20-1.45a4,4,0,0,0,3.71-4.09c-.08-3.33-.16-4.32-.31-6.49-.3-4.13-1.47-21.75-2-30.4l.23,0,.19,0a42.52,42.52,0,0,1,4.7-.63,4,4,0,0,0,3.7-4.28l-1.43-19.64a4,4,0,0,0-4-3.71h-.29c-1.41.1-2.2.16-5.31.45-.29-3-.67-7.2-1.07-11.54-1-10.71-1.65-17.84-1.84-19.25a4,4,0,0,0-4-3.48l-.36,0c-25.16,2.26-31.38,3-69.36,8l.34-.71a4,4,0,0,0-1.55-5.13l-16.62-10.05a4,4,0,0,0-2.07-.58Zm9.28,46.66.4,0c13.91-1.41,23.62-2.57,29.31-3.26-.36,1.39-.84,3.2-1.48,5.71-19,2.41-22,2.86-33.32,4.54l-2.72.4a4,4,0,0,0-2.39,1.29c2.74-4.74,4.64-8.08,6.43-11.34a4,4,0,0,0,3.77,2.67ZM566,427.32l.14-.91,0,.89-.19,0Zm-74.27,19.91,5-8.68a4,4,0,0,0-.19,1.54l.51,7.06a4,4,0,0,0-1.26-.21h-.29l-3.8.28ZM561.14,457l1.48-.2c1.33-.18,3-.4,5.61-.73l.56,5.93c-2.86.21-5.19.38-8.81.69.32-1.51.7-3.36,1.16-5.69Z" transform="translate(-372.79 -313.82)"/><path class="cls-5" d="M614.67,518.06a2,2,0,0,1-1.75-1l-9.26-16.58a2,2,0,0,1,.6-2.61c6.63-4.64,21.88-13.93,28.39-17.9l2.62-1.61.13-.08,9.9-5.38c-7.26.57-13.92.95-18.06,1.18h-.11a2,2,0,0,1-2-1.83c-.14-1.56-1.34-15.62-2.14-29.68-.43-7.68-.75-16.21-1.19-29.26a2,2,0,0,1,1.83-2.06l20.7-1.79h.17a2,2,0,0,1,2,1.76l.1.83a2,2,0,0,1,1.34-.92c4.13-.77,7.8-1.42,13.24-2l-.19-3.28c-16.62,1.37-33.78,2.79-50.75,4h-.15a2,2,0,0,1-2-1.89l-1-18.13a2,2,0,0,1,1.78-2.1c16.88-1.84,34.13-3.57,50.82-5.24l.35,0c-.21-6.54-.22-11.58,0-16.16a2,2,0,0,1,1.89-1.91l20.85-1.17a2,2,0,0,1,2,1.73c.73,5.47,1.27,9.87,1.74,15.28,24.34-1.8,28.51-2,52.26-3.38h.11a2,2,0,0,1,2,1.89l1,17.36a2,2,0,0,1-1.8,2.1l-21.49,2.14c-8.78.88-15.74,1.58-30.39,3l.16,2.77,14.28-1.42c5.48-.55,10.6-1.07,12.47-1.24l8.94-.5a2,2,0,0,1,2,1.76c1.93,16.25,3.15,33.94,3.46,39.38.51,9.08.53,12,.44,18.76a2,2,0,0,1-1.83,2c-3.61.31-5.51.53-12.59,1.32l-4.05.46c8.51,4,23.38,11.12,32.29,15.64a75.73,75.73,0,0,1,9.76,5.59,2,2,0,0,1,.66,2.59l-8.9,17a2,2,0,0,1-2.48.94,290.28,290.28,0,0,1-51-24.9c.43,14.67.32,20.82.2,26.81v.51a2,2,0,0,1-1.89,2l-19.78,1.11a2,2,0,0,1-2-1.73c-.53-3.9-.62-5.36-.71-7.05-.08-1.49-.4-5.71-.71-9.79-.15-2-.3-4-.42-5.58-13.86,8.54-41.51,23.57-50.84,28.16A2,2,0,0,1,614.67,518.06Zm76.5-49.38c.14,3.47.25,6.63.35,9.5l5.49-10Zm-41.66-17.94c2.14-.28,4.56-.56,6.93-.84s5-.58,7.15-.86l-.06-1-14.11,1.28Zm40.63-5.08c3.7-.51,6.45-.82,13.71-1.46l-.47-8.36c0-.76-.1-3-.16-5.3,0-1.31-.07-2.71-.1-3.87-1.17.16-1.92.2-2.63.24-1.64.22-7.68.78-11.12,1.06l0,.34,9.33-.52a2,2,0,0,1,2,1.94l.39,12.31a2,2,0,0,1-1.75,2h-.11c-2.93.36-6.7.82-9.12,1.07Zm-41.66-13.18,14.08-1.76v-.24l-7.36.66c-3.16.29-5,.45-5.37.48h-.11a2,2,0,0,1-1.31-.49C648.42,431.58,648.45,432,648.48,432.49Z" transform="translate(-372.79 -313.82)"/><path class="cls-6" d="M682.74,365.2c.8,6,1.38,10.71,1.89,17.15,26.09-1.94,30.08-2.16,54.2-3.52l1,17.36c-25.13,2.5-28,2.82-53.79,5.35l.38,6.76c4.45-.41,24.67-2.47,28.81-2.86l8.76-.49c2.06,17.3,3.24,35.57,3.45,39.26.51,9.06.52,12,.43,18.62-5.06.44-6.89.7-23.74,2.57.95.41,25.8,12.1,38.65,18.62a74.14,74.14,0,0,1,9.56,5.47l-8.9,17a287.23,287.23,0,0,1-51.35-25.15l8.52-15.58c-2.14.27-2.91.32-11.5,1.11,1.12,28,.94,35.7.78,43.88l-19.66,1.11c-.52-3.82-.6-5.21-.7-6.9-.16-2.92-1.22-16.11-1.37-18.72-12.34,7.94-43.59,25-53.49,29.84l-9.26-16.58c8.15-5.7,29.91-18.79,31-19.47,2.84-1.55,15.55-8.43,18.24-10-10.57,1.06-21.63,1.68-27.47,2-.44-5.06-1.46-17.64-2.14-29.62-.43-7.53-.74-15.83-1.19-29.21l20.7-1.79c.58,4.74,1.35,10.25,2.09,23.31l18.06-2.25-.23-4.15c-1.84.1-13.8,1.24-14.72,1.29l-1.4-16.56c4.73-.88,8.7-1.57,15-2.23l-.41-7.22c-17.64,1.46-35.13,2.91-52.78,4.21l-1-18.13c17.61-1.92,35.39-3.69,53-5.46-.29-7.84-.29-13.24-.08-17.87l20.74-1.17m4.76,65.23,11.21-.63.39,12.31c-2.3.28-9.18,1.13-11,1.24l.11,4.62c5.5-.77,7.8-1.06,17.77-1.93l-.58-10.29c-.09-1.54-.23-9.54-.34-11.38a34.51,34.51,0,0,1-4.74.58c-1.83.26-11,1.09-13,1.2l.24,4.3M647.64,453c5-.75,13-1.51,18.06-2.25l-.28-4.92-18.09,1.64.31,5.53m35.11-91.82h-.23l-20.74,1.17A4,4,0,0,0,658,366.2c-.18,4.18-.19,8.74,0,14.44-16.21,1.62-32.94,3.31-49.33,5.09a4,4,0,0,0-3.56,4.2l1,18.13a4,4,0,0,0,4,3.77h.3l10.05-.76a4,4,0,0,0-.63,2.29c.44,13.06.76,21.6,1.19,29.3.8,14.12,2,28.19,2.14,29.74a4,4,0,0,0,4,3.65h.23c2.3-.13,5.37-.3,8.89-.53l-1.8,1-.27.16-2.56,1.57c-6.53,4-21.82,13.3-28.51,18a4,4,0,0,0-1.2,5.23L611.18,518a4,4,0,0,0,5.26,1.64c8.76-4.31,33.65-17.81,48.2-26.55l.18,2.34c.31,4.07.63,8.27.71,9.73.1,1.73.18,3.23.73,7.21a4,4,0,0,0,4,3.46h.23l19.66-1.11a4,4,0,0,0,3.77-3.92v-.51c.1-5.49.21-11.1-.1-23.21A296.22,296.22,0,0,0,742,510.22a4,4,0,0,0,5-1.88l8.9-17a4,4,0,0,0-1.33-5.19,77.5,77.5,0,0,0-10-5.72c-7-3.53-17.58-8.65-26-12.64,4.77-.53,6.59-.73,9.62-1a4,4,0,0,0,3.65-3.93c.09-6.79.08-9.75-.44-18.9-.31-5.45-1.53-23.18-3.47-39.5a4,4,0,0,0-1.82-2.9l14.08-1.4a4,4,0,0,0,3.6-4.21l-1-17.36a4,4,0,0,0-4-3.77h-.23c-23.12,1.31-27.7,1.56-50.33,3.24-.43-4.58-.93-8.58-1.57-13.4a4,4,0,0,0-4-3.47ZM647.6,408.89l2.37-.19-2.21.41-.16-.21Zm45.64,61.61.21,0-.19.35v-.33Z" transform="translate(-372.79 -313.82)"/><path class="cls-7" d="M775.67,488a2,2,0,0,1-.84-.19l-12.78-5.92a2,2,0,0,1-1.05-2.45c5.43-16.07,8.41-23.74,15.33-37.46a2,2,0,0,1,2.61-.92l8,3.61c-.12-.71-.54-3.35-.54-3.35a2,2,0,0,1,1.55-2.28l14.29-3.11a2,2,0,0,1,2.35,1.41l.16.57a2,2,0,0,1,.39-.16c18.11-5.52,30.28-8.79,50.1-13.48a2,2,0,0,1,2.4,1.47c2.14,8.77,2.68,11.22,5.43,24.32l5-1.09a2,2,0,0,1,2.38,1.53l2.9,13.29a2,2,0,0,1-1.47,2.37c-14.35,3.59-24.25,6-41,10-4.4,1.07-39.45,9.41-41.85,9.93a2,2,0,0,1-2.38-1.53L784,472.42c-1.58,3.71-3.5,7.9-6.52,14.42A2,2,0,0,1,775.67,488Zm13.85-29.91c-1.76,4.89-3,8.26-4.39,11.64l.13,0c.72-.24,1.3-.39,3.23-.9l3.4-.91C790.79,463.57,790.09,460.67,789.52,458.1Zm19.54-3.31c.64,2.81,1.22,5.54,1.73,8.13l.6-.15a62,62,0,0,1-1.38-8.21Zm32.69-8.93a2,2,0,0,1,.92,1.22c.8,3,1.43,5.6,1.8,7.4l.15,0c-1-3.83-1.44-6.77-1.77-8.91Zm-15.69,4.51a2,2,0,0,1,.09.25l.28.94c.2.68.41,1.38.62,2.09-.11-1-.2-2.06-.27-3.34,0,0,0-.09,0-.14ZM769,442a12.5,12.5,0,0,1-12.23-10c-1.12-5.14.84-11.86,10-13.87a10.67,10.67,0,0,1,2.27-.24,12.93,12.93,0,0,1,12.3,9.79,11.46,11.46,0,0,1-1.69,8.73,12.54,12.54,0,0,1-7.86,5.26A13.29,13.29,0,0,1,769,442Zm23.29-5a2,2,0,0,1-1.94-1.51c-2.92-11.53-5-20.33-6.8-28.52-2.17-10-3.8-18.45-4.58-22.62A2,2,0,0,1,780.5,382l15-3.26a2,2,0,0,1,2.36,1.45l.14.55a2,2,0,0,1,.69-.38c12.92-4,23.7-7.12,40.52-11.15a2,2,0,0,1,2.41,1.49l.06.27c1.58,6.76,3.22,13.74,4.75,20.76,2.43,11.14,4.13,20.09,5.14,25.43l.46,2.41a2,2,0,0,1-1.39,2.29C834,426.77,824,429.21,797.4,435.73l-4.66,1.14A2,2,0,0,1,792.27,436.93Zm13.83-22.17c9.26-2.67,15.2-4.2,23.63-6.33-1.06-4-1.8-7.08-2.37-9.69-.47-2.18-1-5-1.45-7.36-7.68,2.19-15.49,4.31-23.22,6.31a2,2,0,0,1-.5.06h0l.23.95,3.2-.81c5.43-1.38,11-2.81,16.72-4a2,2,0,0,1,2.38,1.53L827,406.12a2,2,0,0,1-1.3,2.32c-8.64,3-15.66,4.83-19.73,5.87Zm-37.48-3a13.3,13.3,0,0,1-12.57-10.17,12.37,12.37,0,0,1,.87-7.6c1.1-2.35,3.56-5.39,9-6.58a11.72,11.72,0,0,1,2.4-.23c2.35,0,10.18.67,12,9.22a12.51,12.51,0,0,1-9.21,15.08A12,12,0,0,1,768.62,411.8Z" transform="translate(-372.79 -313.82)"/><path class="cls-6" d="M839.63,371.12c1.63,7,3.26,13.91,4.81,21,2.85,13.07,4.71,23.22,5.59,27.79-17.54,5.21-28,7.73-57.76,15-3.36-13.31-5.31-21.7-6.78-28.46-2.22-10.19-3.88-18.88-4.57-22.56l15-3.26c3,11.42,4,16.41,5,20.48,7.15-1.79,14.39-3.72,21.81-5.33l2.34,10.74c-10.15,3.49-18.18,5.47-21.48,6.3.15.67.93,3.74,1,4.43,11.13-3.24,17.28-4.81,27.62-7.41-1.28-4.83-2.19-8.46-2.87-11.56-.6-2.77-1.34-6.67-1.83-9.46q-12.61,3.62-25.3,6.9l-2.94-13.51c13.8-4.28,24.51-7.31,40.39-11.12m-71.31,18.11c3.33,0,8.72,1.32,10.09,7.65a10.44,10.44,0,0,1-7.68,12.7,9.93,9.93,0,0,1-2.12.23A11.23,11.23,0,0,1,758,401.21c-.65-3-.19-9.94,8.34-11.8a9.66,9.66,0,0,1,2-.18m.75,30.66a10.87,10.87,0,0,1,10.35,8.21c1.09,5-2.16,10.33-8,11.61a11.28,11.28,0,0,1-2.4.26,10.48,10.48,0,0,1-10.28-8.41c-.89-4.1.43-9.72,8.52-11.49a8.66,8.66,0,0,1,1.84-.19m86.63,6.33c2.2,9,2.66,11.14,5.83,26.23l7-1.52,2.9,13.29c-14.3,3.58-24.11,5.95-41,10-4.74,1.15-39.49,9.41-41.81,9.92l-2.73-12.52c1.08-.35,1.86-.52,8.43-2.3-2.41-9.45-3.08-12.55-4.28-18.56-6.2,17.36-6.71,18.75-14.36,35.27l-12.78-5.92c5.29-15.66,8.25-23.38,15.22-37.2l11.45,5.16c-.59-3.24-.84-4.92-1.19-7.05l14.29-3.11c3,10.49,5.22,20.21,6.56,27.46l4.63-1.12a56.81,56.81,0,0,1-1.91-10.37l12.29-2.68a72.55,72.55,0,0,1,2.46,9.68c1.11-.24,1.3-.4,3.63-.91a43.52,43.52,0,0,1-1.55-9.76l12-2.61a92.79,92.79,0,0,1,2.14,9.28l4.21-.92a104.76,104.76,0,0,1-2.6-13c-11.86,3.63-23.9,6.95-35.9,9.91l-2.87-13.18c18.71-5.7,31.11-9,50-13.44m-16.06-59.09a4,4,0,0,0-.93.11c-16.47,3.95-27.16,7-39.71,10.9a4,4,0,0,0-4-1.39l-15,3.26a4,4,0,0,0-3.08,4.64c.16.87.4,2.11.69,3.65a15.14,15.14,0,0,0-9.37-3.07h0a13.58,13.58,0,0,0-2.83.27c-6.24,1.36-9.09,4.93-10.38,7.68a14.46,14.46,0,0,0-1,8.87,15.16,15.16,0,0,0,14.52,11.74,14,14,0,0,0,3-.32,14.18,14.18,0,0,0,8.72-6.06,14.36,14.36,0,0,0,.94-1.65l.34,1.55c1.79,8.22,3.89,17,6.81,28.59a4,4,0,0,0,.35.91l-1.23.27a4,4,0,0,0-3.14,4.24l-4.5-2a13.44,13.44,0,0,0,3.44-12,14.8,14.8,0,0,0-14.26-11.36h0a12.68,12.68,0,0,0-2.69.29c-6,1.31-8.88,4.41-10.24,6.78a13.26,13.26,0,0,0-1.33,9.47A14.49,14.49,0,0,0,769,444a15.31,15.31,0,0,0,3.25-.35q.61-.13,1.19-.31c-6.2,12.47-9.16,20.21-14.32,35.49a4,4,0,0,0,2.11,4.91L774,489.63a4,4,0,0,0,5.31-1.95c1.63-3.53,2.95-6.38,4.06-8.84l1.33,6.12a4,4,0,0,0,4.76,3.06c2.43-.53,37.5-8.88,41.9-9.94,16.77-4,26.67-6.39,41-10a4,4,0,0,0,2.94-4.73l-2.9-13.29a4,4,0,0,0-4.76-3.06l-3,.66c-2.41-11.42-3-14.07-5-22.41a4,4,0,0,0-4.81-2.95l-2,.47a4,4,0,0,0,1.15-3.64l-.46-2.4c-1-5.35-2.72-14.31-5.15-25.48-1.54-7.06-3.19-14.08-4.78-20.88l0-.18a4,4,0,0,0-3.89-3.09Zm-51.16,99.6.64-1.68.35,1.42-1,.27Z" transform="translate(-372.79 -313.82)"/><path class="cls-7" d="M959.3,510.42a2,2,0,0,1-1.33-.5,146.52,146.52,0,0,1-26.52-31c-.16,1.65-.34,3.46-.58,5.47-1.28,11.13-2.39,18.06-3.1,21.91a2,2,0,0,1-2,1.64h-.23a233.38,233.38,0,0,1-27.75-4.81,2,2,0,0,1-1.5-2.33l2.27-11.44a128.07,128.07,0,0,1-18.8,13.58,2,2,0,0,1-2.51-.38l-9.21-10.19a2,2,0,0,1,.19-2.87c5.84-4.94,10-8.33,14.45-11.82-2.91-.24-5.16-.53-8.69-1a2,2,0,0,1-1.72-2.21l1.57-13.63a2,2,0,0,1,2-1.77h0c9.07.18,21.39.6,37,2.32.12-.77.3-1.8.6-3.43a2,2,0,0,1,0-.21c-9.21-.76-18.56-1.61-27.82-2.56a2,2,0,0,1-1.79-2.11l0-.65c.25-4.28.76-13.19,2.11-24.89.91-7.88,2-15.4,3.27-22.35a2,2,0,0,1,2-1.64h.22l15.55,1.68a2,2,0,0,1,1.78,2.14l-.09,1.18a2,2,0,0,1,.58-.08h0c2.6,0,5.26.1,8.71.19a10.39,10.39,0,0,1-.72-5.13c.66-5.69,5.94-10,12.3-10a14.77,14.77,0,0,1,1.69.1c6.93.8,12,6.53,11.27,12.78a10.27,10.27,0,0,1-1,3.45c10.09.83,17.6,1.7,22.75,2.29a2,2,0,0,1,1.77,2.1c-.64,10.92-1.69,20.64-2.42,27-.95,8.2-1.72,13.34-2.24,16.74l-.15,1a2,2,0,0,1-2,1.7h-.09c-8.31-.36-17.22-.87-26.47-1.5a2,2,0,0,1,.11.81c-.1,1.55-.23,3.31-.42,6l6.48-4.94a2,2,0,0,1,2.73.29l7.69,9A10.67,10.67,0,0,1,960,461.84a12.49,12.49,0,0,1,1.43.08,12.84,12.84,0,0,1,11.22,14.15c-.61,5.29-4.77,8.84-10.34,8.84-.31,0-.62,0-.92,0,2.71,3.4,5.71,7.3,10.52,13.69a2,2,0,0,1-.36,2.78l-11,8.66A2,2,0,0,1,959.3,510.42Zm-57.92-23.6c3.5.32,5.33.52,8.38,1l.28-3c.25-2.61.5-5.26.76-7.76A122.54,122.54,0,0,1,901.38,486.82Zm41.72-45.09c.38-5.19.79-8.92,1.5-13.85-2.78-.11-5.81-.26-8.93-.44l.14.16a2,2,0,0,1,.42,1.47l-1.17,10.14a2,2,0,0,1-1.71,1.75Z" transform="translate(-372.79 -313.82)"/><path class="cls-6" d="M929.65,395.53a12.73,12.73,0,0,1,1.46.08c5.86.68,10.11,5.39,9.51,10.57a8.58,8.58,0,0,1-2.79,5.38c11.88.91,20.66,1.93,26.29,2.57-.59,10.09-1.54,19.34-2.41,26.88-1,9-1.89,14.39-2.38,17.64-22.37-1-48.39-3-73.43-5.5.23-4,.72-13.16,2.13-25.43,1.26-10.92,2.62-18.76,3.25-22.22l15.55,1.68c-.93,12-1.65,18.3-1.78,19.42,5.57.19,16.12.72,29.19,2.22L933.07,439c-7.5-.29-21.78-1.14-29.21-2-.07.56-.49,3.25-.55,3.82,16.42,1.09,22.42,1.56,41.64,3.09.51-7.36,1-11.53,2-17.92-11.37-.4-28.13-1.53-39.06-2.68l1.48-12.84c3.53.06,7.06.13,12.41.29a8.8,8.8,0,0,1-2.39-7c.54-4.66,4.9-8.2,10.32-8.2m-14.21,62.75,15.46,1.55c-.15,2.27-.35,5-.74,10.41l10-7.63c4.22,4.94,9.36,10.89,12.77,14.94a11,11,0,0,1-1.64-6.58,8.63,8.63,0,0,1,8.75-7.14,10.45,10.45,0,0,1,1.2.07,10.84,10.84,0,0,1,9.47,11.93c-.52,4.52-4.14,7.07-8.36,7.07a10.79,10.79,0,0,1-1.24-.07,10.45,10.45,0,0,1-6.19-2.77c4.71,5.68,7.7,9.45,15.42,19.69l-11,8.66A143.09,143.09,0,0,1,930,472.63c-.28,3.39-.57,6.9-1.1,11.51-1.34,11.6-2.47,18.43-3.08,21.78a229.68,229.68,0,0,1-27.52-4.77l2.45-12.38c4.52.41,6.21.6,10.8,1.36.67-6.77,1.31-14.34,2-19.62a123.61,123.61,0,0,1-34.81,30.68L869.56,491c7.84-6.63,12.61-10.41,18.5-15-6-.35-8.37-.62-13.77-1.36L875.87,461c8.31.16,21.51.54,38.74,2.53.14-1.24.23-2,.84-5.27m14.21-66.75c-7.38,0-13.52,5-14.29,11.74a12.27,12.27,0,0,0,.06,3.3l-4.65-.09a4,4,0,0,0-3.51-3.26l-15.55-1.68-.43,0a4,4,0,0,0-3.93,3.29c-1.27,7-2.37,14.56-3.28,22.48-1.36,11.75-1.87,20.7-2.12,25l0,.65a4,4,0,0,0,3.59,4.21l2.6.26c-4.55-.21-8.6-.31-12.15-.38h-.08a4,4,0,0,0-4,3.54l-1.57,13.63a4,4,0,0,0,3.43,4.42l3.88.51c-3.17,2.55-6.5,5.29-10.66,8.81a4,4,0,0,0-.39,5.74l9.21,10.19a4,4,0,0,0,5,.76,131.12,131.12,0,0,0,14.72-10.15l-1.17,5.9a4,4,0,0,0,3,4.67,235.34,235.34,0,0,0,28,4.85l.46,0a4,4,0,0,0,3.93-3.28c.71-3.88,1.83-10.85,3.12-22a148.94,148.94,0,0,0,23.79,26.78,4,4,0,0,0,5.12.15l11-8.66a4,4,0,0,0,.73-5.55c-3.5-4.65-6-8-8.21-10.76a11.74,11.74,0,0,0,9.36-10.29A14.85,14.85,0,0,0,963,460.15a4,4,0,0,0,.24-.89l.14-.95c.52-3.42,1.3-8.58,2.25-16.83.74-6.39,1.79-16.15,2.43-27.1a4,4,0,0,0-3.53-4.21c-4.72-.54-11.41-1.32-20.24-2.08a13.1,13.1,0,0,0,.25-1.45c.85-7.35-5-14.07-13-15a16.8,16.8,0,0,0-1.92-.11Zm7.42,47.72,1.11-9.67,4.13.2c-.45,3.35-.77,6.29-1.05,9.8l-4.19-.33Zm-2.29,22.44,0-.39.44,0-.47.36Zm13.89,4.72-1.36-1.59-2.47-2.89,7.44.41a12.77,12.77,0,0,0-3.6,4.07Zm-42.79,18.86q1.18-1.17,2.33-2.38l-.17,1.74-.09.9-2.08-.27Z" transform="translate(-372.79 -313.82)"/><path class="cls-8" d="M1051.91,519.73a2,2,0,0,1-.82-.18L1027,508.68a2,2,0,0,1-.91-2.82L1056,454l-85.68-4.4a2,2,0,0,1-1.89-2.1l1.23-23.87a2,2,0,0,1,2-1.9l111.5,5.73a13.48,13.48,0,0,1,11,20.13l-40.52,71.17A2,2,0,0,1,1051.91,519.73ZM977.47,415.48a2,2,0,0,1-1.89-2.1l1.2-23.44a2,2,0,0,1,2-1.9l93.13,4.78a2,2,0,0,1,1.89,2.1l-1.2,23.44a2,2,0,0,1-2,1.9Z" transform="translate(-372.79 -313.82)"/><path class="cls-6" d="M978.78,390l93,4.78-1.2,23.44-93-4.78,1.2-23.44m-7.13,33.64,111.4,5.72a11.48,11.48,0,0,1,9.38,17.14l-40.52,71.17-24.11-10.87,31.56-54.72-88.95-4.57,1.23-23.87M978.77,386a4,4,0,0,0-4,3.79l-1.2,23.44a4,4,0,0,0,3.79,4.2l93,4.78h.21a4,4,0,0,0,4-3.79l1.2-23.44a4,4,0,0,0-3.79-4.2l-93-4.78Zm-7.13,33.64a4,4,0,0,0-4,3.79l-1.23,23.87a4,4,0,0,0,3.79,4.2l82.42,4.23-28.3,49.06a4,4,0,0,0,1.82,5.65l24.11,10.87a4,4,0,0,0,5.12-1.67l40.52-71.17a15.48,15.48,0,0,0-12.66-23.11l-111.4-5.72Z" transform="translate(-372.79 -313.82)"/><path class="cls-8" d="M1181.59,524.14l-26.72-2.39a2,2,0,0,1-1.81-2.17l6.08-68-42.08,17.26a2,2,0,0,1-2.52-.9l-11.67-21.68a2,2,0,0,1,1-2.8l125.77-51.4a2,2,0,0,1,2.52.9l11.67,21.68a2,2,0,0,1-1,2.8l-70.6,28.83,16.19,1.45a2,2,0,0,1,1.81,2.17l-6.47,72.45a2,2,0,0,1-2,1.82Z" transform="translate(-372.79 -313.82)"/><path class="cls-6" d="M1230.41,393.9l11.67,21.68-78.22,31.94,24.39,2.18-6.48,72.45-26.71-2.39,6.37-71.29L1116.31,467l-11.67-21.68,125.77-51.4m0-4a4,4,0,0,0-1.51.3l-125.77,51.4a4,4,0,0,0-2,5.6l11.67,21.68a4,4,0,0,0,5,1.8l39-16-5.79,64.74a4,4,0,0,0,3.63,4.34l26.71,2.39.36,0a4,4,0,0,0,4-3.64l6.48-72.45a4,4,0,0,0-3.63-4.34l-8-.71,63-25.72a4,4,0,0,0,2-5.6L1233.93,392a4,4,0,0,0-3.52-2.1Z" transform="translate(-372.79 -313.82)"/><path class="cls-8" d="M1312.65,539.46a2,2,0,0,1-.82-.18l-24-10.85a2,2,0,0,1-.92-2.8l47.81-84.91-86-8.44a2,2,0,0,1-1.79-2.19l2.33-23.79a2,2,0,0,1,2-1.8h.2l110.46,10.84a13.48,13.48,0,0,1,10.43,20l-57.93,103.08A2,2,0,0,1,1312.65,539.46Z" transform="translate(-372.79 -313.82)"/><path class="cls-6" d="M1251.24,406.49l110.46,10.84a11.48,11.48,0,0,1,8.88,17l-57.93,103.08-24-10.85L1338,439l-89.07-8.74,2.34-23.79m0-4a4,4,0,0,0-4,3.61l-2.34,23.79a4,4,0,0,0,3.59,4.37l83,8.14-46.31,82.24a4,4,0,0,0,1.84,5.61l24,10.85a4,4,0,0,0,5.14-1.68l57.93-103.08a15.48,15.48,0,0,0-12-23l-110.46-10.84-.39,0Z" transform="translate(-372.79 -313.82)"/><path class="cls-9" d="M1416.39,542.55c-5.37-.27-8.92-.45-12.89-2-9.51-3.7-15.65-12.09-15.65-21.37,0-6.34,2.2-12.54,6.72-18.88a14,14,0,0,0-2.2-.19h-6.62a2,2,0,0,1-2-2V482h-15.32a2,2,0,0,1-2-2V465.69a2,2,0,0,1,2-2h15.32V458a2,2,0,0,1,2-2h16a2,2,0,0,1,2,2v5.66h41.09a2,2,0,0,1,2,2V480a2,2,0,0,1-2,2h-22.61a2,2,0,0,1,.17.27l7,12.88a2,2,0,0,1-.93,2.77c-2.67,1.21-4.22,2-5.68,2.73a40.84,40.84,0,0,1,6,18.4l0,.2a2,2,0,0,1-2,2.18h-14.54a2,2,0,0,1-2-1.87,19.85,19.85,0,0,0-2-7.4,11,11,0,0,0-1.35,5.35c0,5,2.28,6.61,9.37,6.79a2,2,0,0,1,1.95,2l.26,14.28a2,2,0,0,1-2,2Zm-12.61-58.67a29.41,29.41,0,0,1,5.87,2.93,95,95,0,0,1,9-4.84h-14.83Z" transform="translate(-372.79 -313.82)"/><path class="cls-6" d="M1401.78,458v7.66h43.09V480h-43.09v5.31a29.49,29.49,0,0,1,7.83,3.92,95,95,0,0,1,11.06-6l7,12.88a77.08,77.08,0,0,0-7.66,3.83,39.56,39.56,0,0,1,6.79,19.5h-14.54a23.62,23.62,0,0,0-3.74-11.06,13.75,13.75,0,0,0-3.57,9.14c0,7.14,4.61,8.62,11.32,8.79l.26,14.28c-5.22-.26-8.62-.43-12.27-1.83-9.4-3.66-14.36-11.58-14.36-19.5,0-7.4,3.22-13.93,8.1-20a15.79,15.79,0,0,0-5.57-1h-6.62V480h-17.32V465.69h17.32V458h16m0-4h-16a4,4,0,0,0-4,4v3.66h-13.32a4,4,0,0,0-4,4V480a4,4,0,0,0,4,4h13.32v14.19a4,4,0,0,0,4,4H1391a32.41,32.41,0,0,0-5.13,17.07c0,10.11,6.64,19.23,16.91,23.23,4.29,1.63,8.16,1.83,13.52,2.09h.2a4,4,0,0,0,4-4.07l-.26-14.28a4,4,0,0,0-1.22-2.8h7.75a4,4,0,0,0,4-4.35l0-.2a42.16,42.16,0,0,0-5.18-17.39c1-.48,2.16-1,3.74-1.75a4,4,0,0,0,1.86-5.54l-5.51-10.2h19.23a4,4,0,0,0,4-4V465.69a4,4,0,0,0-4-4h-39.09V458a4,4,0,0,0-4-4Zm7,29.94h1.7l-.84.49-.86-.49Z" transform="translate(-372.79 -313.82)"/><path class="cls-10" d="M569.75,686.51c-27,0-34.35-14.78-40.52-47.89l-1.08-5.79a2,2,0,0,1,1.6-2.33l31-5.77a2,2,0,0,1,2.31,1.49c.37,1.49,1.1,5.4,1.87,9.53.72,3.87,1.47,7.88,1.79,9.16,1.48,6.3,4.3,8.52,10.76,8.52h0a69,69,0,0,0,12.13-1.47c20.46-3.81,26-4.83,23.13-20.07L595.9,541.45a2,2,0,0,1,1.6-2.33l30.82-5.74a2,2,0,0,1,.37,0,2,2,0,0,1,2,1.63l16.93,90.94c3.62,19.44.42,33.36-9.79,42.56-8.65,7.8-21,11.36-36.81,14.31-13.79,2.57-23.42,3.71-31.23,3.71Z" transform="translate(-372.79 -313.82)"/><path class="cls-6" d="M628.69,535.34l16.93,90.94c7.64,41-17.07,49.34-45,54.54-12.58,2.34-22.67,3.68-30.86,3.68-24.87,0-32.24-12.31-38.56-46.26l-1.08-5.79,31-5.77c.71,2.86,3,16,3.66,18.7,1.73,7.38,5.47,10,12.7,10A71.74,71.74,0,0,0,590,653.91c20.1-3.74,27.93-5.2,24.73-22.4l-16.83-90.43,30.82-5.74m0-4a4,4,0,0,0-.73.07l-30.82,5.74a4,4,0,0,0-3.2,4.66l16.83,90.43c1.63,8.75-.21,10.93-2.06,12.29-3.33,2.44-10.1,3.7-19.47,5.45a67.25,67.25,0,0,1-11.76,1.44c-5.57,0-7.54-1.56-8.81-6.95v-.06c-.31-1.23-1.08-5.38-1.76-9-.78-4.16-1.51-8.1-1.89-9.64a4,4,0,0,0-4.61-3l-31,5.77a4,4,0,0,0-3.2,4.66l1.08,5.79c6.25,33.56,14.2,49.53,42.49,49.53,7.93,0,17.68-1.16,31.6-3.75,16.17-3,28.78-6.68,37.78-14.79,10.76-9.7,14.17-24.23,10.41-44.42l-16.93-90.94a4,4,0,0,0-3.93-3.27Z" transform="translate(-372.79 -313.82)"/><path class="cls-10" d="M786.79,682.12l-39.71-3.2a2,2,0,0,1-1.49-.87L698.74,609.2l-5.1,63.41a2,2,0,0,1-2,1.84h-.16L660.57,672a2,2,0,0,1-1.83-2.15l10.95-136.06a2,2,0,0,1,2-1.84h.16l30.91,2.49a2,2,0,0,1,1.83,2.15l-4.75,59.08,55.2-56.3a2,2,0,0,1,1.43-.6h.16l39,3.14a2,2,0,0,1,1.24,3.42l-61.39,60L788.58,679a2,2,0,0,1-1.62,3.17Z" transform="translate(-372.79 -313.82)"/><path class="cls-6" d="M671.68,533.9l30.91,2.49L697.39,601l59.07-60.24,39,3.14L732.87,605,787,680.12l-39.71-3.2-50-73.54-5.56,69.07L660.73,670,671.68,533.9m0-4a4,4,0,0,0-4,3.68L656.75,669.65a4,4,0,0,0,3.67,4.31l30.91,2.49h.32a4,4,0,0,0,4-3.68L700.28,615l43.66,64.16a4,4,0,0,0,3,1.74l39.71,3.2H787a4,4,0,0,0,3.24-6.34L738.12,605.5l60.16-58.77a4,4,0,0,0-2.47-6.85l-39-3.14h-.32a4,4,0,0,0-2.86,1.2l-51.34,52.36,4.31-53.57a4,4,0,0,0-3.67-4.31L672,529.92Z" transform="translate(-372.79 -313.82)"/><path class="cls-9" d="M832.44,658.43c-6.59-.2-11-.64-15.7-2.36-10.83-4-17.83-13.54-17.83-24.23A37.54,37.54,0,0,1,804.4,613l-2.65.47a2,2,0,0,1-.35,0,2,2,0,0,1-1.95-1.55l-10.3-44.9a2,2,0,0,1,1.6-2.42l18-3.21a2,2,0,0,1,.35,0A2,2,0,0,1,811,563l7.62,33.41c5.12-4.22,9.34-6.59,17.5-10.83a2,2,0,0,1,2.65.76l8.55,14.48a2,2,0,0,1-.81,2.8c-22,11.2-25.25,22.45-25.25,28.15,0,5.08,4.38,6.22,11,6.36a2,2,0,0,1,2,2l.29,16.33a2,2,0,0,1-2,2Z" transform="translate(-372.79 -313.82)"/><path class="cls-6" d="M809.08,563.42l8.36,36.64c6.12-5.44,10.11-7.78,19.63-12.73l8.55,14.48c-24,12.24-26.34,24.78-26.34,29.93,0,7.87,8.36,8.26,12.93,8.36l.29,16.33c-6.32-.19-10.59-.58-15.06-2.24-11-4.08-16.52-13.41-16.52-22.35,0-10.11,5.15-17.88,7.58-21.57l-7.09,1.26-10.3-44.9,18-3.21m0-4a4,4,0,0,0-.71.06l-18,3.21a4,4,0,0,0-3.2,4.83l10.3,44.9a4,4,0,0,0,3.33,3.07,37.63,37.63,0,0,0-3.92,16.35c0,11.54,7.51,21.78,19.13,26.1,4.92,1.82,9.53,2.28,16.33,2.48h.12a4,4,0,0,0,4-4.07L836.21,640a4,4,0,0,0-3.91-3.93c-8.32-.18-9-2.16-9-4.36,0-5.25,3.14-15.65,24.15-26.37a4,4,0,0,0,1.63-5.6l-8.55-14.48a4,4,0,0,0-5.29-1.51c-6.8,3.54-11,5.87-15.32,9.08L813,562.53a4,4,0,0,0-3.9-3.11Z" transform="translate(-372.79 -313.82)"/><path class="cls-11" d="M873.16,676.78a2,2,0,0,1-1.81-1.16l-8-17.29a2,2,0,0,1,.93-2.64c12.35-6.08,25.3-11.82,38.62-17.09-8.19.14-19.17.31-31.17.4h0a2,2,0,0,1-2-2l.18-18.71a2,2,0,0,1,1.92-2c16.43-.66,20.06-.79,52.47-1.75,0-.36,0-.72.08-1.12.07-1,.16-2.22.26-4.32q-4.29,0-8.69,0c-4.36,0-8.74,0-13.2-.07a2,2,0,0,1-2-1.93c-.19-5.25-.3-8.67-.34-11.71A217.87,217.87,0,0,1,864.54,615a2,2,0,0,1-2.58-.92l-8.52-16.63a2,2,0,0,1,.67-2.58,253.09,253.09,0,0,1,39.61-21.67,2,2,0,0,1,2.59.91l3.91,7.59c.07-14,.64-28.77,1.71-45a2,2,0,0,1,2-1.87l20.9.21a2,2,0,0,1,2,1.95c0,1.37.08,3.85.11,6.85l0-3.6a2,2,0,0,1,1.82-2c2.31-.21,4.53-.39,6.68-.56a17.36,17.36,0,0,1-6.18-3.35,14.31,14.31,0,0,1-5.16-11.2c.08-8.38,7.1-14.71,16.32-14.71h.2a16.06,16.06,0,0,1,16,16,13.61,13.61,0,0,1-8,12.39c8.5-.4,16.27-.52,24.73-.53h0a2,2,0,0,1,2,2c0,1.27,0,4.76,0,8.18,0,1.29,0,2.57,0,3.73a174.86,174.86,0,0,1,26.63-15.57l.74-.36a2,2,0,0,1,2.65.88l8.2,15.79a2,2,0,0,1-.58,2.52,194.23,194.23,0,0,1-31.25,18.94,2,2,0,0,1-2.63-.84l-3.87-7.07c-.06,5.68-.13,11.24-.25,16.81l7.31-8.93a2,2,0,0,1,2.64-.41,240.49,240.49,0,0,1,31.1,24.07,2,2,0,0,1,.21,2.73l-11.5,14.26a2,2,0,0,1-2.67.41,328.87,328.87,0,0,1-27.51-20.2c-.13,5.05-.24,7.64-.31,9.32,0,1.23-.08,2-.09,2.91a2,2,0,0,1-1.89,2c-7.53.41-14.74.74-21.87,1a2,2,0,0,1,.16.74l0,1.3c0,1.65.07,2.56.1,3.24l13.23-.23c13.17-.23,19.78-.35,36.69-.56h0a2,2,0,0,1,2,2l-.19,19a2,2,0,0,1-1.82,2l-1.67.15h-.12c-11.23.33-18,.55-22.94.7l-5.68.18a338.5,338.5,0,0,1,36.2,18.19,2,2,0,0,1,.75,2.69l-9.36,17.12a2,2,0,0,1-2.52.89A298.8,298.8,0,0,1,951,653.1c-.16,5.61-.42,11.25-.94,19.53a2,2,0,0,1-2,1.88l-22.41-.22a2,2,0,0,1-2-2c0-1.51-.07-3.16-.11-4.87-.09-3.64-.19-7.65-.2-11.4-7.26,3.38-26.53,12.1-49.48,20.6A2,2,0,0,1,873.16,676.78Zm78.06-39.23c0,2.82-.05,5.33-.09,7.67l4.94-7.77Zm-24.38-51.93c8-.4,16.72-.64,23.16-.64h0c-.1-3.43-.19-6.89-.13-12.22,0-4.48.19-8.08.37-11.72-8.62.48-14.2.57-21.44.64h0a2,2,0,0,1-1.41-.59,2,2,0,0,1-.31-.41c0,1.35,0,2.61,0,3.71,3.56-.14,10.24-.31,18.2-.37h0a2,2,0,0,1,2,2l-.15,15.2a2,2,0,0,1-1.85,2c-7.34.54-12.69.81-18.39.94ZM879,570.9a19.57,19.57,0,0,1-12.12-4.43,15.24,15.24,0,0,1,9.77-27.16h.16a19.54,19.54,0,0,1,10.71,3.94A15.38,15.38,0,0,1,894,556c-.07,7.22-5.3,14.89-14.84,14.89Z" transform="translate(-372.79 -313.82)"/><path class="cls-6" d="M940.44,510.52h.18a14,14,0,0,1,14.07,14c-.07,7.29-6,12.06-13.64,12.06h-.18c-7.69-.08-14.82-5.33-14.74-13.35.07-7.13,6.05-12.72,14.32-12.72m63.26,25.69,8.2,15.79A191.64,191.64,0,0,1,981,570.74L973.41,557c-.1,10.19-.2,20.22-.46,30.24l11-13.43a237.45,237.45,0,0,1,30.84,23.87l-11.5,14.26a325,325,0,0,1-30.52-22.69c-.29,12.53-.47,13.86-.5,16.37-20.74,1.14-38.32,1.55-56.34,1.55-4.35,0-8.73,0-13.19-.07-.26-7.36-.39-11.2-.35-15.38-16.82,11.36-27.74,16.77-38.65,21.51l-8.52-16.63a250,250,0,0,1,39.31-21.5L902.23,590c-.16-17.55.52-35.42,1.69-53.12l20.88.21c.12,4.51.28,22.73.21,29.41,2.17-.15,10.2-.4,20.22-.47l-.15,15.2c-8,.59-13.71.87-20.23,1l-.05,5.51c9.44-.51,18.88-.74,25.18-.74h2.06c-.13-4.18-.26-7.86-.19-14.21.05-5.35.26-9.52.47-13.86-9.53.57-15.21.69-23.57.77l.19-19.38c16.89-1.5,29.26-1.88,44.47-1.9,0,2.51,0,13.54,0,15.88a172.57,172.57,0,0,1,30.26-18.08m-30.27,2.21h0m-96.76,2.89h.14c5,0,15.33,4.5,15.23,14.69-.06,5.65-4.09,12.91-12.84,12.91H879c-7.69-.08-16-5.67-15.9-14.53a13.41,13.41,0,0,1,13.52-13.07M945.25,566h0m-18.64,43.09,22.06.22c.12,4.51.12,4.85.27,6.52,24.73-.42,29.42-.55,51.81-.83l-.19,19-1.67.15c-25.41.75-28.08.89-37.94,1.13A342.59,342.59,0,0,1,1005.51,657l-9.36,17.12a300.64,300.64,0,0,1-45.88-23.85l9.5-14.94-10.53.23c-.15,14.87-.21,21.05-1.2,36.92l-22.39-.22c-.11-5.68-.37-13.2-.31-19.39-8.23,3.93-28.87,13.25-52.18,21.88l-8-17.29a528,528,0,0,1,49-21.07c-7,.1-23.4.44-42.45.58l.18-18.71c16.72-.67,20.39-.8,54.32-1.8,0-2.17.2-2.84.41-7.35m74.13,5.91h0M940.44,506.52h0c-10.35,0-18.22,7.17-18.32,16.68a16.24,16.24,0,0,0,3.25,9.93,4,4,0,0,0-.51,0L904,532.89h0a4,4,0,0,0-4,3.73c-.88,13.17-1.41,25.42-1.63,37l-.23-.44a4,4,0,0,0-5.18-1.82A255,255,0,0,0,853,593.24a4,4,0,0,0-1.34,5.15L860.18,615a4,4,0,0,0,5.15,1.84c1.47-.64,2.94-1.29,4.41-2a4,4,0,0,0-1.87,3.34L867.69,637a4,4,0,0,0,4,4h0c7.36-.06,14.35-.14,20.53-.23-9.91,4.15-19.57,8.54-28.88,13.13a4,4,0,0,0-1.86,5.27l8,17.29a4,4,0,0,0,5,2.07c20.49-7.58,38.07-15.36,46.82-19.36,0,2.82.11,5.68.17,8.35,0,1.71.08,3.35.11,4.85a4,4,0,0,0,4,3.92l22.39.22h0a4,4,0,0,0,4-3.75c.41-6.62.67-11.57.83-16.15a298.1,298.1,0,0,0,41.75,21.24,4,4,0,0,0,5-1.78L1009,659a4,4,0,0,0-1.5-5.37c-9-5.22-18.46-10.15-28.42-14.73l19.9-.6h.24l1.67-.15a4,4,0,0,0,3.64-3.94l.18-18.51a4,4,0,0,0,1.66-1.21l11.5-14.26a4,4,0,0,0-.41-5.46,242.52,242.52,0,0,0-29.48-23,192.92,192.92,0,0,0,26.28-16.47,4,4,0,0,0,1.15-5l-8.2-15.79a4,4,0,0,0-5.3-1.75l-.74.36a179.79,179.79,0,0,0-23.77,13.54c0-3.24,0-6.57,0-7.92q0-.09,0-.18a4,4,0,0,0-4-4h0c-6.34,0-12.3.07-18.46.27a15.55,15.55,0,0,0,3.72-10.12,17.63,17.63,0,0,0-5.15-12.65,18.22,18.22,0,0,0-12.87-5.4Zm7.6,56.65h.1v.1l-.09-.09Zm29.15,12.54q0-1.72.05-3.44l.22.39a4,4,0,0,0,1.15,1.31l-1.42,1.73ZM952.7,610.48c6.45-.24,13-.54,19.79-.91a4,4,0,0,0,3.78-4c0-.88,0-1.62.09-2.84s.11-2.76.19-5.31c6.63,5.29,12.5,9.57,18.45,13.66-13,.17-19.74.29-30.94.49l-11.32.2,0-1.27v-.05Zm-82,4a216.36,216.36,0,0,0,27.76-15.39c.06,2.23.15,4.82.27,8.14a4,4,0,0,0,4,3.86c4.66,0,9,.07,13.23.07l6.58,0c0,.57-.07,1.06-.1,1.48-30.74.91-34.54,1-50.69,1.7a4,4,0,0,0-1,.17Zm6-77.16h0a17.42,17.42,0,0,0-17.52,17C859,565.68,869.37,572.8,879,572.9h.2C890,572.9,896,564.21,896,556a17.46,17.46,0,0,0-7.3-14.39,21.35,21.35,0,0,0-11.89-4.34Z" transform="translate(-372.79 -313.82)"/><path class="cls-11" d="M1086.91,677.42c-12.34,0-42.26-4.66-53.46-47.8-3.23-12.66-4.19-24.31-4.89-35.16a2,2,0,0,1,1.93-2.13l22.54-.73a2,2,0,0,1,2,1.87c1.18,18,3.92,59.82,32.57,59.82l1,0c16.44-.53,28.26-11.24,32.14-14.76l.19-.17a2,2,0,0,1,2.52-.13l17.4,12.72A2,2,0,0,1,1141,654c-5.89,5.56-23.78,22.45-52.63,23.38Zm-57-86.81a2,2,0,0,1-2-1.95l-.53-20.09a2,2,0,0,1,1.95-2.05l22.65-.61a2,2,0,0,1,2,1.95l.52,20a2,2,0,0,1-1.93,2.05Z" transform="translate(-372.79 -313.82)"/><path class="cls-6" d="M1052,567.91l.52,20-22.59.73-.53-20.09,22.6-.61m1.07,25.69c1.17,17.83,4,61.69,34.56,61.69l1.05,0c17.45-.56,29.77-12,33.61-15.44l17.4,12.72c-6,5.7-23.23,21.93-51.32,22.84l-1.42,0c-11.66,0-40.66-4.45-51.53-46.3-3.15-12.34-4.12-23.8-4.83-34.79l22.47-.73M1052,563.91h-.11l-22.6.61a4,4,0,0,0-3.89,4.1l.53,20.09a4,4,0,0,0,1.25,2.8l.32.27a4,4,0,0,0-.9,2.8c.71,10.95,1.68,22.7,4.95,35.52,5,19.12,14.12,33,27.21,41.24a53.68,53.68,0,0,0,28.19,8.07l1.55,0c29.6-1,47.91-18.24,53.93-23.92a4,4,0,0,0-.38-6.14l-17.4-12.72a4,4,0,0,0-5,.26l-.19.17c-3.75,3.4-15.15,13.73-30.86,14.24l-.92,0c-23.73,0-28.8-30.93-30.57-57.88v-.08a3.82,3.82,0,0,1-.54-5.57l-.52-20a4,4,0,0,0-4-3.9Z" transform="translate(-372.79 -313.82)"/><path class="cls-11" d="M1192.33,674.73c-6.91,0-41.15-1.87-46.49-38.4A16.49,16.49,0,0,1,1132,619.86c0-9,7-18.74,18.38-18.74a16,16,0,0,1,7.81,1.91v-8.67h-24.07a2,2,0,0,1-2-2V572.74a2,2,0,0,1,2-2h24.07V561a2,2,0,0,1,2-2h22a2,2,0,0,1,2,2v9.72h49.91a2,2,0,0,1,2,2v19.62a2,2,0,0,1-2,2h-49.91v9.36c0,15.71-8.5,23.27-12.86,26.76.28,4.54,1,8.17,3.13,11.81,3.19,5.54,9.79,8.83,17.66,8.83,16.49,0,25.18-10.67,30.38-17l.13-.16a2,2,0,0,1,2.62-.43l17.94,11.36a2,2,0,0,1,.49,2.94c-5.76,7.21-10,11.69-16.85,16.21C1220.74,668,1208.21,674.73,1192.33,674.73Zm21.53-44.61a2,2,0,0,1-1.42-.59l-16.62-16.74a2,2,0,0,1,0-2.83l14.35-14.23a2,2,0,0,1,2.83,0l16.62,16.75a2,2,0,0,1,0,2.83l-14.35,14.23A2,2,0,0,1,1213.85,630.12Z" transform="translate(-372.79 -313.82)"/><path class="cls-6" d="M1182.16,561v11.72h51.91v19.62h-51.91v11.36c0,15.79-9,22.72-12.92,25.83.24,4.9.84,9.33,3.47,13.75,3.59,6.22,11,9.81,19.37,9.81,17.58,0,26.79-11.48,32.05-17.94l17.94,11.36c-5.26,6.58-9.45,11.24-16.38,15.79-8.49,5.62-20.33,10.41-33.37,10.41-6.1,0-40.43-1.67-44.73-38.39a4.8,4.8,0,0,1-.74.05c-4.21,0-12.9-4.51-12.9-14.52,0-8,6.34-16.74,16.38-16.74a14.63,14.63,0,0,1,9.57,3.47,19.77,19.77,0,0,0,.24-2.87V592.36h-26.07V572.74h26.07V561h22m29.42,36.12,16.62,16.74-14.35,14.23-16.62-16.74,14.35-14.23M1182.16,557h-22a4,4,0,0,0-4,4v7.72h-22.07a4,4,0,0,0-4,4v19.62a4,4,0,0,0,4,4h22.07V600a18.69,18.69,0,0,0-5.81-.89c-12.59,0-20.38,10.77-20.38,20.74a18.49,18.49,0,0,0,14.13,18.21c2.6,15,10.64,26.34,23.38,32.8a58.08,58.08,0,0,0,24.85,5.86c16.41,0,29.33-6.94,35.58-11.07,7.07-4.63,11.53-9.42,17.3-16.62a4,4,0,0,0-1-5.88l-17.94-11.36a4,4,0,0,0-5.24.85l-.13.16c-5,6.1-13.29,16.31-28.82,16.31-7,0-13.13-3-15.91-7.81l0,0a21.71,21.71,0,0,1-2.78-9.89c4.77-3.94,12.8-11.93,12.8-27.66v-7.36h20.53l-12.28,12.18a4,4,0,0,0,0,5.66L1211,630.94a4,4,0,0,0,5.66,0L1231,616.72a4,4,0,0,0,0-5.66l-14.6-14.71h17.63a4,4,0,0,0,4-4V572.74a4,4,0,0,0-4-4h-47.91V561a4,4,0,0,0-4-4Z" transform="translate(-372.79 -313.82)"/><path class="cls-9" d="M1302,666.59a2,2,0,0,1-2-2c0-1.5,0-2.56-.06-4.21s-.09-4-.15-8c-8.24.28-10.27.28-13.76.28a2,2,0,0,1-2-2l.18-11.26c-8,7.56-16.4,15.26-21.11,18.81a2,2,0,0,1-2.64-.21l-10.29-10.65a2,2,0,0,1,0-2.77c17.26-18.22,33-32.68,49.52-47.92v-.31c-22.78,1-25.58,1.09-37.79,1.09a2,2,0,0,1-2-2l-.23-15a2,2,0,0,1,1.86-2l3.29-.23c26.08-1.78,30.63-2.09,35.08-2.3,0-2.08.07-5.15.11-8.14.06-3.9.11-7.68.11-9v-2.84a2,2,0,0,1,2-2h16a2,2,0,0,1,2,2c0,1.27,0,2.16.06,3.52,0,1.67.11,4,.17,8.63l.09,7.23c7.77-.1,19.41-.33,34.65-.68h5.84a2,2,0,0,1,2,2l.12,14.2a2,2,0,0,1-1.87,2l-12.66.86c-10.08.69-14.94,1-27.68,1.75,0,2.66.15,7,.23,10.47,0,1.24.06,2.34.07,3.17l5.1-5.32a2,2,0,0,1,2.64-.22c17.17,12.81,32.69,28.16,42,37.33a2,2,0,0,1,.05,2.79l-10.29,11a2,2,0,0,1-2.63.26c-4.74-3.39-13.29-10.65-21.62-18.09l.18,11.35a2,2,0,0,1-1.84,2l-.79.06c-2.33.19-4.2.34-13.12.89l0,2c-.08,8-.09,9.25-.2,11.55a2,2,0,0,1-2,1.91Zm-2.47-42c-2.37,2.33-5.48,5.37-8.94,8.69,1.83-.13,4.52-.31,8.94-.58Zm21.46-2c0,5.08-.06,7.26-.07,8.88,4.19-.16,7-.23,9.22-.25C1326.73,628,1323.58,625.07,1321,622.51Z" transform="translate(-372.79 -313.82)"/><path class="cls-6" d="M1318.06,555.87c0,2.84.12,3.79.24,12.18l.12,9.23c10.17-.12,26.38-.47,36.67-.71h5.8l.12,14.2c-21.06,1.42-23.43,1.66-42.23,2.72,0,2.72.35,16.21.35,17V614l8.52-8.87c16.8,12.54,31.7,27.21,41.76,37.14l-10.29,11c-8.75-6.27-31.23-26.38-40.1-35.49-.12,11.71-.12,13-.12,15.73,8.52-.35,11.83-.35,15.38-.35l.24,15c-3,.24-4.14.35-15.73,1.06-.12,11.48-.12,12.78-.24,15.38H1302c0-3.31-.12-4.5-.24-14.31-9.94.35-11.95.35-15.73.35l.24-15c2.49-.24,3.79-.35,15.26-1.06V619.75c-5,5-30,29.57-39.63,36.79l-10.29-10.65c17-18,32.41-32.18,50-48.38l.12-3.31c-24.61,1.07-27.33,1.18-39.87,1.18l-.24-15c32.89-2.25,34.54-2.37,40.22-2.6,0-3.08.24-16.33.24-19v-2.84h16m0-4h-16a4,4,0,0,0-4,4v2.84c0,1.29-.06,5.19-.11,9,0,2.19-.06,4.41-.09,6.26-4.23.22-10.7.67-33.26,2.21l-3.27.22a4,4,0,0,0-3.73,4.05l.24,15a4,4,0,0,0,4,3.94c11.27,0,14.55-.09,32.76-.87-15.26,14-29.92,27.71-46,44.64a4,4,0,0,0,0,5.53L1259,659.32a4,4,0,0,0,5.28.42c4.08-3.08,10.9-9.22,17.83-15.71l-.1,6.53a4,4,0,0,0,4,4.06c3.2,0,5.19,0,11.79-.22,0,2.81.09,4.6.12,6,0,1.67.06,2.68.06,4.16a4,4,0,0,0,4,4h16.56a4,4,0,0,0,4-3.82c.11-2.34.12-3.57.2-11.58V653c7.36-.46,9.13-.6,11.3-.78l.79-.06a4,4,0,0,0,3.68-4.05l-.11-6.81c7.25,6.38,14.25,12.25,18.38,15.21A4,4,0,0,0,1362,656l10.29-11a4,4,0,0,0-.11-5.58c-9.31-9.2-24.9-24.61-42.18-37.51a4,4,0,0,0-5.28.44l-1.78,1.85c-.05-2.25-.11-4.8-.15-6.9,11.34-.65,16.2-1,25.75-1.64l12.69-.86a4,4,0,0,0,3.73-4l-.12-14.2a4,4,0,0,0-4-4H1355c-14,.32-24.9.54-32.63.66l-.07-5.23c-.06-4.6-.13-6.95-.17-8.66,0-1.4-.06-2.24-.06-3.48a4,4,0,0,0-4-4Zm4.84,77.45c0-.61,0-1.31,0-2.16l2.21,2.08-2.23.07Zm-27,1.57,1.63-1.58v1.48l-1.63.1Z" transform="translate(-372.79 -313.82)"/></svg>