<svg id="レイヤー_1" data-name="レイヤー 1" xmlns="http://www.w3.org/2000/svg" viewBox="0 0 148.29 101.57"><defs><style>.cls-1,.cls-2{fill:#f39f5d;}.cls-2{stroke:#f39f5d;stroke-miterlimit:10;}</style></defs><title>onsen-life-logo</title><path class="cls-1" d="M984.55,523.39c7.83,1.85,13,7.13,13,14.52,0,12.14-15.75,21.65-37.14,21.65-21.56,0-37.13-9.59-37.13-21.65,0-7.39,5.19-12.67,13-14.52l1.58,2.2c-5.37,1.76-9,5.28-9,10.38,0,9.42,13.64,16.46,31.5,16.46s31.5-7,31.5-16.46c0-5.1-3.61-8.62-9-10.38Zm-44.09,16.54c4-3.26,5.54-7,5.54-10.3s-1.58-7.57-4-11.7-3.61-8.45-3.61-11.53c0-5.28,1.41-10.47,8.18-14.78l2.38,1.5c-4,3.26-5.54,7-5.54,10.3s1.58,7.48,4,11.7,3.61,8.45,3.61,11.44c0,5.9-1.58,10.74-8.18,14.87Zm14.7,3.61c4.14-3.78,6.07-8.27,6.07-12.23s-1.5-8.45-3.87-13.2-3.87-9.5-3.87-12.94c0-6.07,1.67-12.14,8.8-17l2.55,1.41c-4.14,3.7-6.07,8.18-6.07,12.14s1.5,8.45,3.87,13.2,3.87,9.5,3.87,13c0,6.69-2.11,12.32-8.8,16.9Zm16.19-3.61c4-3.26,5.46-7,5.46-10.3s-1.5-7.57-4-11.7-3.61-8.45-3.61-11.53c0-5.28,1.41-10.47,8.27-14.78L979.8,493c-4,3.26-5.54,7-5.54,10.38s1.58,7.48,4,11.7a24,24,0,0,1,3.61,11.44c0,5.9-1.58,10.74-8.18,14.87Z" transform="translate(-885.78 -488.19)"/><path class="cls-1" d="M887.59,578.07V577a2.36,2.36,0,0,1,.67-1.9,2.49,2.49,0,0,1,1.66-.56,4.37,4.37,0,0,1,1.29.16.53.53,0,0,1,.41.54.65.65,0,0,1-.06.29.58.58,0,0,1-.57.45.93.93,0,0,1-.25-.06,2.12,2.12,0,0,0-.82-.15q-1,0-1,1.38v.92h1.8q.56,0,.56.62a.5.5,0,0,1-.56.57h-1.8v6.61q0,.6-.67.6t-.67-.6v-6.61h-1.27q-.54,0-.54-.57t.54-.62Z" transform="translate(-885.78 -488.19)"/><path class="cls-1" d="M896.07,577.87a3.49,3.49,0,0,1,2.8,1.18,4.68,4.68,0,0,1,1,3.16,4.84,4.84,0,0,1-1,3.2,3.4,3.4,0,0,1-2.76,1.22,3.6,3.6,0,0,1-2.87-1.2,4.75,4.75,0,0,1-1-3.22,4.61,4.61,0,0,1,1-3.15A3.58,3.58,0,0,1,896.07,577.87Zm0,1.14a2.24,2.24,0,0,0-1.87.87,4.52,4.52,0,0,0,0,4.71,2.11,2.11,0,0,0,1.79.88,2.15,2.15,0,0,0,1.85-.88,4,4,0,0,0,.64-2.4,3.86,3.86,0,0,0-.63-2.31A2,2,0,0,0,896.12,579Z" transform="translate(-885.78 -488.19)"/><path class="cls-1" d="M901.83,585.87v-7.29q0-.59.7-.59a.74.74,0,0,1,.48.15.52.52,0,0,1,.19.43v.32l-.09.7a2.52,2.52,0,0,1,.81-1.14,2.36,2.36,0,0,1,1.49-.54h.32a2.86,2.86,0,0,1,.6.07.49.49,0,0,1,.48.54,1.76,1.76,0,0,1,0,.25.81.81,0,0,1-.2.42.5.5,0,0,1-.39.17h-.13a3.48,3.48,0,0,0-.72-.09,1.92,1.92,0,0,0-1.52.82,2.63,2.63,0,0,0-.63,1.67v4.13q0,.6-.67.6T901.83,585.87Z" transform="translate(-885.78 -488.19)"/><path class="cls-2" d="M918.06,574.47a4.74,4.74,0,0,1,3.81,1.65,7.68,7.68,0,0,1,0,8.86,4.74,4.74,0,0,1-3.81,1.65,4.8,4.8,0,0,1-3.83-1.66,7.59,7.59,0,0,1,0-8.85A4.8,4.8,0,0,1,918.06,574.47Zm0,1.29a3.3,3.3,0,0,0-2.75,1.3,5.54,5.54,0,0,0-1,3.49,5.45,5.45,0,0,0,1,3.47,3.32,3.32,0,0,0,2.75,1.29,3.27,3.27,0,0,0,2.75-1.29,5.72,5.72,0,0,0,1-3.56,5.37,5.37,0,0,0-1-3.42A3.29,3.29,0,0,0,918.06,575.76Z" transform="translate(-885.78 -488.19)"/><path class="cls-2" d="M932.05,580.78v5.08q0,.6-.69.6t-.69-.6v-4.79q0-2-1.64-2a2.37,2.37,0,0,0-2,1.07,2.51,2.51,0,0,0-.53,1.54v4.19q0,.6-.67.6t-.69-.6v-7.29q0-.59.7-.59t.66.59v.4a2.21,2.21,0,0,1,0,.3,2.34,2.34,0,0,0,0,.33,2.93,2.93,0,0,1,2.84-1.73,2.66,2.66,0,0,1,2,.76A3,3,0,0,1,932.05,580.78Z" transform="translate(-885.78 -488.19)"/><path class="cls-2" d="M937.37,582.73l-.86-.16a4.22,4.22,0,0,1-2-.83,2.07,2.07,0,0,1-.6-1.6,2,2,0,0,1,.83-1.66,3.72,3.72,0,0,1,2.27-.62,3.92,3.92,0,0,1,2,.47,2.4,2.4,0,0,1,1.08,1.32.82.82,0,0,1,0,.19.47.47,0,0,1-.15.34.81.81,0,0,1-.37.21l-.23,0a.55.55,0,0,1-.62-.41,1.26,1.26,0,0,0-.6-.76A2.18,2.18,0,0,0,937,579a2.31,2.31,0,0,0-1.33.31,1,1,0,0,0-.45.81,1,1,0,0,0,.31.8,2.86,2.86,0,0,0,1.23.46l.92.19a4.81,4.81,0,0,1,2.12.86,2.15,2.15,0,0,1,.62,1.7,2.19,2.19,0,0,1-.89,1.8,3.83,3.83,0,0,1-2.43.7q-2.81,0-3.44-2.11a1.29,1.29,0,0,1,0-.19.5.5,0,0,1,.16-.37.73.73,0,0,1,.38-.21l.21,0a.6.6,0,0,1,.64.41,1.9,1.9,0,0,0,2.08,1.3,2.56,2.56,0,0,0,1.44-.36,1.08,1.08,0,0,0,.54-.93,1.13,1.13,0,0,0-.38-.9A3.08,3.08,0,0,0,937.37,582.73Z" transform="translate(-885.78 -488.19)"/><path class="cls-2" d="M948.38,582.48H943.1a3.45,3.45,0,0,0,.7,2.2,2.3,2.3,0,0,0,1.87.8,2.11,2.11,0,0,0,2.05-1.33.58.58,0,0,1,.53-.38,1.26,1.26,0,0,1,.32.06q.47.13.47.53a.44.44,0,0,1-.07.26,3.39,3.39,0,0,1-3.31,2,3.59,3.59,0,0,1-2.85-1.18,4.62,4.62,0,0,1-1-3.16,4.87,4.87,0,0,1,1-3.2,3.42,3.42,0,0,1,2.8-1.21,3.22,3.22,0,0,1,2.52,1,4.28,4.28,0,0,1,1.05,2.62v.13Q949.13,582.48,948.38,582.48Zm-5.24-1.1h4.39q.23,0,.23-.19v-.07a3,3,0,0,0-.7-1.54,1.91,1.91,0,0,0-1.51-.63,2.18,2.18,0,0,0-1.66.64A3.08,3.08,0,0,0,943.14,581.38Z" transform="translate(-885.78 -488.19)"/><path class="cls-2" d="M957.66,580.78v5.08q0,.6-.69.6t-.69-.6v-4.79q0-2-1.64-2a2.37,2.37,0,0,0-2,1.07,2.51,2.51,0,0,0-.53,1.54v4.19q0,.6-.67.6t-.69-.6v-7.29q0-.59.7-.59t.66.59v.4a2.21,2.21,0,0,1,0,.3,2.34,2.34,0,0,0,0,.33,2.93,2.93,0,0,1,2.84-1.73,2.66,2.66,0,0,1,2,.76A3,3,0,0,1,957.66,580.78Z" transform="translate(-885.78 -488.19)"/><path class="cls-2" d="M965,584.78v-9.54q0-.64.72-.64t.72.63v9.27a.47.47,0,0,0,.54.53h5.32a.58.58,0,0,1,.45.18.7.7,0,0,1,.16.48.73.73,0,0,1-.17.49.55.55,0,0,1-.45.2h-5.76a1.58,1.58,0,0,1-1.17-.37A1.7,1.7,0,0,1,965,584.78Z" transform="translate(-885.78 -488.19)"/><path class="cls-2" d="M974.14,574.88a1,1,0,0,1,.73-.29,1,1,0,0,1,.71.29,1,1,0,0,1,.29.72,1,1,0,0,1-.29.73,1,1,0,0,1-.71.29,1,1,0,0,1-.73-.29,1,1,0,0,1-.3-.73A1,1,0,0,1,974.14,574.88Zm0,11v-7.29q0-.59.67-.59t.69.59v7.29q0,.6-.69.6T974.18,585.87Z" transform="translate(-885.78 -488.19)"/><path class="cls-2" d="M979,583.42v2.45q0,.6-.67.6t-.67-.6V575.19q0-.59.69-.59t.66.56v6.67l3.66-3.65a.64.64,0,0,1,.94,0,.77.77,0,0,1,.23.5.6.6,0,0,1-.21.42l-2.53,2.36,3,4a.55.55,0,0,1,.1.32.64.64,0,0,1-.34.57.75.75,0,0,1-.41.1.6.6,0,0,1-.51-.23l-2.78-3.9Z" transform="translate(-885.78 -488.19)"/><path class="cls-2" d="M991.93,582.48h-5.29a3.45,3.45,0,0,0,.7,2.2,2.3,2.3,0,0,0,1.87.8,2.11,2.11,0,0,0,2.05-1.33.58.58,0,0,1,.53-.38,1.26,1.26,0,0,1,.32.06q.47.13.47.53a.44.44,0,0,1-.07.26,3.39,3.39,0,0,1-3.31,2,3.59,3.59,0,0,1-2.85-1.18,4.62,4.62,0,0,1-1-3.16,4.87,4.87,0,0,1,1-3.2,3.42,3.42,0,0,1,2.8-1.21,3.22,3.22,0,0,1,2.52,1,4.28,4.28,0,0,1,1.05,2.62v.13Q992.68,582.48,991.93,582.48Zm-5.24-1.1h4.39q.23,0,.23-.19v-.07a3,3,0,0,0-.7-1.54,1.91,1.91,0,0,0-1.51-.63,2.18,2.18,0,0,0-1.66.64A3.08,3.08,0,0,0,986.69,581.38Z" transform="translate(-885.78 -488.19)"/><path class="cls-2" d="M994.51,585.87v-7.29q0-.59.7-.59a.74.74,0,0,1,.48.15.52.52,0,0,1,.19.43v.32l-.09.7a2.52,2.52,0,0,1,.81-1.14,2.36,2.36,0,0,1,1.49-.54h.32a2.86,2.86,0,0,1,.6.07.49.49,0,0,1,.48.54,1.76,1.76,0,0,1,0,.25.81.81,0,0,1-.2.42.5.5,0,0,1-.39.17h-.13a3.48,3.48,0,0,0-.72-.09,1.92,1.92,0,0,0-1.52.82,2.63,2.63,0,0,0-.63,1.67v4.13q0,.6-.67.6T994.51,585.87Z" transform="translate(-885.78 -488.19)"/><path class="cls-1" d="M1009.25,577.87A3.49,3.49,0,0,1,1012,579a4.68,4.68,0,0,1,1,3.16,4.84,4.84,0,0,1-1,3.2,3.4,3.4,0,0,1-2.76,1.22,3.6,3.6,0,0,1-2.87-1.2,4.75,4.75,0,0,1-1-3.22,4.61,4.61,0,0,1,1-3.15A3.58,3.58,0,0,1,1009.25,577.87Zm0,1.14a2.24,2.24,0,0,0-1.87.87,4.52,4.52,0,0,0,0,4.71,2.11,2.11,0,0,0,1.79.88,2.15,2.15,0,0,0,1.85-.88,4,4,0,0,0,.64-2.4,3.86,3.86,0,0,0-.63-2.31A2,2,0,0,0,1009.29,579Z" transform="translate(-885.78 -488.19)"/><path class="cls-1" d="M1021.7,580.78v5.08q0,.6-.69.6t-.69-.6v-4.79q0-2-1.64-2a2.37,2.37,0,0,0-2,1.07,2.51,2.51,0,0,0-.53,1.54v4.19q0,.6-.67.6t-.69-.6v-7.29q0-.59.7-.59t.66.59v.4a2.21,2.21,0,0,1,0,.3,2.34,2.34,0,0,0,0,.33,2.93,2.93,0,0,1,2.84-1.73,2.66,2.66,0,0,1,2,.76A3,3,0,0,1,1021.7,580.78Z" transform="translate(-885.78 -488.19)"/><path class="cls-1" d="M1023.78,585.87V575.2q0-.6.69-.6t.67.6v10.66q0,.6-.67.6T1023.78,585.87Z" transform="translate(-885.78 -488.19)"/><path class="cls-1" d="M1030.81,583.36l1.89-5a.57.57,0,0,1,.59-.38l.28,0a.73.73,0,0,1,.36.21.5.5,0,0,1,.14.34.93.93,0,0,1-.06.25l-3.53,8.77a4.52,4.52,0,0,1-1,1.62,2.25,2.25,0,0,1-1.6.54,3,3,0,0,1-1.08-.21.55.55,0,0,1-.42-.54,1,1,0,0,1,.07-.34.59.59,0,0,1,.56-.42.71.71,0,0,1,.29.06,2.1,2.1,0,0,0,.75.21.9.9,0,0,0,.72-.33,3.34,3.34,0,0,0,.51-.93l.42-1.05-3-7.35a.59.59,0,0,1,0-.23.53.53,0,0,1,.14-.35.81.81,0,0,1,.34-.23,1.12,1.12,0,0,1,.32,0,.56.56,0,0,1,.57.37l1.89,5q.13.37.45,1.51Q1030.46,584.33,1030.81,583.36Z" transform="translate(-885.78 -488.19)"/></svg>