<svg xmlns="http://www.w3.org/2000/svg" viewBox="0 0 302.16 78.85"><title>please_scroll</title><path d="M360.92,745.12v-0.95L380.79,734v1.5l-18,9.16,18,9.16v1.5Z" transform="translate(-360.92 -728.39)" style="fill:#ff7bac"/><path d="M388.7,738.11h1.38v6a11.89,11.89,0,0,1,1.46-2.54,9.4,9.4,0,0,1,2.13-2.06,10.85,10.85,0,0,1,2.73-1.38,10,10,0,0,1,3.27-.52,10.43,10.43,0,0,1,4.15.84,10.25,10.25,0,0,1,3.4,2.34,11.51,11.51,0,0,1,2.3,3.57,11.74,11.74,0,0,1,.86,4.56V749a11.78,11.78,0,0,1-.86,4.54,11.43,11.43,0,0,1-2.3,3.59,10.23,10.23,0,0,1-3.4,2.34,10.43,10.43,0,0,1-4.15.84,10.57,10.57,0,0,1-3.31-.49,10,10,0,0,1-2.73-1.38,9.81,9.81,0,0,1-2.11-2,11.35,11.35,0,0,1-1.44-2.49v12.77H388.7V738.11ZM399.54,759a9.58,9.58,0,0,0,3.78-.73,8.64,8.64,0,0,0,3-2.06,9.48,9.48,0,0,0,1.94-3.14,11.17,11.17,0,0,0,.69-4v-0.09a10.9,10.9,0,0,0-.71-4,10,10,0,0,0-2-3.18,8.76,8.76,0,0,0-3-2.11,9.6,9.6,0,0,0-7.5,0,9.42,9.42,0,0,0-3,2.13,9.93,9.93,0,0,0-2,3.16,10.32,10.32,0,0,0-.73,3.91V749a10.07,10.07,0,0,0,.75,3.91,10.23,10.23,0,0,0,2,3.16,9.43,9.43,0,0,0,3,2.13A9.06,9.06,0,0,0,399.54,759Z" transform="translate(-360.92 -728.39)" style="fill:#ff7bac"/><path d="M417.21,728.39h1.46v31.39h-1.46V728.39Z" transform="translate(-360.92 -728.39)" style="fill:#ff7bac"/><path d="M436.15,760.29a11,11,0,0,1-4.16-.79,10.09,10.09,0,0,1-3.43-2.28,10.92,10.92,0,0,1-2.33-3.59,12.25,12.25,0,0,1-.86-4.69v-0.09a12.51,12.51,0,0,1,.77-4.43,11,11,0,0,1,2.17-3.59,10.06,10.06,0,0,1,3.29-2.39,9.86,9.86,0,0,1,4.13-.86,9.15,9.15,0,0,1,4.3,1,9.69,9.69,0,0,1,3.12,2.56,10.86,10.86,0,0,1,1.89,3.63,14.44,14.44,0,0,1,.62,4.24v0.47H426.84a10.57,10.57,0,0,0,.89,4,9.63,9.63,0,0,0,2.05,3,8.79,8.79,0,0,0,2.92,1.88,9.31,9.31,0,0,0,3.48.66,8.83,8.83,0,0,0,4.54-1.16A11.29,11.29,0,0,0,444,755l1,0.82a12.93,12.93,0,0,1-3.7,3.22A10,10,0,0,1,436.15,760.29Zm8.06-12.08a12.19,12.19,0,0,0-.67-3.42,9.85,9.85,0,0,0-1.64-3,7.82,7.82,0,0,0-6.24-2.89,8.31,8.31,0,0,0-3.44.71,8.47,8.47,0,0,0-2.74,1.95,9.41,9.41,0,0,0-1.86,3,11,11,0,0,0-.78,3.68h17.37Z" transform="translate(-360.92 -728.39)" style="fill:#ff7bac"/><path d="M458.36,760.29a11.36,11.36,0,0,1-3-.41,8.18,8.18,0,0,1-2.64-1.25,6.3,6.3,0,0,1-1.85-2.09,5.9,5.9,0,0,1-.69-2.89v-0.09a6.07,6.07,0,0,1,.73-3,6.51,6.51,0,0,1,2-2.2,9.3,9.3,0,0,1,3-1.34,15.35,15.35,0,0,1,3.83-.45,23.42,23.42,0,0,1,4.21.36,25.83,25.83,0,0,1,3.53.89v-1.45q0-3.68-2-5.48a8.34,8.34,0,0,0-5.7-1.8,13.29,13.29,0,0,0-3.72.49,19.93,19.93,0,0,0-3.33,1.31l-0.52-1.2a23.67,23.67,0,0,1,3.63-1.4,14.31,14.31,0,0,1,4-.53q4.51,0,6.88,2.36a7.36,7.36,0,0,1,1.59,2.6,10.31,10.31,0,0,1,.56,3.55v13.5h-1.38v-4.51a7.81,7.81,0,0,1-1.2,1.78,9,9,0,0,1-1.91,1.61,10.37,10.37,0,0,1-2.64,1.18A11.66,11.66,0,0,1,458.36,760.29Zm0.09-1.33a11,11,0,0,0,3.63-.58,9.32,9.32,0,0,0,2.86-1.56,7.42,7.42,0,0,0,1.89-2.29,5.85,5.85,0,0,0,.69-2.76v-2.66a27,27,0,0,0-3.48-.86,24.57,24.57,0,0,0-4.34-.34,13.83,13.83,0,0,0-3.29.36,7.89,7.89,0,0,0-2.54,1.07,5.24,5.24,0,0,0-1.66,1.76,4.68,4.68,0,0,0-.6,2.38v0.09a4.73,4.73,0,0,0,.56,2.33,5.15,5.15,0,0,0,1.51,1.69,6.76,6.76,0,0,0,2.17,1A9.65,9.65,0,0,0,458.45,759Z" transform="translate(-360.92 -728.39)" style="fill:#ff7bac"/><path d="M483.21,760.17a13.47,13.47,0,0,1-4.67-.86,13.88,13.88,0,0,1-4.15-2.37l0.82-1.08a14.3,14.3,0,0,0,3.88,2.19,11.92,11.92,0,0,0,4.18.77,8.84,8.84,0,0,0,2.42-.32,6.29,6.29,0,0,0,2-.92,4.46,4.46,0,0,0,1.31-1.44,3.65,3.65,0,0,0,.47-1.82v-0.09a3.21,3.21,0,0,0-.56-1.93,4.72,4.72,0,0,0-1.48-1.31,11,11,0,0,0-2.1-.92q-1.18-.39-2.42-0.73-1.5-.43-2.87-0.9a11.67,11.67,0,0,1-2.4-1.12,5.18,5.18,0,0,1-1.63-1.57,4.13,4.13,0,0,1-.6-2.3v-0.09a4.76,4.76,0,0,1,.54-2.23,5.64,5.64,0,0,1,1.5-1.8,7.11,7.11,0,0,1,2.31-1.2,10,10,0,0,1,3-.43,12.6,12.6,0,0,1,3.88.64,14.65,14.65,0,0,1,3.71,1.81l-0.77,1.16a11.83,11.83,0,0,0-3.33-1.7,11.35,11.35,0,0,0-3.5-.58,6.9,6.9,0,0,0-4.29,1.22,3.68,3.68,0,0,0-1.6,3v0.09a2.8,2.8,0,0,0,.54,1.74,4.94,4.94,0,0,0,1.44,1.24,10.38,10.38,0,0,0,2.08.92q1.18,0.39,2.51.77t2.83,0.86a10.43,10.43,0,0,1,2.4,1.16,5.58,5.58,0,0,1,1.65,1.67,4.43,4.43,0,0,1,.62,2.4v0.09a5,5,0,0,1-.6,2.42,5.82,5.82,0,0,1-1.63,1.87,7.88,7.88,0,0,1-2.43,1.2A10.28,10.28,0,0,1,483.21,760.17Z" transform="translate(-360.92 -728.39)" style="fill:#ff7bac"/><path d="M506.89,760.29a11,11,0,0,1-4.16-.79,10.09,10.09,0,0,1-3.43-2.28,10.92,10.92,0,0,1-2.33-3.59,12.25,12.25,0,0,1-.86-4.69v-0.09a12.51,12.51,0,0,1,.77-4.43,11,11,0,0,1,2.17-3.59,10.06,10.06,0,0,1,3.29-2.39,9.86,9.86,0,0,1,4.13-.86,9.15,9.15,0,0,1,4.3,1,9.69,9.69,0,0,1,3.12,2.56,10.86,10.86,0,0,1,1.89,3.63,14.48,14.48,0,0,1,.62,4.24v0.47H497.57a10.57,10.57,0,0,0,.89,4,9.63,9.63,0,0,0,2.05,3,8.79,8.79,0,0,0,2.92,1.88,9.31,9.31,0,0,0,3.48.66,8.83,8.83,0,0,0,4.54-1.16,11.28,11.28,0,0,0,3.28-2.84l1,0.82a13,13,0,0,1-3.71,3.22A10,10,0,0,1,506.89,760.29Zm8.06-12.08a12.19,12.19,0,0,0-.67-3.42,9.86,9.86,0,0,0-1.64-3,7.82,7.82,0,0,0-6.24-2.89,8.31,8.31,0,0,0-3.44.71,8.47,8.47,0,0,0-2.74,1.95,9.41,9.41,0,0,0-1.86,3,11,11,0,0,0-.78,3.68h17.37Z" transform="translate(-360.92 -728.39)" style="fill:#ff7bac"/><path d="M541.86,760.17a13.47,13.47,0,0,1-4.67-.86,13.88,13.88,0,0,1-4.15-2.37l0.82-1.08a14.33,14.33,0,0,0,3.88,2.19,11.92,11.92,0,0,0,4.18.77,8.84,8.84,0,0,0,2.42-.32,6.3,6.3,0,0,0,2-.92,4.46,4.46,0,0,0,1.31-1.44,3.65,3.65,0,0,0,.47-1.82v-0.09a3.22,3.22,0,0,0-.56-1.93,4.72,4.72,0,0,0-1.48-1.31,11,11,0,0,0-2.1-.92q-1.18-.39-2.42-0.73-1.5-.43-2.87-0.9a11.65,11.65,0,0,1-2.4-1.12,5.18,5.18,0,0,1-1.63-1.57,4.13,4.13,0,0,1-.6-2.3v-0.09a4.76,4.76,0,0,1,.54-2.23,5.63,5.63,0,0,1,1.5-1.8,7.1,7.1,0,0,1,2.31-1.2,10,10,0,0,1,3-.43,12.6,12.6,0,0,1,3.88.64,14.64,14.64,0,0,1,3.71,1.81l-0.77,1.16a11.83,11.83,0,0,0-3.33-1.7,11.35,11.35,0,0,0-3.5-.58,6.9,6.9,0,0,0-4.29,1.22,3.68,3.68,0,0,0-1.6,3v0.09a2.8,2.8,0,0,0,.54,1.74,4.94,4.94,0,0,0,1.44,1.24,10.38,10.38,0,0,0,2.08.92q1.18,0.39,2.51.77t2.83,0.86a10.43,10.43,0,0,1,2.4,1.16,5.58,5.58,0,0,1,1.65,1.67,4.42,4.42,0,0,1,.62,2.4v0.09a5,5,0,0,1-.6,2.42,5.82,5.82,0,0,1-1.63,1.87,7.88,7.88,0,0,1-2.43,1.2A10.29,10.29,0,0,1,541.86,760.17Z" transform="translate(-360.92 -728.39)" style="fill:#ff7bac"/><path d="M565.81,760.29a10.53,10.53,0,0,1-4.34-.9,11,11,0,0,1-3.5-2.45,11.72,11.72,0,0,1-2.34-3.59,11.13,11.13,0,0,1-.86-4.36V748.9a11.18,11.18,0,0,1,.86-4.34,11.66,11.66,0,0,1,2.34-3.61,11,11,0,0,1,3.5-2.45,11.25,11.25,0,0,1,7.14-.57,10.75,10.75,0,0,1,2.28.88,12.23,12.23,0,0,1,1.94,1.28,17.5,17.5,0,0,1,1.68,1.55l-1,1a15,15,0,0,0-3.27-2.6,8.54,8.54,0,0,0-4.43-1.1,9.08,9.08,0,0,0-3.81.79,9.72,9.72,0,0,0-3,2.14,9.87,9.87,0,0,0-2,3.15,10.11,10.11,0,0,0-.73,3.85v0.08a10,10,0,0,0,.75,3.88A10.18,10.18,0,0,0,559,756a9.72,9.72,0,0,0,3.08,2.16,9.11,9.11,0,0,0,3.78.79,8.5,8.5,0,0,0,4.47-1.14,14.29,14.29,0,0,0,3.31-2.73l1,0.86A14.75,14.75,0,0,1,571,759,10,10,0,0,1,565.81,760.29Z" transform="translate(-360.92 -728.39)" style="fill:#ff7bac"/><path d="M580.56,738.11h1.38v6.62a11.55,11.55,0,0,1,1.33-2.67,11,11,0,0,1,2-2.28,9.21,9.21,0,0,1,2.64-1.57,8.15,8.15,0,0,1,3.2-.54v1.42h-0.21a7.61,7.61,0,0,0-3.63.88,9.26,9.26,0,0,0-2.84,2.32,10.91,10.91,0,0,0-1.85,3.33,11.55,11.55,0,0,0-.67,3.87v10.28h-1.38V738.11Z" transform="translate(-360.92 -728.39)" style="fill:#ff7bac"/><path d="M605.76,760.29a11.25,11.25,0,0,1-4.56-.9,10.92,10.92,0,0,1-3.55-2.45,11.08,11.08,0,0,1-2.3-3.59,11.52,11.52,0,0,1-.82-4.32v-0.09a11.69,11.69,0,0,1,.82-4.34,10.9,10.9,0,0,1,5.87-6.08,11.82,11.82,0,0,1,9.12,0,10.95,10.95,0,0,1,5.83,6,11.52,11.52,0,0,1,.82,4.32v0.09a11.69,11.69,0,0,1-.82,4.34,11,11,0,0,1-2.3,3.61,11.17,11.17,0,0,1-3.55,2.47A11,11,0,0,1,605.76,760.29Zm0-1.33a9.62,9.62,0,0,0,3.94-.79,9.44,9.44,0,0,0,3.08-2.16,9.85,9.85,0,0,0,2-3.17,10.39,10.39,0,0,0,.71-3.85V748.9a10.12,10.12,0,0,0-.73-3.85,10,10,0,0,0-2-3.17,10,10,0,0,0-11-2.16,9.19,9.19,0,0,0-3.06,2.16,10,10,0,0,0-2,3.17,10.37,10.37,0,0,0-.71,3.85V749a10.1,10.1,0,0,0,.73,3.85,9.93,9.93,0,0,0,2,3.17,9.68,9.68,0,0,0,3.1,2.16A9.51,9.51,0,0,0,605.78,759Z" transform="translate(-360.92 -728.39)" style="fill:#ff7bac"/><path d="M623.69,728.39h1.46v31.39h-1.46V728.39Z" transform="translate(-360.92 -728.39)" style="fill:#ff7bac"/><path d="M633.62,728.39h1.46v31.39h-1.46V728.39Z" transform="translate(-360.92 -728.39)" style="fill:#ff7bac"/><path d="M643.21,753.8l18-9.16-18-9.16V734l19.87,10.19v0.95l-19.87,10.19v-1.5Z" transform="translate(-360.92 -728.39)" style="fill:#ff7bac"/><polyline points="169 68.19 151.08 78.28 151.08 78.28 133.15 68.19" style="fill:none;stroke:#754c24;stroke-miterlimit:10"/><polyline points="169 58.11 151.08 68.19 151.08 68.19 133.15 58.11" style="fill:none;stroke:#754c24;stroke-miterlimit:10"/><polyline points="169 48.03 151.08 58.11 151.08 58.11 133.15 48.03" style="fill:none;stroke:#754c24;stroke-miterlimit:10"/></svg>